<?xml version="1.0" encoding="us-ascii" standalone="no"?><svg xmlns="http://www.w3.org/2000/svg" xmlns:xlink="http://www.w3.org/1999/xlink" contentStyleType="text/css" height="2770px" preserveAspectRatio="none" style="width:825px;height:2770px;background:#FFFFFF;" version="1.1" viewBox="0 0 825 2770" width="825px" zoomAndPan="magnify"><defs/><g><rect fill="#FFFFFF" height="173.3984" style="stroke:#000000;stroke-width:1.0;" width="10" x="147" y="1521.8047"/><rect fill="#FFFFFF" height="173.3984" style="stroke:#000000;stroke-width:1.0;" width="10" x="671" y="1521.8047"/><line style="stroke:#000000;stroke-width:1.0;" x1="152" x2="152" y1="53.2969" y2="2717.9141"/><line style="stroke:#000000;stroke-width:1.0;" x1="414" x2="414" y1="53.2969" y2="2717.9141"/><line style="stroke:#000000;stroke-width:1.0;" x1="676" x2="676" y1="53.2969" y2="2717.9141"/><text fill="#000000" font-family="monospace" font-size="14" lengthAdjust="spacing" textLength="56" x="121" y="49.9951">Client1</text><ellipse cx="152" cy="21" fill="#FFFFFF" rx="12" ry="12" style="stroke:#000000;stroke-width:1.0;"/><line style="stroke:#000000;stroke-width:1.0;" x1="140" x2="164" y1="35" y2="35"/><text fill="#000000" font-family="monospace" font-size="14" lengthAdjust="spacing" textLength="56" x="121" y="2729.9092">Client1</text><ellipse cx="152" cy="2749.2109" fill="#FFFFFF" rx="12" ry="12" style="stroke:#000000;stroke-width:1.0;"/><line style="stroke:#000000;stroke-width:1.0;" x1="140" x2="164" y1="2763.2109" y2="2763.2109"/><text fill="#000000" font-family="monospace" font-size="14" lengthAdjust="spacing" textLength="56" x="383" y="49.9951">Client2</text><ellipse cx="414" cy="21" fill="#FFFFFF" rx="12" ry="12" style="stroke:#000000;stroke-width:1.0;"/><line style="stroke:#000000;stroke-width:1.0;" x1="402" x2="426" y1="35" y2="35"/><text fill="#000000" font-family="monospace" font-size="14" lengthAdjust="spacing" textLength="56" x="383" y="2729.9092">Client2</text><ellipse cx="414" cy="2749.2109" fill="#FFFFFF" rx="12" ry="12" style="stroke:#000000;stroke-width:1.0;"/><line style="stroke:#000000;stroke-width:1.0;" x1="402" x2="426" y1="2763.2109" y2="2763.2109"/><text fill="#000000" font-family="monospace" font-size="14" lengthAdjust="spacing" textLength="48" x="649" y="49.9951">Master</text><ellipse cx="676" cy="21" fill="#FFFFFF" rx="12" ry="12" style="stroke:#000000;stroke-width:1.0;"/><line style="stroke:#000000;stroke-width:1.0;" x1="664" x2="688" y1="35" y2="35"/><text fill="#000000" font-family="monospace" font-size="14" lengthAdjust="spacing" textLength="48" x="649" y="2729.9092">Master</text><ellipse cx="676" cy="2749.2109" fill="#FFFFFF" rx="12" ry="12" style="stroke:#000000;stroke-width:1.0;"/><line style="stroke:#000000;stroke-width:1.0;" x1="664" x2="688" y1="2763.2109" y2="2763.2109"/><rect fill="#FFFFFF" height="173.3984" style="stroke:#000000;stroke-width:1.0;" width="10" x="147" y="1521.8047"/><rect fill="#FFFFFF" height="173.3984" style="stroke:#000000;stroke-width:1.0;" width="10" x="671" y="1521.8047"/><rect fill="#FFFFFF" height="3" style="stroke:#FFFFFF;stroke-width:1.0;" width="813" x="5" y="83.8633"/><line style="stroke:#000000;stroke-width:0.5;" x1="5" x2="818" y1="83.8633" y2="83.8633"/><line style="stroke:#000000;stroke-width:0.5;" x1="5" x2="818" y1="86.8633" y2="86.8633"/><rect fill="#FFFFFF" height="23.1328" style="stroke:#000000;stroke-width:1.0;" width="134" x="344.5" y="73.2969"/><text fill="#000000" font-family="monospace" font-size="13" font-weight="bold" lengthAdjust="spacing" textLength="120" x="350.5" y="89.3638">IP&#160;Broadcasting</text><polygon fill="#000000" points="402,123.5625,412,127.5625,402,131.5625,406,127.5625" style="stroke:#000000;stroke-width:1.0;"/><line style="stroke:#000000;stroke-width:1.0;" x1="152" x2="408" y1="127.5625" y2="127.5625"/><text fill="#000000" font-family="monospace" font-size="13" lengthAdjust="spacing" textLength="152" x="159" y="122.4966">Broadcast:&#160;I'm&#160;here</text><line style="stroke:#000000;stroke-width:1.0;" x1="414" x2="456" y1="156.6953" y2="156.6953"/><line style="stroke:#000000;stroke-width:1.0;" x1="456" x2="456" y1="156.6953" y2="169.6953"/><line style="stroke:#000000;stroke-width:1.0;" x1="415" x2="456" y1="169.6953" y2="169.6953"/><polygon fill="#000000" points="425,165.6953,415,169.6953,425,173.6953,421,169.6953" style="stroke:#000000;stroke-width:1.0;"/><text fill="#000000" font-family="monospace" font-size="13" lengthAdjust="spacing" textLength="128" x="421" y="151.6294">Adds&#160;received&#160;IP</text><polygon fill="#000000" points="664,194.8281,674,198.8281,664,202.8281,668,198.8281" style="stroke:#000000;stroke-width:1.0;"/><line style="stroke:#000000;stroke-width:1.0;" x1="152" x2="670" y1="198.8281" y2="198.8281"/><text fill="#000000" font-family="monospace" font-size="13" lengthAdjust="spacing" textLength="152" x="159" y="193.7622">Broadcast:&#160;I'm&#160;here</text><line style="stroke:#000000;stroke-width:1.0;" x1="676" x2="718" y1="227.9609" y2="227.9609"/><line style="stroke:#000000;stroke-width:1.0;" x1="718" x2="718" y1="227.9609" y2="240.9609"/><line style="stroke:#000000;stroke-width:1.0;" x1="677" x2="718" y1="240.9609" y2="240.9609"/><polygon fill="#000000" points="687,236.9609,677,240.9609,687,244.9609,683,240.9609" style="stroke:#000000;stroke-width:1.0;"/><text fill="#000000" font-family="monospace" font-size="13" lengthAdjust="spacing" textLength="128" x="683" y="222.895">Adds&#160;received&#160;IP</text><polygon fill="#000000" points="163,266.0938,153,270.0938,163,274.0938,159,270.0938" style="stroke:#000000;stroke-width:1.0;"/><line style="stroke:#000000;stroke-width:1.0;" x1="157" x2="413" y1="270.0938" y2="270.0938"/><text fill="#000000" font-family="monospace" font-size="13" lengthAdjust="spacing" textLength="152" x="169" y="265.0278">Broadcast:&#160;I'm&#160;here</text><line style="stroke:#000000;stroke-width:1.0;" x1="152" x2="194" y1="299.2266" y2="299.2266"/><line style="stroke:#000000;stroke-width:1.0;" x1="194" x2="194" y1="299.2266" y2="312.2266"/><line style="stroke:#000000;stroke-width:1.0;" x1="153" x2="194" y1="312.2266" y2="312.2266"/><polygon fill="#000000" points="163,308.2266,153,312.2266,163,316.2266,159,312.2266" style="stroke:#000000;stroke-width:1.0;"/><text fill="#000000" font-family="monospace" font-size="13" lengthAdjust="spacing" textLength="128" x="159" y="294.1606">Adds&#160;received&#160;IP</text><polygon fill="#000000" points="664,337.3594,674,341.3594,664,345.3594,668,341.3594" style="stroke:#000000;stroke-width:1.0;"/><line style="stroke:#000000;stroke-width:1.0;" x1="414" x2="670" y1="341.3594" y2="341.3594"/><text fill="#000000" font-family="monospace" font-size="13" lengthAdjust="spacing" textLength="152" x="421" y="336.2935">Broadcast:&#160;I'm&#160;here</text><line style="stroke:#000000;stroke-width:1.0;" x1="676" x2="718" y1="370.4922" y2="370.4922"/><line style="stroke:#000000;stroke-width:1.0;" x1="718" x2="718" y1="370.4922" y2="383.4922"/><line style="stroke:#000000;stroke-width:1.0;" x1="677" x2="718" y1="383.4922" y2="383.4922"/><polygon fill="#000000" points="687,379.4922,677,383.4922,687,387.4922,683,383.4922" style="stroke:#000000;stroke-width:1.0;"/><text fill="#000000" font-family="monospace" font-size="13" lengthAdjust="spacing" textLength="128" x="683" y="365.4263">Adds&#160;received&#160;IP</text><polygon fill="#000000" points="163,484.2891,153,488.2891,163,492.2891,159,488.2891" style="stroke:#000000;stroke-width:1.0;"/><line style="stroke:#000000;stroke-width:1.0;" x1="157" x2="675" y1="488.2891" y2="488.2891"/><text fill="#000000" font-family="monospace" font-size="13" lengthAdjust="spacing" textLength="80" x="169" y="407.5591">Broadcast:</text><text fill="#000000" font-family="monospace" font-size="13" lengthAdjust="spacing" textLength="72" x="201" y="422.6919">I'm&#160;here,</text><text fill="#000000" font-family="monospace" font-size="13" lengthAdjust="spacing" textLength="88" x="201" y="437.8247">I'm&#160;master,</text><text fill="#000000" font-family="monospace" font-size="13" lengthAdjust="spacing" textLength="120" x="201" y="452.9575">my&#160;asset's&#160;GUID</text><text fill="#000000" font-family="monospace" font-size="13" lengthAdjust="spacing" textLength="168" x="201" y="468.0903">prev&#160;UDP&#160;session&#160;GUID</text><text fill="#000000" font-family="monospace" font-size="13" lengthAdjust="spacing" textLength="168" x="201" y="483.2231">curr&#160;UDP&#160;session&#160;GUID</text><line style="stroke:#000000;stroke-width:1.0;" x1="152" x2="194" y1="517.4219" y2="517.4219"/><line style="stroke:#000000;stroke-width:1.0;" x1="194" x2="194" y1="517.4219" y2="530.4219"/><line style="stroke:#000000;stroke-width:1.0;" x1="153" x2="194" y1="530.4219" y2="530.4219"/><polygon fill="#000000" points="163,526.4219,153,530.4219,163,534.4219,159,530.4219" style="stroke:#000000;stroke-width:1.0;"/><text fill="#000000" font-family="monospace" font-size="13" lengthAdjust="spacing" textLength="128" x="159" y="512.356">Adds&#160;received&#160;IP</text><polygon fill="#000000" points="425,631.2188,415,635.2188,425,639.2188,421,635.2188" style="stroke:#000000;stroke-width:1.0;"/><line style="stroke:#000000;stroke-width:1.0;" x1="419" x2="675" y1="635.2188" y2="635.2188"/><text fill="#000000" font-family="monospace" font-size="13" lengthAdjust="spacing" textLength="80" x="431" y="554.4888">Broadcast:</text><text fill="#000000" font-family="monospace" font-size="13" lengthAdjust="spacing" textLength="72" x="463" y="569.6216">I'm&#160;here,</text><text fill="#000000" font-family="monospace" font-size="13" lengthAdjust="spacing" textLength="88" x="463" y="584.7544">I'm&#160;master,</text><text fill="#000000" font-family="monospace" font-size="13" lengthAdjust="spacing" textLength="120" x="463" y="599.8872">my&#160;asset's&#160;GUID</text><text fill="#000000" font-family="monospace" font-size="13" lengthAdjust="spacing" textLength="168" x="463" y="615.02">prev&#160;UDP&#160;session&#160;GUID</text><text fill="#000000" font-family="monospace" font-size="13" lengthAdjust="spacing" textLength="168" x="463" y="630.1528">curr&#160;UDP&#160;session&#160;GUID</text><line style="stroke:#000000;stroke-width:1.0;" x1="414" x2="456" y1="664.3516" y2="664.3516"/><line style="stroke:#000000;stroke-width:1.0;" x1="456" x2="456" y1="664.3516" y2="677.3516"/><line style="stroke:#000000;stroke-width:1.0;" x1="415" x2="456" y1="677.3516" y2="677.3516"/><polygon fill="#000000" points="425,673.3516,415,677.3516,425,681.3516,421,677.3516" style="stroke:#000000;stroke-width:1.0;"/><text fill="#000000" font-family="monospace" font-size="13" lengthAdjust="spacing" textLength="128" x="421" y="659.2856">Adds&#160;received&#160;IP</text><rect fill="#FFFFFF" height="3" style="stroke:#FFFFFF;stroke-width:1.0;" width="813" x="5" y="705.918"/><line style="stroke:#000000;stroke-width:0.5;" x1="5" x2="818" y1="705.918" y2="705.918"/><line style="stroke:#000000;stroke-width:0.5;" x1="5" x2="818" y1="708.918" y2="708.918"/><rect fill="#FFFFFF" height="23.1328" style="stroke:#000000;stroke-width:1.0;" width="158" x="332.5" y="695.3516"/><text fill="#000000" font-family="monospace" font-size="13" font-weight="bold" lengthAdjust="spacing" textLength="144" x="338.5" y="711.4185">Chunk&#160;broadcasting</text><line style="stroke:#000000;stroke-width:1.0;" x1="152" x2="194" y1="749.6172" y2="749.6172"/><line style="stroke:#000000;stroke-width:1.0;" x1="194" x2="194" y1="749.6172" y2="762.6172"/><line style="stroke:#000000;stroke-width:1.0;" x1="153" x2="194" y1="762.6172" y2="762.6172"/><polygon fill="#000000" points="163,758.6172,153,762.6172,163,766.6172,159,762.6172" style="stroke:#000000;stroke-width:1.0;"/><text fill="#000000" font-family="monospace" font-size="13" lengthAdjust="spacing" textLength="72" x="159" y="744.5513">Next&#160;step</text><polygon fill="#000000" points="402,787.75,412,791.75,402,795.75,406,791.75" style="stroke:#000000;stroke-width:1.0;"/><line style="stroke:#000000;stroke-width:1.0;" x1="152" x2="408" y1="791.75" y2="791.75"/><text fill="#000000" font-family="monospace" font-size="13" lengthAdjust="spacing" textLength="80" x="159" y="786.6841">Chunk&#160;part</text><line style="stroke:#000000;stroke-width:1.0;" x1="414" x2="456" y1="820.8828" y2="820.8828"/><line style="stroke:#000000;stroke-width:1.0;" x1="456" x2="456" y1="820.8828" y2="833.8828"/><line style="stroke:#000000;stroke-width:1.0;" x1="415" x2="456" y1="833.8828" y2="833.8828"/><polygon fill="#000000" points="425,829.8828,415,833.8828,425,837.8828,421,833.8828" style="stroke:#000000;stroke-width:1.0;"/><text fill="#000000" font-family="monospace" font-size="13" lengthAdjust="spacing" textLength="24" x="421" y="815.8169">EMA</text><polygon fill="#000000" points="163,859.0156,153,863.0156,163,867.0156,159,863.0156" style="stroke:#000000;stroke-width:1.0;"/><line style="stroke:#000000;stroke-width:1.0;" x1="157" x2="413" y1="863.0156" y2="863.0156"/><text fill="#000000" font-family="monospace" font-size="13" lengthAdjust="spacing" textLength="80" x="169" y="857.9497">Chunk&#160;part</text><line style="stroke:#000000;stroke-width:1.0;" x1="414" x2="456" y1="892.1484" y2="892.1484"/><line style="stroke:#000000;stroke-width:1.0;" x1="456" x2="456" y1="892.1484" y2="905.1484"/><line style="stroke:#000000;stroke-width:1.0;" x1="415" x2="456" y1="905.1484" y2="905.1484"/><polygon fill="#000000" points="425,901.1484,415,905.1484,425,909.1484,421,905.1484" style="stroke:#000000;stroke-width:1.0;"/><text fill="#000000" font-family="monospace" font-size="13" lengthAdjust="spacing" textLength="72" x="421" y="887.0825">Next&#160;step</text><line style="stroke:#000000;stroke-width:1.0;" x1="152" x2="194" y1="934.2813" y2="934.2813"/><line style="stroke:#000000;stroke-width:1.0;" x1="194" x2="194" y1="934.2813" y2="947.2813"/><line style="stroke:#000000;stroke-width:1.0;" x1="153" x2="194" y1="947.2813" y2="947.2813"/><polygon fill="#000000" points="163,943.2813,153,947.2813,163,951.2813,159,947.2813" style="stroke:#000000;stroke-width:1.0;"/><text fill="#000000" font-family="monospace" font-size="13" lengthAdjust="spacing" textLength="24" x="159" y="929.2153">EMA</text><line style="stroke:#000000;stroke-width:1.0;" x1="676" x2="718" y1="976.4141" y2="976.4141"/><line style="stroke:#000000;stroke-width:1.0;" x1="718" x2="718" y1="976.4141" y2="989.4141"/><line style="stroke:#000000;stroke-width:1.0;" x1="677" x2="718" y1="989.4141" y2="989.4141"/><polygon fill="#000000" points="687,985.4141,677,989.4141,687,993.4141,683,989.4141" style="stroke:#000000;stroke-width:1.0;"/><text fill="#000000" font-family="monospace" font-size="13" lengthAdjust="spacing" textLength="72" x="683" y="971.3481">Next&#160;step</text><polygon fill="#000000" points="425,1014.5469,415,1018.5469,425,1022.5469,421,1018.5469" style="stroke:#000000;stroke-width:1.0;"/><line style="stroke:#000000;stroke-width:1.0;" x1="419" x2="675" y1="1018.5469" y2="1018.5469"/><text fill="#000000" font-family="monospace" font-size="13" lengthAdjust="spacing" textLength="80" x="431" y="1013.481">Chunk&#160;part</text><line style="stroke:#000000;stroke-width:1.0;" x1="414" x2="456" y1="1047.6797" y2="1047.6797"/><line style="stroke:#000000;stroke-width:1.0;" x1="456" x2="456" y1="1047.6797" y2="1060.6797"/><line style="stroke:#000000;stroke-width:1.0;" x1="415" x2="456" y1="1060.6797" y2="1060.6797"/><polygon fill="#000000" points="425,1056.6797,415,1060.6797,425,1064.6797,421,1060.6797" style="stroke:#000000;stroke-width:1.0;"/><text fill="#000000" font-family="monospace" font-size="13" lengthAdjust="spacing" textLength="24" x="421" y="1042.6138">EMA</text><line style="stroke:#000000;stroke-width:1.0;" x1="414" x2="456" y1="1089.8125" y2="1089.8125"/><line style="stroke:#000000;stroke-width:1.0;" x1="456" x2="456" y1="1089.8125" y2="1102.8125"/><line style="stroke:#000000;stroke-width:1.0;" x1="415" x2="456" y1="1102.8125" y2="1102.8125"/><polygon fill="#000000" points="425,1098.8125,415,1102.8125,425,1106.8125,421,1102.8125" style="stroke:#000000;stroke-width:1.0;"/><text fill="#000000" font-family="monospace" font-size="13" lengthAdjust="spacing" textLength="72" x="421" y="1084.7466">Next&#160;step</text><polygon fill="#000000" points="664,1127.9453,674,1131.9453,664,1135.9453,668,1131.9453" style="stroke:#000000;stroke-width:1.0;"/><line style="stroke:#000000;stroke-width:1.0;" x1="414" x2="670" y1="1131.9453" y2="1131.9453"/><text fill="#000000" font-family="monospace" font-size="13" lengthAdjust="spacing" textLength="80" x="421" y="1126.8794">Chunk&#160;part</text><line style="stroke:#000000;stroke-width:1.0;" x1="676" x2="718" y1="1161.0781" y2="1161.0781"/><line style="stroke:#000000;stroke-width:1.0;" x1="718" x2="718" y1="1161.0781" y2="1174.0781"/><line style="stroke:#000000;stroke-width:1.0;" x1="677" x2="718" y1="1174.0781" y2="1174.0781"/><polygon fill="#000000" points="687,1170.0781,677,1174.0781,687,1178.0781,683,1174.0781" style="stroke:#000000;stroke-width:1.0;"/><text fill="#000000" font-family="monospace" font-size="13" lengthAdjust="spacing" textLength="24" x="683" y="1156.0122">EMA</text><polygon fill="#000000" points="163,1199.2109,153,1203.2109,163,1207.2109,159,1203.2109" style="stroke:#000000;stroke-width:1.0;"/><line style="stroke:#000000;stroke-width:1.0;" x1="157" x2="675" y1="1203.2109" y2="1203.2109"/><text fill="#000000" font-family="monospace" font-size="13" lengthAdjust="spacing" textLength="80" x="169" y="1198.145">Chunk&#160;part</text><line style="stroke:#000000;stroke-width:1.0;" x1="152" x2="194" y1="1232.3438" y2="1232.3438"/><line style="stroke:#000000;stroke-width:1.0;" x1="194" x2="194" y1="1232.3438" y2="1245.3438"/><line style="stroke:#000000;stroke-width:1.0;" x1="153" x2="194" y1="1245.3438" y2="1245.3438"/><polygon fill="#000000" points="163,1241.3438,153,1245.3438,163,1249.3438,159,1245.3438" style="stroke:#000000;stroke-width:1.0;"/><text fill="#000000" font-family="monospace" font-size="13" lengthAdjust="spacing" textLength="24" x="159" y="1227.2778">EMA</text><rect fill="#FFFFFF" height="3" style="stroke:#FFFFFF;stroke-width:1.0;" width="813" x="5" y="1273.9102"/><line style="stroke:#000000;stroke-width:0.5;" x1="5" x2="818" y1="1273.9102" y2="1273.9102"/><line style="stroke:#000000;stroke-width:0.5;" x1="5" x2="818" y1="1276.9102" y2="1276.9102"/><rect fill="#FFFFFF" height="23.1328" style="stroke:#000000;stroke-width:1.0;" width="78" x="372.5" y="1263.3438"/><text fill="#000000" font-family="monospace" font-size="13" font-weight="bold" lengthAdjust="spacing" textLength="64" x="378.5" y="1279.4106">New&#160;node</text><polygon fill="#000000" points="163,1389.2734,153,1393.2734,163,1397.2734,159,1393.2734" style="stroke:#000000;stroke-width:1.0;"/><line style="stroke:#000000;stroke-width:1.0;" x1="157" x2="675" y1="1393.2734" y2="1393.2734"/><text fill="#000000" font-family="monospace" font-size="13" lengthAdjust="spacing" textLength="80" x="169" y="1312.5435">Broadcast:</text><text fill="#000000" font-family="monospace" font-size="13" lengthAdjust="spacing" textLength="72" x="201" y="1327.6763">I'm&#160;here,</text><text fill="#000000" font-family="monospace" font-size="13" lengthAdjust="spacing" textLength="88" x="201" y="1342.8091">I'm&#160;master,</text><text fill="#000000" font-family="monospace" font-size="13" lengthAdjust="spacing" textLength="120" x="201" y="1357.9419">my&#160;asset's&#160;GUID</text><text fill="#000000" font-family="monospace" font-size="13" lengthAdjust="spacing" textLength="168" x="201" y="1373.0747">prev&#160;UDP&#160;session&#160;GUID</text><text fill="#000000" font-family="monospace" font-size="13" lengthAdjust="spacing" textLength="168" x="201" y="1388.2075">curr&#160;UDP&#160;session&#160;GUID</text><line style="stroke:#000000;stroke-width:1.0;" x1="152" x2="194" y1="1422.4063" y2="1422.4063"/><line style="stroke:#000000;stroke-width:1.0;" x1="194" x2="194" y1="1422.4063" y2="1435.4063"/><line style="stroke:#000000;stroke-width:1.0;" x1="153" x2="194" y1="1435.4063" y2="1435.4063"/><polygon fill="#000000" points="163,1431.4063,153,1435.4063,163,1439.4063,159,1435.4063" style="stroke:#000000;stroke-width:1.0;"/><text fill="#000000" font-family="monospace" font-size="13" lengthAdjust="spacing" textLength="128" x="159" y="1417.3403">Adds&#160;received&#160;IP</text><line style="stroke:#000000;stroke-width:1.0;" x1="152" x2="194" y1="1464.5391" y2="1464.5391"/><line style="stroke:#000000;stroke-width:1.0;" x1="194" x2="194" y1="1464.5391" y2="1477.5391"/><line style="stroke:#000000;stroke-width:1.0;" x1="153" x2="194" y1="1477.5391" y2="1477.5391"/><polygon fill="#000000" points="163,1473.5391,153,1477.5391,163,1481.5391,159,1477.5391" style="stroke:#000000;stroke-width:1.0;"/><text fill="#000000" font-family="monospace" font-size="13" lengthAdjust="spacing" textLength="176" x="159" y="1459.4731">Detects&#160;GUID&#160;missmatch</text><polygon fill="#000000" points="659,1517.8047,669,1521.8047,659,1525.8047,663,1521.8047" style="stroke:#000000;stroke-width:1.0;"/><line style="stroke:#000000;stroke-width:1.0;" x1="157" x2="665" y1="1521.8047" y2="1521.8047"/><text fill="#000000" font-family="monospace" font-size="13" lengthAdjust="spacing" textLength="144" x="164" y="1501.606">Connects&#160;via&#160;HTTP:</text><text fill="#000000" font-family="monospace" font-size="13" lengthAdjust="spacing" textLength="200" x="196" y="1516.7388">Assets&#160;with&#160;GUID&#160;required</text><polygon fill="#000000" points="167.5657,1611.1209,158,1616.0703,168.3403,1619.0833,163.9718,1615.4894" style="stroke:#000000;stroke-width:1.0;"/><line style="stroke:#000000;stroke-width:1.0;stroke-dasharray:2.0,2.0;" x1="670" x2="157" y1="1566.0703" y2="1616.0703"/><text fill="#000000" font-family="monospace" font-size="13" lengthAdjust="spacing" textLength="8" x="174" y="1545.8716">&#160;</text><text fill="#000000" font-family="monospace" font-size="13" lengthAdjust="spacing" textLength="200" x="206" y="1561.0044">Allows&#160;to&#160;download&#160;assets</text><polygon fill="#000000" points="163,1691.2031,153,1695.2031,163,1699.2031,159,1695.2031" style="stroke:#000000;stroke-width:1.0;"/><line style="stroke:#000000;stroke-width:1.0;stroke-dasharray:2.0,2.0;" x1="157" x2="675" y1="1695.2031" y2="1695.2031"/><text fill="#000000" font-family="monospace" font-size="13" lengthAdjust="spacing" textLength="136" x="169" y="1690.1372">Closes&#160;connection</text><rect fill="#FFFFFF" height="3" style="stroke:#FFFFFF;stroke-width:1.0;" width="813" x="5" y="1723.7695"/><line style="stroke:#000000;stroke-width:0.5;" x1="5" x2="818" y1="1723.7695" y2="1723.7695"/><line style="stroke:#000000;stroke-width:0.5;" x1="5" x2="818" y1="1726.7695" y2="1726.7695"/><rect fill="#FFFFFF" height="23.1328" style="stroke:#000000;stroke-width:1.0;" width="190" x="316.5" y="1713.2031"/><text fill="#000000" font-family="monospace" font-size="13" font-weight="bold" lengthAdjust="spacing" textLength="176" x="322.5" y="1729.27">Obsoleted&#160;Node&#160;recover</text><path d="M45,1751.3359 L45,1791.3359 L258,1791.3359 L258,1761.3359 L248,1751.3359 L45,1751.3359 " fill="#FFFFFF" style="stroke:#000000;stroke-width:1.0;"/><path d="M248,1751.3359 L248,1761.3359 L258,1761.3359 L248,1751.3359 " fill="#FFFFFF" style="stroke:#000000;stroke-width:1.0;"/><text fill="#000000" font-family="monospace" font-size="13" lengthAdjust="spacing" textLength="96" x="51" y="1768.4028">Client1&#160;gets</text><text fill="#000000" font-family="monospace" font-size="13" lengthAdjust="spacing" textLength="192" x="51" y="1783.5356">disconected&#160;for&#160;a&#160;while.</text><polygon fill="#000000" points="402,1813.7344,412,1817.7344,402,1821.7344,406,1817.7344" style="stroke:#000000;stroke-width:1.0;"/><line style="stroke:#000000;stroke-width:1.0;" x1="152" x2="408" y1="1817.7344" y2="1817.7344"/><text fill="#000000" font-family="monospace" font-size="13" lengthAdjust="spacing" textLength="80" x="159" y="1812.6685">Chunk&#160;part</text><line style="stroke:#000000;stroke-width:1.0;" x1="414" x2="456" y1="1922.5313" y2="1922.5313"/><line style="stroke:#000000;stroke-width:1.0;" x1="456" x2="456" y1="1922.5313" y2="1935.5313"/><line style="stroke:#000000;stroke-width:1.0;" x1="415" x2="456" y1="1935.5313" y2="1935.5313"/><polygon fill="#000000" points="425,1931.5313,415,1935.5313,425,1939.5313,421,1935.5313" style="stroke:#000000;stroke-width:1.0;"/><text fill="#000000" font-family="monospace" font-size="13" lengthAdjust="spacing" textLength="160" x="421" y="1841.8013">Chunk's&#160;session&#160;GUID</text><text fill="#000000" font-family="monospace" font-size="13" lengthAdjust="spacing" textLength="72" x="421" y="1856.9341">is&#160;not&#160;in</text><text fill="#000000" font-family="monospace" font-size="13" lengthAdjust="spacing" textLength="8" x="421" y="1872.0669">[</text><text fill="#000000" font-family="monospace" font-size="13" lengthAdjust="spacing" textLength="80" x="453" y="1887.1997">prev&#160;GUID,</text><text fill="#000000" font-family="monospace" font-size="13" lengthAdjust="spacing" textLength="72" x="453" y="1902.3325">curr&#160;GUID</text><text fill="#000000" font-family="monospace" font-size="13" lengthAdjust="spacing" textLength="8" x="421" y="1917.4653">]</text><polygon fill="#000000" points="664,1960.6641,674,1964.6641,664,1968.6641,668,1964.6641" style="stroke:#000000;stroke-width:1.0;"/><line style="stroke:#000000;stroke-width:1.0;" x1="414" x2="670" y1="1964.6641" y2="1964.6641"/><text fill="#000000" font-family="monospace" font-size="13" lengthAdjust="spacing" textLength="80" x="421" y="1959.5981">Chunk&#160;part</text><line style="stroke:#000000;stroke-width:1.0;" x1="676" x2="718" y1="1993.7969" y2="1993.7969"/><line style="stroke:#000000;stroke-width:1.0;" x1="718" x2="718" y1="1993.7969" y2="2006.7969"/><line style="stroke:#000000;stroke-width:1.0;" x1="677" x2="718" y1="2006.7969" y2="2006.7969"/><polygon fill="#000000" points="687,2002.7969,677,2006.7969,687,2010.7969,683,2006.7969" style="stroke:#000000;stroke-width:1.0;"/><text fill="#000000" font-family="monospace" font-size="13" lengthAdjust="spacing" textLength="24" x="683" y="1988.731">EMA</text><polygon fill="#000000" points="425,2107.5938,415,2111.5938,425,2115.5938,421,2111.5938" style="stroke:#000000;stroke-width:1.0;"/><line style="stroke:#000000;stroke-width:1.0;" x1="419" x2="675" y1="2111.5938" y2="2111.5938"/><text fill="#000000" font-family="monospace" font-size="13" lengthAdjust="spacing" textLength="80" x="431" y="2030.8638">Broadcast:</text><text fill="#000000" font-family="monospace" font-size="13" lengthAdjust="spacing" textLength="72" x="463" y="2045.9966">I'm&#160;here,</text><text fill="#000000" font-family="monospace" font-size="13" lengthAdjust="spacing" textLength="88" x="463" y="2061.1294">I'm&#160;master,</text><text fill="#000000" font-family="monospace" font-size="13" lengthAdjust="spacing" textLength="120" x="463" y="2076.2622">my&#160;asset's&#160;GUID</text><text fill="#000000" font-family="monospace" font-size="13" lengthAdjust="spacing" textLength="168" x="463" y="2091.395">prev&#160;UDP&#160;session&#160;GUID</text><text fill="#000000" font-family="monospace" font-size="13" lengthAdjust="spacing" textLength="168" x="463" y="2106.5278">curr&#160;UDP&#160;session&#160;GUID</text><line style="stroke:#000000;stroke-width:1.0;" x1="414" x2="456" y1="2155.8594" y2="2155.8594"/><line style="stroke:#000000;stroke-width:1.0;" x1="456" x2="456" y1="2155.8594" y2="2168.8594"/><line style="stroke:#000000;stroke-width:1.0;" x1="415" x2="456" y1="2168.8594" y2="2168.8594"/><polygon fill="#000000" points="425,2164.8594,415,2168.8594,425,2172.8594,421,2168.8594" style="stroke:#000000;stroke-width:1.0;"/><text fill="#000000" font-family="monospace" font-size="13" lengthAdjust="spacing" textLength="160" x="421" y="2135.6606">Updates&#160;IP&#160;timestamp</text><text fill="#000000" font-family="monospace" font-size="13" lengthAdjust="spacing" textLength="224" x="445" y="2150.7935">updates&#160;current&#160;session&#160;GUID</text><polygon fill="#000000" points="163,2269.6563,153,2273.6563,163,2277.6563,159,2273.6563" style="stroke:#000000;stroke-width:1.0;"/><line style="stroke:#000000;stroke-width:1.0;" x1="157" x2="675" y1="2273.6563" y2="2273.6563"/><text fill="#000000" font-family="monospace" font-size="13" lengthAdjust="spacing" textLength="80" x="169" y="2192.9263">Broadcast:</text><text fill="#000000" font-family="monospace" font-size="13" lengthAdjust="spacing" textLength="72" x="201" y="2208.0591">I'm&#160;here,</text><text fill="#000000" font-family="monospace" font-size="13" lengthAdjust="spacing" textLength="88" x="201" y="2223.1919">I'm&#160;master,</text><text fill="#000000" font-family="monospace" font-size="13" lengthAdjust="spacing" textLength="120" x="201" y="2238.3247">my&#160;asset's&#160;GUID</text><text fill="#000000" font-family="monospace" font-size="13" lengthAdjust="spacing" textLength="168" x="201" y="2253.4575">prev&#160;UDP&#160;session&#160;GUID</text><text fill="#000000" font-family="monospace" font-size="13" lengthAdjust="spacing" textLength="168" x="201" y="2268.5903">curr&#160;UDP&#160;session&#160;GUID</text><line style="stroke:#000000;stroke-width:1.0;" x1="152" x2="194" y1="2363.3203" y2="2363.3203"/><line style="stroke:#000000;stroke-width:1.0;" x1="194" x2="194" y1="2363.3203" y2="2376.3203"/><line style="stroke:#000000;stroke-width:1.0;" x1="153" x2="194" y1="2376.3203" y2="2376.3203"/><polygon fill="#000000" points="163,2372.3203,153,2376.3203,163,2380.3203,159,2376.3203" style="stroke:#000000;stroke-width:1.0;"/><text fill="#000000" font-family="monospace" font-size="13" lengthAdjust="spacing" textLength="152" x="159" y="2297.7231">GUID&#160;session&#160;not&#160;in</text><text fill="#000000" font-family="monospace" font-size="13" lengthAdjust="spacing" textLength="8" x="159" y="2312.856">[</text><text fill="#000000" font-family="monospace" font-size="13" lengthAdjust="spacing" textLength="80" x="191" y="2327.9888">prev&#160;GUID,</text><text fill="#000000" font-family="monospace" font-size="13" lengthAdjust="spacing" textLength="72" x="191" y="2343.1216">curr&#160;GUID</text><text fill="#000000" font-family="monospace" font-size="13" lengthAdjust="spacing" textLength="8" x="159" y="2358.2544">]</text><line style="stroke:#000000;stroke-width:1.0;" x1="152" x2="194" y1="2405.4531" y2="2405.4531"/><line style="stroke:#000000;stroke-width:1.0;" x1="194" x2="194" y1="2405.4531" y2="2418.4531"/><line style="stroke:#000000;stroke-width:1.0;" x1="153" x2="194" y1="2418.4531" y2="2418.4531"/><polygon fill="#000000" points="163,2414.4531,153,2418.4531,163,2422.4531,159,2418.4531" style="stroke:#000000;stroke-width:1.0;"/><text fill="#000000" font-family="monospace" font-size="13" lengthAdjust="spacing" textLength="136" x="159" y="2400.3872">Set&#160;override&#160;mode</text><line style="stroke:#000000;stroke-width:1.0;" x1="152" x2="194" y1="2462.7188" y2="2462.7188"/><line style="stroke:#000000;stroke-width:1.0;" x1="194" x2="194" y1="2462.7188" y2="2475.7188"/><line style="stroke:#000000;stroke-width:1.0;" x1="153" x2="194" y1="2475.7188" y2="2475.7188"/><polygon fill="#000000" points="163,2471.7188,153,2475.7188,163,2479.7188,159,2475.7188" style="stroke:#000000;stroke-width:1.0;"/><text fill="#000000" font-family="monospace" font-size="13" lengthAdjust="spacing" textLength="160" x="159" y="2442.52">Updates&#160;IP&#160;timestamp</text><text fill="#000000" font-family="monospace" font-size="13" lengthAdjust="spacing" textLength="224" x="183" y="2457.6528">updates&#160;current&#160;session&#160;GUID</text><line style="stroke:#000000;stroke-width:1.0;" x1="414" x2="456" y1="2504.8516" y2="2504.8516"/><line style="stroke:#000000;stroke-width:1.0;" x1="456" x2="456" y1="2504.8516" y2="2517.8516"/><line style="stroke:#000000;stroke-width:1.0;" x1="415" x2="456" y1="2517.8516" y2="2517.8516"/><polygon fill="#000000" points="425,2513.8516,415,2517.8516,425,2521.8516,421,2517.8516" style="stroke:#000000;stroke-width:1.0;"/><text fill="#000000" font-family="monospace" font-size="13" lengthAdjust="spacing" textLength="72" x="421" y="2499.7856">Next&#160;step</text><polygon fill="#000000" points="163,2542.9844,153,2546.9844,163,2550.9844,159,2546.9844" style="stroke:#000000;stroke-width:1.0;"/><line style="stroke:#000000;stroke-width:1.0;" x1="157" x2="413" y1="2546.9844" y2="2546.9844"/><text fill="#000000" font-family="monospace" font-size="13" lengthAdjust="spacing" textLength="80" x="169" y="2541.9185">Chunk&#160;part</text><line style="stroke:#000000;stroke-width:1.0;" x1="152" x2="194" y1="2591.25" y2="2591.25"/><line style="stroke:#000000;stroke-width:1.0;" x1="194" x2="194" y1="2591.25" y2="2604.25"/><line style="stroke:#000000;stroke-width:1.0;" x1="153" x2="194" y1="2604.25" y2="2604.25"/><polygon fill="#000000" points="163,2600.25,153,2604.25,163,2608.25,159,2604.25" style="stroke:#000000;stroke-width:1.0;"/><text fill="#000000" font-family="monospace" font-size="13" lengthAdjust="spacing" textLength="168" x="159" y="2571.0513">Overrides&#160;tensor&#160;part</text><text fill="#000000" font-family="monospace" font-size="13" lengthAdjust="spacing" textLength="128" x="159" y="2586.1841">with&#160;given&#160;chunk</text><path d="M10,2617.25 L10,2702.25 L295,2702.25 L295,2627.25 L285,2617.25 L10,2617.25 " fill="#FFFFFF" style="stroke:#000000;stroke-width:1.0;"/><path d="M285,2617.25 L285,2627.25 L295,2627.25 L285,2617.25 " fill="#FFFFFF" style="stroke:#000000;stroke-width:1.0;"/><text fill="#000000" font-family="monospace" font-size="13" lengthAdjust="spacing" textLength="240" x="16" y="2634.3169">Override&#160;mode&#160;is&#160;enabled&#160;until</text><text fill="#000000" font-family="monospace" font-size="13" lengthAdjust="spacing" textLength="264" x="16" y="2649.4497">all&#160;parts&#160;of&#160;weights&#160;is&#160;overrided</text><text fill="#000000" font-family="monospace" font-size="13" lengthAdjust="spacing" textLength="8" x="16" y="2664.5825">&#160;</text><text fill="#000000" font-family="monospace" font-size="13" lengthAdjust="spacing" textLength="256" x="16" y="2679.7153">Node&#160;is&#160;idle&#160;while&#160;override&#160;mode</text><text fill="#000000" font-family="monospace" font-size="13" lengthAdjust="spacing" textLength="256" x="16" y="2694.8481">is&#160;enabled&#160;(not&#160;calculate&#160;steps)</text><!--SRC=[pLPDRzim3BtxLt2dja0xB05sAP02NRAF79e4M7DgTr0jDXOgIvuan-k_7-MFMewTfki6h3b54lduH3vIVkSIJ14ooOIAx8DG6JCiXHdUirowBrgv1QFpAwsqpLYCF8fGEU4UOIe5_Hjrb-DcUSMiGnD5ayby1P-CPZoc7Q4saqaKrQvmTj6udRSsvp0_IY51WxNTk6DtoRa5Wp6ABNAOhqAmAkWmLdKMMlMG-l56p_4QTUpsy1h_2rwjpG2jMmNqQ_1EssLQUjKRwICmQz4TMVYwdi-gpSpW5jQp5LYqLcWL7CMvCRsZbrsyHtVyV-aUq0z9T9hawW7k3gcKBhl0Nmw8PpQeuGg7EiWDXlvyTJaeiGDkpyGSLQ1z3RK-0yLu3SqEZo5j1w1zEXsI- -yz2a-z3zLcWGKepT5NvCtqGSCteBjlBWKcCtGOkoemfCBQbBauYOOcs5GhLTfk1ODlrzUh-dgNdhk5GhYaWZ7uCnU6nZABdTWoXqzp-McZ7iLDyiukZZz-E6apM0DBgGiBJWFNXPAKr2fFDl0B52irvGFYYYMb9UAu6o_OQIXHEPTtLalA0uS55TKdJ6_H-E8gJPP-yMJUv6NZhnnnOIaUXIFVUss0GP48YU_fnU7WdQFNz6HvJ688oqif4TP3Wb2twYRGY3yz3OHHwUJ7t_N3MvoIwunJuIpf69n8qJgMPYL6NXzuA3BTQOit_L2LfMsi_howNR3lw4gn6a4gJadAWrQlJEDBNe43JqYNnx9cIWsEobBpUCjRLOwH3Gqi1R4766h2PNX9eBv0nUuazM1E7teoObAMO1RqFHGeDWdz9QicD_IzkAWT1PTOzUnEvWBGOr-NcCaubtvm-FlQaxR3VmC0]--></g></svg>