<?xml version="1.0" encoding="us-ascii" standalone="no"?><svg xmlns="http://www.w3.org/2000/svg" xmlns:xlink="http://www.w3.org/1999/xlink" contentStyleType="text/css" height="1139px" preserveAspectRatio="none" style="width:1808px;height:1139px;background:#FFFFFF;" version="1.1" viewBox="0 0 1808 1139" width="1808px" zoomAndPan="magnify"><defs/><g><!--class IBatchScheduler--><g id="elem_IBatchScheduler"><rect codeLine="5" fill="#FFFFFF" height="76.5938" id="IBatchScheduler" rx="2.5" ry="2.5" style="stroke:#000000;stroke-width:1.0;" width="148" x="1288" y="640"/><ellipse cx="1301" cy="654" fill="#FFFFFF" rx="9" ry="9" style="stroke:#000000;stroke-width:1.0;"/><path d="M1297.5,649.0938 L1297.5,650.4844 L1300.375,650.4844 L1300.375,657.6094 L1297.5,657.6094 L1297.5,659 L1304.7188,659 L1304.7188,657.6094 L1301.8438,657.6094 L1301.8438,650.4844 L1304.7188,650.4844 L1304.7188,649.0938 L1297.5,649.0938 Z " fill="#000000"/><text fill="#000000" font-family="monospace" font-size="14" font-style="italic" lengthAdjust="spacing" textLength="120" x="1313" y="658.8467">IBatchScheduler</text><line style="stroke:#000000;stroke-width:1.0;" x1="1289" x2="1435" y1="668" y2="668"/><ellipse cx="1299" cy="681.6484" fill="none" rx="3" ry="3" style="stroke:#000000;stroke-width:1.0;"/><text fill="#000000" font-family="monospace" font-size="14" lengthAdjust="spacing" textLength="112" x="1306" y="684.9951">:ISubset&#160;&#171;get&#187;</text><line style="stroke:#000000;stroke-width:1.0;" x1="1289" x2="1435" y1="692.2969" y2="692.2969"/><ellipse cx="1299" cy="705.9453" fill="#FFFFFF" rx="3" ry="3" style="stroke:#000000;stroke-width:1.0;"/><text fill="#000000" font-family="monospace" font-size="14" lengthAdjust="spacing" textLength="96" x="1306" y="709.292">NextSubset()</text></g><!--class ISubset--><g id="elem_ISubset"><rect codeLine="10" fill="#FFFFFF" height="76.5938" id="ISubset" rx="2.5" ry="2.5" style="stroke:#000000;stroke-width:1.0;" width="320" x="1053" y="810"/><ellipse cx="1181.25" cy="824" fill="#FFFFFF" rx="9" ry="9" style="stroke:#000000;stroke-width:1.0;"/><path d="M1177.75,819.0938 L1177.75,820.4844 L1180.625,820.4844 L1180.625,827.6094 L1177.75,827.6094 L1177.75,829 L1184.9688,829 L1184.9688,827.6094 L1182.0938,827.6094 L1182.0938,820.4844 L1184.9688,820.4844 L1184.9688,819.0938 L1177.75,819.0938 Z " fill="#000000"/><text fill="#000000" font-family="monospace" font-size="14" font-style="italic" lengthAdjust="spacing" textLength="56" x="1198.75" y="828.8467">ISubset</text><line style="stroke:#000000;stroke-width:1.0;" x1="1054" x2="1372" y1="838" y2="838"/><ellipse cx="1064" cy="851.6484" fill="none" rx="3" ry="3" style="stroke:#000000;stroke-width:1.0;"/><text fill="#000000" font-family="monospace" font-size="14" lengthAdjust="spacing" textLength="296" x="1071" y="854.9951">this[name:&#160;string]:RemoteTensor&#160;&#171;get&#187;</text><line style="stroke:#000000;stroke-width:1.0;" x1="1054" x2="1372" y1="862.2969" y2="862.2969"/><ellipse cx="1064" cy="875.9453" fill="#FFFFFF" rx="3" ry="3" style="stroke:#000000;stroke-width:1.0;"/><text fill="#000000" font-family="monospace" font-size="14" lengthAdjust="spacing" textLength="232" x="1071" y="879.292">Step():&#160;Tensor&#160;&#171;Loss&#160;measure&#187;</text></g><!--class IRemoteTensor--><g id="elem_IRemoteTensor"><rect codeLine="63" fill="#FFFFFF" height="76.5938" id="IRemoteTensor" rx="2.5" ry="2.5" style="stroke:#000000;stroke-width:1.0;" width="200" x="1520" y="810"/><ellipse cx="1564.25" cy="824" fill="#FFFFFF" rx="9" ry="9" style="stroke:#000000;stroke-width:1.0;"/><path d="M1560.75,819.0938 L1560.75,820.4844 L1563.625,820.4844 L1563.625,827.6094 L1560.75,827.6094 L1560.75,829 L1567.9688,829 L1567.9688,827.6094 L1565.0938,827.6094 L1565.0938,820.4844 L1567.9688,820.4844 L1567.9688,819.0938 L1560.75,819.0938 Z " fill="#000000"/><text fill="#000000" font-family="monospace" font-size="14" font-style="italic" lengthAdjust="spacing" textLength="104" x="1581.75" y="828.8467">IRemoteTensor</text><line style="stroke:#000000;stroke-width:1.0;" x1="1521" x2="1719" y1="838" y2="838"/><ellipse cx="1531" cy="851.6484" fill="none" rx="3" ry="3" style="stroke:#000000;stroke-width:1.0;"/><text fill="#000000" font-family="monospace" font-size="14" lengthAdjust="spacing" textLength="144" x="1538" y="854.9951">name:&#160;string&#160;&#171;get&#187;</text><ellipse cx="1531" cy="867.9453" fill="none" rx="3" ry="3" style="stroke:#000000;stroke-width:1.0;"/><text fill="#000000" font-family="monospace" font-size="14" lengthAdjust="spacing" textLength="176" x="1538" y="871.292">data:&#160;Tensor&#160;&#171;get/set&#187;</text><line style="stroke:#000000;stroke-width:1.0;" x1="1521" x2="1719" y1="878.5938" y2="878.5938"/></g><!--class IApplier--><g id="elem_IApplier"><rect codeLine="68" fill="#FFFFFF" height="60.2969" id="IApplier" rx="2.5" ry="2.5" style="stroke:#000000;stroke-width:1.0;" width="200" x="87" y="648.5"/><ellipse cx="151.25" cy="662.5" fill="#FFFFFF" rx="9" ry="9" style="stroke:#000000;stroke-width:1.0;"/><path d="M147.75,657.5938 L147.75,658.9844 L150.625,658.9844 L150.625,666.1094 L147.75,666.1094 L147.75,667.5 L154.9688,667.5 L154.9688,666.1094 L152.0938,666.1094 L152.0938,658.9844 L154.9688,658.9844 L154.9688,657.5938 L147.75,657.5938 Z " fill="#000000"/><text fill="#000000" font-family="monospace" font-size="14" font-style="italic" lengthAdjust="spacing" textLength="64" x="168.75" y="667.3467">IApplier</text><line style="stroke:#000000;stroke-width:1.0;" x1="88" x2="286" y1="676.5" y2="676.5"/><line style="stroke:#000000;stroke-width:1.0;" x1="88" x2="286" y1="684.5" y2="684.5"/><ellipse cx="98" cy="698.1484" fill="#FFFFFF" rx="3" ry="3" style="stroke:#000000;stroke-width:1.0;"/><text fill="#000000" font-family="monospace" font-size="14" lengthAdjust="spacing" textLength="176" x="105" y="701.4951">apply(:Tensor,&#160;:Chunk)</text></g><!--class Chunk--><g id="elem_Chunk"><rect codeLine="55" fill="#FFFFFF" height="109.1875" id="Chunk" rx="2.5" ry="2.5" style="stroke:#000000;stroke-width:1.0;" width="248" x="63" y="794"/><ellipse cx="163.25" cy="808" fill="#FFFFFF" rx="9" ry="9" style="stroke:#000000;stroke-width:1.0;"/><path d="M166.6563,809.9688 C165.9375,810.6406 164.6406,811.8125 162.8906,811.8125 C160.6719,811.8125 159.7031,809.875 159.7031,807.9219 C159.7031,805.5313 161.1875,804.2656 162.8281,804.2656 C164.8438,804.2656 165.0625,805.7813 165.2344,806.875 L166.6563,806.6875 C166.5625,806.1094 166.4844,805.5313 166.4844,804.5625 C166.4844,803.8906 166.5313,803.3438 166.5625,802.9219 L165.1563,802.9219 L165.0469,803.875 C164.4531,803.3438 163.8125,802.7969 162.5938,802.7969 C160.5469,802.7969 158.1406,804.625 158.1406,807.9375 C158.1406,810.875 159.9063,813.2656 162.9063,813.2656 C165.3438,813.2656 167.0469,811.6406 167.6406,811.0625 L166.6563,809.9688 Z " fill="#000000"/><text fill="#000000" font-family="monospace" font-size="14" lengthAdjust="spacing" textLength="40" x="180.75" y="812.8467">Chunk</text><line style="stroke:#000000;stroke-width:1.0;" x1="64" x2="310" y1="822" y2="822"/><ellipse cx="74" cy="835.6484" fill="none" rx="3" ry="3" style="stroke:#000000;stroke-width:1.0;"/><text fill="#000000" font-family="monospace" font-size="14" lengthAdjust="spacing" textLength="96" x="81" y="838.9951">name:&#160;string</text><ellipse cx="74" cy="851.9453" fill="none" rx="3" ry="3" style="stroke:#000000;stroke-width:1.0;"/><text fill="#000000" font-family="monospace" font-size="14" lengthAdjust="spacing" textLength="136" x="81" y="855.292">offset:&#160;int[1..*]</text><ellipse cx="74" cy="868.2422" fill="none" rx="3" ry="3" style="stroke:#000000;stroke-width:1.0;"/><text fill="#000000" font-family="monospace" font-size="14" lengthAdjust="spacing" textLength="96" x="81" y="871.5889">data:&#160;Tensor</text><line style="stroke:#000000;stroke-width:1.0;" x1="64" x2="310" y1="878.8906" y2="878.8906"/><ellipse cx="74" cy="892.5391" fill="#FFFFFF" rx="3" ry="3" style="stroke:#000000;stroke-width:1.0;"/><text fill="#000000" font-family="monospace" font-size="14" lengthAdjust="spacing" text-decoration="underline" textLength="224" x="81" y="895.8857">AsCunk(:IRemoteTensor):Chunk</text></g><!--class Node--><g id="elem_Node"><rect codeLine="20" fill="#FFFFFF" height="60.2969" id="Node" rx="2.5" ry="2.5" style="stroke:#000000;stroke-width:1.0;" width="480" x="562" y="648.5"/><ellipse cx="782.25" cy="662.5" fill="#FFFFFF" rx="9" ry="9" style="stroke:#000000;stroke-width:1.0;"/><path d="M785.6563,664.4688 C784.9375,665.1406 783.6406,666.3125 781.8906,666.3125 C779.6719,666.3125 778.7031,664.375 778.7031,662.4219 C778.7031,660.0313 780.1875,658.7656 781.8281,658.7656 C783.8438,658.7656 784.0625,660.2813 784.2344,661.375 L785.6563,661.1875 C785.5625,660.6094 785.4844,660.0313 785.4844,659.0625 C785.4844,658.3906 785.5313,657.8438 785.5625,657.4219 L784.1563,657.4219 L784.0469,658.375 C783.4531,657.8438 782.8125,657.2969 781.5938,657.2969 C779.5469,657.2969 777.1406,659.125 777.1406,662.4375 C777.1406,665.375 778.9063,667.7656 781.9063,667.7656 C784.3438,667.7656 786.0469,666.1406 786.6406,665.5625 L785.6563,664.4688 Z " fill="#000000"/><text fill="#000000" font-family="monospace" font-size="14" lengthAdjust="spacing" textLength="32" x="799.75" y="667.3467">Node</text><line style="stroke:#000000;stroke-width:1.0;" x1="563" x2="1041" y1="676.5" y2="676.5"/><line style="stroke:#000000;stroke-width:1.0;" x1="563" x2="1041" y1="684.5" y2="684.5"/><ellipse cx="573" cy="698.1484" fill="#FFFFFF" rx="3" ry="3" style="stroke:#000000;stroke-width:1.0;"/><text fill="#000000" font-family="monospace" font-size="14" lengthAdjust="spacing" textLength="456" x="580" y="701.4951">ctor(:IChunkSyncer,&#160;:ISubset,&#160;IBatchScheduler,&#160;:IApplier)</text></g><!--class IChunkSyncer--><g id="elem_IChunkSyncer"><rect codeLine="25" fill="#FFFFFF" height="76.5938" id="IChunkSyncer" rx="2.5" ry="2.5" style="stroke:#000000;stroke-width:1.0;" width="312" x="602" y="810"/><ellipse cx="706.25" cy="824" fill="#FFFFFF" rx="9" ry="9" style="stroke:#000000;stroke-width:1.0;"/><path d="M702.75,819.0938 L702.75,820.4844 L705.625,820.4844 L705.625,827.6094 L702.75,827.6094 L702.75,829 L709.9688,829 L709.9688,827.6094 L707.0938,827.6094 L707.0938,820.4844 L709.9688,820.4844 L709.9688,819.0938 L702.75,819.0938 Z " fill="#000000"/><text fill="#000000" font-family="monospace" font-size="14" font-style="italic" lengthAdjust="spacing" textLength="96" x="723.75" y="828.8467">IChunkSyncer</text><line style="stroke:#000000;stroke-width:1.0;" x1="603" x2="913" y1="838" y2="838"/><ellipse cx="613" cy="851.6484" fill="none" rx="3" ry="3" style="stroke:#000000;stroke-width:1.0;"/><text fill="#000000" font-family="monospace" font-size="14" lengthAdjust="spacing" textLength="288" x="620" y="854.9951">ChunkReceived:&#160;Action&lt;Chunk&gt;&#160;&#171;event&#187;</text><line style="stroke:#000000;stroke-width:1.0;" x1="603" x2="913" y1="862.2969" y2="862.2969"/><ellipse cx="613" cy="875.9453" fill="#FFFFFF" rx="3" ry="3" style="stroke:#000000;stroke-width:1.0;"/><text fill="#000000" font-family="monospace" font-size="14" lengthAdjust="spacing" textLength="136" x="620" y="879.292">SendChunk(:Chunk)</text></g><!--class EchoRoomChunkSyncer--><g id="elem_EchoRoomChunkSyncer"><rect codeLine="32" fill="#FFFFFF" height="60.2969" id="EchoRoomChunkSyncer" rx="2.5" ry="2.5" style="stroke:#000000;stroke-width:1.0;" width="224" x="620" y="1072"/><ellipse cx="652.8" cy="1086" fill="#FFFFFF" rx="9" ry="9" style="stroke:#000000;stroke-width:1.0;"/><path d="M656.2063,1087.9688 C655.4875,1088.6406 654.1906,1089.8125 652.4406,1089.8125 C650.2219,1089.8125 649.2531,1087.875 649.2531,1085.9219 C649.2531,1083.5313 650.7375,1082.2656 652.3781,1082.2656 C654.3938,1082.2656 654.6125,1083.7813 654.7844,1084.875 L656.2063,1084.6875 C656.1125,1084.1094 656.0344,1083.5313 656.0344,1082.5625 C656.0344,1081.8906 656.0813,1081.3438 656.1125,1080.9219 L654.7063,1080.9219 L654.5969,1081.875 C654.0031,1081.3438 653.3625,1080.7969 652.1438,1080.7969 C650.0969,1080.7969 647.6906,1082.625 647.6906,1085.9375 C647.6906,1088.875 649.4563,1091.2656 652.4563,1091.2656 C654.8938,1091.2656 656.5969,1089.6406 657.1906,1089.0625 L656.2063,1087.9688 Z " fill="#000000"/><text fill="#000000" font-family="monospace" font-size="14" lengthAdjust="spacing" textLength="152" x="669.2" y="1090.8467">EchoRoomChunkSyncer</text><line style="stroke:#000000;stroke-width:1.0;" x1="621" x2="843" y1="1100" y2="1100"/><line style="stroke:#000000;stroke-width:1.0;" x1="621" x2="843" y1="1108" y2="1108"/><ellipse cx="631" cy="1121.6484" fill="#FFFFFF" rx="3" ry="3" style="stroke:#000000;stroke-width:1.0;"/><text fill="#000000" font-family="monospace" font-size="14" lengthAdjust="spacing" textLength="200" x="638" y="1124.9951">ctor(:IChunkSyncer[0..*])</text></g><!--class UDPChunkSyncer--><g id="elem_UDPChunkSyncer"><rect fill="#FFFFFF" height="44" id="UDPChunkSyncer" rx="2.5" ry="2.5" style="stroke:#000000;stroke-width:1.0;" width="140" x="368" y="965.5"/><ellipse cx="381" cy="979.5" fill="#FFFFFF" rx="9" ry="9" style="stroke:#000000;stroke-width:1.0;"/><path d="M384.4063,981.4688 C383.6875,982.1406 382.3906,983.3125 380.6406,983.3125 C378.4219,983.3125 377.4531,981.375 377.4531,979.4219 C377.4531,977.0313 378.9375,975.7656 380.5781,975.7656 C382.5938,975.7656 382.8125,977.2813 382.9844,978.375 L384.4063,978.1875 C384.3125,977.6094 384.2344,977.0313 384.2344,976.0625 C384.2344,975.3906 384.2813,974.8438 384.3125,974.4219 L382.9063,974.4219 L382.7969,975.375 C382.2031,974.8438 381.5625,974.2969 380.3438,974.2969 C378.2969,974.2969 375.8906,976.125 375.8906,979.4375 C375.8906,982.375 377.6563,984.7656 380.6563,984.7656 C383.0938,984.7656 384.7969,983.1406 385.3906,982.5625 L384.4063,981.4688 Z " fill="#000000"/><text fill="#000000" font-family="monospace" font-size="14" lengthAdjust="spacing" textLength="112" x="393" y="984.3467">UDPChunkSyncer</text><line style="stroke:#000000;stroke-width:1.0;" x1="369" x2="507" y1="993.5" y2="993.5"/><line style="stroke:#000000;stroke-width:1.0;" x1="369" x2="507" y1="1001.5" y2="1001.5"/></g><!--class TCPServerChunkSyncer--><g id="elem_TCPServerChunkSyncer"><rect fill="#FFFFFF" height="44" id="TCPServerChunkSyncer" rx="2.5" ry="2.5" style="stroke:#000000;stroke-width:1.0;" width="188" x="820" y="965.5"/><ellipse cx="833" cy="979.5" fill="#FFFFFF" rx="9" ry="9" style="stroke:#000000;stroke-width:1.0;"/><path d="M836.4063,981.4688 C835.6875,982.1406 834.3906,983.3125 832.6406,983.3125 C830.4219,983.3125 829.4531,981.375 829.4531,979.4219 C829.4531,977.0313 830.9375,975.7656 832.5781,975.7656 C834.5938,975.7656 834.8125,977.2813 834.9844,978.375 L836.4063,978.1875 C836.3125,977.6094 836.2344,977.0313 836.2344,976.0625 C836.2344,975.3906 836.2813,974.8438 836.3125,974.4219 L834.9063,974.4219 L834.7969,975.375 C834.2031,974.8438 833.5625,974.2969 832.3438,974.2969 C830.2969,974.2969 827.8906,976.125 827.8906,979.4375 C827.8906,982.375 829.6563,984.7656 832.6563,984.7656 C835.0938,984.7656 836.7969,983.1406 837.3906,982.5625 L836.4063,981.4688 Z " fill="#000000"/><text fill="#000000" font-family="monospace" font-size="14" lengthAdjust="spacing" textLength="160" x="845" y="984.3467">TCPServerChunkSyncer</text><line style="stroke:#000000;stroke-width:1.0;" x1="821" x2="1007" y1="993.5" y2="993.5"/><line style="stroke:#000000;stroke-width:1.0;" x1="821" x2="1007" y1="1001.5" y2="1001.5"/></g><!--class TCPClientChunkSyncer--><g id="elem_TCPClientChunkSyncer"><rect fill="#FFFFFF" height="44" id="TCPClientChunkSyncer" rx="2.5" ry="2.5" style="stroke:#000000;stroke-width:1.0;" width="188" x="1049" y="965.5"/><ellipse cx="1062" cy="979.5" fill="#FFFFFF" rx="9" ry="9" style="stroke:#000000;stroke-width:1.0;"/><path d="M1065.4063,981.4688 C1064.6875,982.1406 1063.3906,983.3125 1061.6406,983.3125 C1059.4219,983.3125 1058.4531,981.375 1058.4531,979.4219 C1058.4531,977.0313 1059.9375,975.7656 1061.5781,975.7656 C1063.5938,975.7656 1063.8125,977.2813 1063.9844,978.375 L1065.4063,978.1875 C1065.3125,977.6094 1065.2344,977.0313 1065.2344,976.0625 C1065.2344,975.3906 1065.2813,974.8438 1065.3125,974.4219 L1063.9063,974.4219 L1063.7969,975.375 C1063.2031,974.8438 1062.5625,974.2969 1061.3438,974.2969 C1059.2969,974.2969 1056.8906,976.125 1056.8906,979.4375 C1056.8906,982.375 1058.6563,984.7656 1061.6563,984.7656 C1064.0938,984.7656 1065.7969,983.1406 1066.3906,982.5625 L1065.4063,981.4688 Z " fill="#000000"/><text fill="#000000" font-family="monospace" font-size="14" lengthAdjust="spacing" textLength="160" x="1074" y="984.3467">TCPClientChunkSyncer</text><line style="stroke:#000000;stroke-width:1.0;" x1="1050" x2="1236" y1="993.5" y2="993.5"/><line style="stroke:#000000;stroke-width:1.0;" x1="1050" x2="1236" y1="1001.5" y2="1001.5"/></g><g id="elem_AutoBreak"><path d="M323.5,1082 L323.5,1122.2656 A0,0 0 0 0 323.5,1122.2656 L552.5,1122.2656 A0,0 0 0 0 552.5,1122.2656 L552.5,1092 L542.5,1082 L442,1082 L438,1009.66 L434,1082 L323.5,1082 A0,0 0 0 0 323.5,1082 " fill="#FFFFFF" style="stroke:#000000;stroke-width:1.0;"/><path d="M542.5,1082 L542.5,1092 L552.5,1092 L542.5,1082 " fill="#FFFFFF" style="stroke:#000000;stroke-width:1.0;"/><text fill="#000000" font-family="monospace" font-size="13" lengthAdjust="spacing" textLength="184" x="329.5" y="1099.0669">Breaks&#160;large&#160;Chunk&#160;into</text><text fill="#000000" font-family="monospace" font-size="13" lengthAdjust="spacing" textLength="208" x="329.5" y="1114.1997">smaller&#160;ones&#160;automatically</text></g><!--class ISummaryWriter--><g id="elem_ISummaryWriter"><rect codeLine="72" fill="#FFFFFF" height="105.7715" id="ISummaryWriter" rx="2.5" ry="2.5" style="stroke:#000000;stroke-width:1.0;" width="448" x="1353" y="457"/><ellipse cx="1432.75" cy="477.4404" fill="#FFFFFF" rx="9" ry="9" style="stroke:#000000;stroke-width:1.0;"/><path d="M1429.25,472.5342 L1429.25,473.9248 L1432.125,473.9248 L1432.125,481.0498 L1429.25,481.0498 L1429.25,482.4404 L1436.4688,482.4404 L1436.4688,481.0498 L1433.5938,481.0498 L1433.5938,473.9248 L1436.4688,473.9248 L1436.4688,472.5342 L1429.25,472.5342 Z " fill="#000000"/><text fill="#000000" font-family="Verdana" font-size="12" font-style="italic" lengthAdjust="spacing" textLength="285" x="1448.25" y="474.0645">&#171;tensorflow.SummaryWriter subclass/adapter&#187;</text><text fill="#000000" font-family="monospace" font-size="14" font-style="italic" lengthAdjust="spacing" textLength="112" x="1534.75" y="489.5791">ISummaryWriter</text><line style="stroke:#000000;stroke-width:1.0;" x1="1354" x2="1800" y1="497.8809" y2="497.8809"/><line style="stroke:#000000;stroke-width:1.0;" x1="1354" x2="1800" y1="505.8809" y2="505.8809"/><ellipse cx="1364" cy="519.5293" fill="#FFFFFF" rx="3" ry="3" style="stroke:#000000;stroke-width:1.0;"/><text fill="#000000" font-family="monospace" font-size="14" lengthAdjust="spacing" textLength="360" x="1371" y="522.876">AddScalar(tag:string,&#160;value:float,&#160;group:int)</text><ellipse cx="1364" cy="535.8262" fill="#FFFFFF" rx="3" ry="3" style="stroke:#000000;stroke-width:1.0;"/><text fill="#000000" font-family="monospace" font-size="14" lengthAdjust="spacing" textLength="424" x="1371" y="539.1729">AddEmbedding(tag:string,&#160;embending:Tensor,&#160;group:int)</text><ellipse cx="1364" cy="552.123" fill="#FFFFFF" rx="3" ry="3" style="stroke:#000000;stroke-width:1.0;"/><text fill="#000000" font-family="monospace" font-size="14" lengthAdjust="spacing" textLength="24" x="1371" y="555.4697">...</text></g><!--class Loop--><g id="elem_Loop"><rect codeLine="78" fill="#FFFFFF" height="92.8906" id="Loop" rx="2.5" ry="2.5" style="stroke:#000000;stroke-width:1.0;" width="296" x="846" y="463.5"/><ellipse cx="974.25" cy="477.5" fill="#FFFFFF" rx="9" ry="9" style="stroke:#000000;stroke-width:1.0;"/><path d="M977.6563,479.4688 C976.9375,480.1406 975.6406,481.3125 973.8906,481.3125 C971.6719,481.3125 970.7031,479.375 970.7031,477.4219 C970.7031,475.0313 972.1875,473.7656 973.8281,473.7656 C975.8438,473.7656 976.0625,475.2813 976.2344,476.375 L977.6563,476.1875 C977.5625,475.6094 977.4844,475.0313 977.4844,474.0625 C977.4844,473.3906 977.5313,472.8438 977.5625,472.4219 L976.1563,472.4219 L976.0469,473.375 C975.4531,472.8438 974.8125,472.2969 973.5938,472.2969 C971.5469,472.2969 969.1406,474.125 969.1406,477.4375 C969.1406,480.375 970.9063,482.7656 973.9063,482.7656 C976.3438,482.7656 978.0469,481.1406 978.6406,480.5625 L977.6563,479.4688 Z " fill="#000000"/><text fill="#000000" font-family="monospace" font-size="14" lengthAdjust="spacing" textLength="32" x="991.75" y="482.3467">Loop</text><line style="stroke:#000000;stroke-width:1.0;" x1="847" x2="1141" y1="491.5" y2="491.5"/><line style="stroke:#000000;stroke-width:1.0;" x1="847" x2="1141" y1="499.5" y2="499.5"/><ellipse cx="857" cy="513.1484" fill="#FFFFFF" rx="3" ry="3" style="stroke:#000000;stroke-width:1.0;"/><text fill="#000000" font-family="monospace" font-size="14" lengthAdjust="spacing" textLength="272" x="864" y="516.4951">ctor(:Node,&#160;:ISummaryWriter[0..1])</text><ellipse cx="857" cy="529.4453" fill="#FFFFFF" rx="3" ry="3" style="stroke:#000000;stroke-width:1.0;"/><text fill="#000000" font-family="monospace" font-size="14" lengthAdjust="spacing" textLength="48" x="864" y="532.792">Tick()</text><ellipse cx="857" cy="545.7422" fill="#FFFFFF" rx="3" ry="3" style="stroke:#000000;stroke-width:1.0;"/><text fill="#000000" font-family="monospace" font-size="14" lengthAdjust="spacing" textLength="56" x="864" y="549.0889">Start()</text></g><!--class MovingAverageApplier--><g id="elem_MovingAverageApplier"><rect codeLine="87" fill="#FFFFFF" height="60.2969" id="MovingAverageApplier" rx="2.5" ry="2.5" style="stroke:#000000;stroke-width:1.0;" width="200" x="193" y="480"/><ellipse cx="211.4" cy="494" fill="#FFFFFF" rx="9" ry="9" style="stroke:#000000;stroke-width:1.0;"/><path d="M214.8063,495.9688 C214.0875,496.6406 212.7906,497.8125 211.0406,497.8125 C208.8219,497.8125 207.8531,495.875 207.8531,493.9219 C207.8531,491.5313 209.3375,490.2656 210.9781,490.2656 C212.9938,490.2656 213.2125,491.7813 213.3844,492.875 L214.8063,492.6875 C214.7125,492.1094 214.6344,491.5313 214.6344,490.5625 C214.6344,489.8906 214.6813,489.3438 214.7125,488.9219 L213.3063,488.9219 L213.1969,489.875 C212.6031,489.3438 211.9625,488.7969 210.7438,488.7969 C208.6969,488.7969 206.2906,490.625 206.2906,493.9375 C206.2906,496.875 208.0563,499.2656 211.0563,499.2656 C213.4938,499.2656 215.1969,497.6406 215.7906,497.0625 L214.8063,495.9688 Z " fill="#000000"/><text fill="#000000" font-family="monospace" font-size="14" lengthAdjust="spacing" textLength="160" x="224.6" y="498.8467">MovingAverageApplier</text><line style="stroke:#000000;stroke-width:1.0;" x1="194" x2="392" y1="508" y2="508"/><line style="stroke:#000000;stroke-width:1.0;" x1="194" x2="392" y1="516" y2="516"/><ellipse cx="204" cy="529.6484" fill="#FFFFFF" rx="3" ry="3" style="stroke:#000000;stroke-width:1.0;"/><text fill="#000000" font-family="monospace" font-size="14" lengthAdjust="spacing" textLength="176" x="211" y="532.9951">ctor(factor:float=0.5)</text></g><!--class InstantApplier--><g id="elem_InstantApplier"><rect fill="#FFFFFF" height="44" id="InstantApplier" rx="2.5" ry="2.5" style="stroke:#000000;stroke-width:1.0;" width="140" x="12" y="488"/><ellipse cx="25" cy="502" fill="#FFFFFF" rx="9" ry="9" style="stroke:#000000;stroke-width:1.0;"/><path d="M28.4063,503.9688 C27.6875,504.6406 26.3906,505.8125 24.6406,505.8125 C22.4219,505.8125 21.4531,503.875 21.4531,501.9219 C21.4531,499.5313 22.9375,498.2656 24.5781,498.2656 C26.5938,498.2656 26.8125,499.7813 26.9844,500.875 L28.4063,500.6875 C28.3125,500.1094 28.2344,499.5313 28.2344,498.5625 C28.2344,497.8906 28.2813,497.3438 28.3125,496.9219 L26.9063,496.9219 L26.7969,497.875 C26.2031,497.3438 25.5625,496.7969 24.3438,496.7969 C22.2969,496.7969 19.8906,498.625 19.8906,501.9375 C19.8906,504.875 21.6563,507.2656 24.6563,507.2656 C27.0938,507.2656 28.7969,505.6406 29.3906,505.0625 L28.4063,503.9688 Z " fill="#000000"/><text fill="#000000" font-family="monospace" font-size="14" lengthAdjust="spacing" textLength="112" x="37" y="506.8467">InstantApplier</text><line style="stroke:#000000;stroke-width:1.0;" x1="13" x2="151" y1="516" y2="516"/><line style="stroke:#000000;stroke-width:1.0;" x1="13" x2="151" y1="524" y2="524"/></g><!--class StandardNodeBuilder--><g id="elem_StandardNodeBuilder"><rect codeLine="94" fill="#FFFFFF" height="141.7813" id="StandardNodeBuilder" rx="2.5" ry="2.5" style="stroke:#000000;stroke-width:1.0;" width="208" x="611" y="254"/><ellipse cx="636.6" cy="268" fill="#FFFFFF" rx="9" ry="9" style="stroke:#000000;stroke-width:1.0;"/><path d="M640.0063,269.9688 C639.2875,270.6406 637.9906,271.8125 636.2406,271.8125 C634.0219,271.8125 633.0531,269.875 633.0531,267.9219 C633.0531,265.5313 634.5375,264.2656 636.1781,264.2656 C638.1938,264.2656 638.4125,265.7813 638.5844,266.875 L640.0063,266.6875 C639.9125,266.1094 639.8344,265.5313 639.8344,264.5625 C639.8344,263.8906 639.8813,263.3438 639.9125,262.9219 L638.5063,262.9219 L638.3969,263.875 C637.8031,263.3438 637.1625,262.7969 635.9438,262.7969 C633.8969,262.7969 631.4906,264.625 631.4906,267.9375 C631.4906,270.875 633.2563,273.2656 636.2563,273.2656 C638.6938,273.2656 640.3969,271.6406 640.9906,271.0625 L640.0063,269.9688 Z " fill="#000000"/><text fill="#000000" font-family="monospace" font-size="14" lengthAdjust="spacing" textLength="152" x="651.4" y="272.8467">StandardNodeBuilder</text><line style="stroke:#000000;stroke-width:1.0;" x1="612" x2="818" y1="282" y2="282"/><line style="stroke:#000000;stroke-width:1.0;" x1="612" x2="818" y1="290" y2="290"/><ellipse cx="622" cy="303.6484" fill="#FFFFFF" rx="3" ry="3" style="stroke:#000000;stroke-width:1.0;"/><text fill="#000000" font-family="monospace" font-size="14" lengthAdjust="spacing" textLength="104" x="629" y="306.9951">Build():&#160;Node</text><ellipse cx="622" cy="319.9453" fill="#FFFFFF" rx="3" ry="3" style="stroke:#000000;stroke-width:1.0;"/><text fill="#000000" font-family="monospace" font-size="14" lengthAdjust="spacing" textLength="112" x="629" y="323.292">AddTCPServer()</text><ellipse cx="622" cy="336.2422" fill="#FFFFFF" rx="3" ry="3" style="stroke:#000000;stroke-width:1.0;"/><text fill="#000000" font-family="monospace" font-size="14" lengthAdjust="spacing" textLength="184" x="629" y="339.5889">ConnectViaTCP(ip,&#160;port)</text><ellipse cx="622" cy="352.5391" fill="#FFFFFF" rx="3" ry="3" style="stroke:#000000;stroke-width:1.0;"/><text fill="#000000" font-family="monospace" font-size="14" lengthAdjust="spacing" textLength="152" x="629" y="355.8857">AddUDPBroadcating()</text><ellipse cx="622" cy="368.8359" fill="#FFFFFF" rx="3" ry="3" style="stroke:#000000;stroke-width:1.0;"/><text fill="#000000" font-family="monospace" font-size="14" lengthAdjust="spacing" textLength="160" x="629" y="372.1826">UseModelLib(:Module)</text><ellipse cx="622" cy="385.1328" fill="#FFFFFF" rx="3" ry="3" style="stroke:#000000;stroke-width:1.0;"/><text fill="#000000" font-family="monospace" font-size="14" lengthAdjust="spacing" textLength="176" x="629" y="388.4795">UseModelLib(:Importer)</text></g><g id="elem_Module"><rect fill="#FFFFFF" height="74.8594" style="stroke:#000000;stroke-width:1.0;" width="232" x="1038" y="287.5"/><text fill="#000000" font-family="monospace" font-size="12" font-style="italic" lengthAdjust="spacing" textLength="105" x="1101.5" y="298.6387">&#171;python&#160;module&#187;</text><text fill="#000000" font-family="monospace" font-size="14" lengthAdjust="spacing" textLength="48" x="1130" y="316.4639">Module</text><line style="stroke:#000000;stroke-width:1.0;" x1="1039" x2="1269" y1="321.7656" y2="321.7656"/><ellipse cx="1049" cy="335.4141" fill="none" rx="3" ry="3" style="stroke:#000000;stroke-width:1.0;"/><text fill="#000000" font-family="monospace" font-size="14" lengthAdjust="spacing" textLength="112" x="1056" y="338.7607">Model:&#160;ISubset</text><ellipse cx="1049" cy="351.7109" fill="none" rx="3" ry="3" style="stroke:#000000;stroke-width:1.0;"/><text fill="#000000" font-family="monospace" font-size="14" lengthAdjust="spacing" textLength="208" x="1056" y="355.0576">Scheduler:&#160;IBatchScheduler</text></g><!--class RemoteImporter--><g id="elem_RemoteImporter"><rect codeLine="111" fill="#FFFFFF" height="60.2969" id="RemoteImporter" rx="2.5" ry="2.5" style="stroke:#000000;stroke-width:1.0;" width="320" x="1199" y="117"/><ellipse cx="1299.25" cy="131" fill="#FFFFFF" rx="9" ry="9" style="stroke:#000000;stroke-width:1.0;"/><path d="M1302.6563,132.9688 C1301.9375,133.6406 1300.6406,134.8125 1298.8906,134.8125 C1296.6719,134.8125 1295.7031,132.875 1295.7031,130.9219 C1295.7031,128.5313 1297.1875,127.2656 1298.8281,127.2656 C1300.8438,127.2656 1301.0625,128.7813 1301.2344,129.875 L1302.6563,129.6875 C1302.5625,129.1094 1302.4844,128.5313 1302.4844,127.5625 C1302.4844,126.8906 1302.5313,126.3438 1302.5625,125.9219 L1301.1563,125.9219 L1301.0469,126.875 C1300.4531,126.3438 1299.8125,125.7969 1298.5938,125.7969 C1296.5469,125.7969 1294.1406,127.625 1294.1406,130.9375 C1294.1406,133.875 1295.9063,136.2656 1298.9063,136.2656 C1301.3438,136.2656 1303.0469,134.6406 1303.6406,134.0625 L1302.6563,132.9688 Z " fill="#000000"/><text fill="#000000" font-family="monospace" font-size="14" lengthAdjust="spacing" textLength="112" x="1316.75" y="135.8467">RemoteImporter</text><line style="stroke:#000000;stroke-width:1.0;" x1="1200" x2="1518" y1="145" y2="145"/><line style="stroke:#000000;stroke-width:1.0;" x1="1200" x2="1518" y1="153" y2="153"/><ellipse cx="1210" cy="166.6484" fill="#FFFFFF" rx="3" ry="3" style="stroke:#000000;stroke-width:1.0;"/><text fill="#000000" font-family="monospace" font-size="14" lengthAdjust="spacing" textLength="296" x="1217" y="169.9951">ctor(tar:URL,&#160;assetsLocalPath:string)</text></g><!--class LocalImporter--><g id="elem_LocalImporter"><rect codeLine="115" fill="#FFFFFF" height="60.2969" id="LocalImporter" rx="2.5" ry="2.5" style="stroke:#000000;stroke-width:1.0;" width="208" x="950" y="117"/><ellipse cx="998.25" cy="131" fill="#FFFFFF" rx="9" ry="9" style="stroke:#000000;stroke-width:1.0;"/><path d="M1001.6563,132.9688 C1000.9375,133.6406 999.6406,134.8125 997.8906,134.8125 C995.6719,134.8125 994.7031,132.875 994.7031,130.9219 C994.7031,128.5313 996.1875,127.2656 997.8281,127.2656 C999.8438,127.2656 1000.0625,128.7813 1000.2344,129.875 L1001.6563,129.6875 C1001.5625,129.1094 1001.4844,128.5313 1001.4844,127.5625 C1001.4844,126.8906 1001.5313,126.3438 1001.5625,125.9219 L1000.1563,125.9219 L1000.0469,126.875 C999.4531,126.3438 998.8125,125.7969 997.5938,125.7969 C995.5469,125.7969 993.1406,127.625 993.1406,130.9375 C993.1406,133.875 994.9063,136.2656 997.9063,136.2656 C1000.3438,136.2656 1002.0469,134.6406 1002.6406,134.0625 L1001.6563,132.9688 Z " fill="#000000"/><text fill="#000000" font-family="monospace" font-size="14" lengthAdjust="spacing" textLength="104" x="1015.75" y="135.8467">LocalImporter</text><line style="stroke:#000000;stroke-width:1.0;" x1="951" x2="1157" y1="145" y2="145"/><line style="stroke:#000000;stroke-width:1.0;" x1="951" x2="1157" y1="153" y2="153"/><ellipse cx="961" cy="166.6484" fill="#FFFFFF" rx="3" ry="3" style="stroke:#000000;stroke-width:1.0;"/><text fill="#000000" font-family="monospace" font-size="14" lengthAdjust="spacing" textLength="184" x="968" y="169.9951">ctor(assetsPath:string)</text></g><!--class Importer--><g id="elem_Importer"><rect fill="#FFFFFF" height="44" id="Importer" rx="2.5" ry="2.5" style="stroke:#000000;stroke-width:1.0;" width="92" x="1008" y="12"/><ellipse cx="1021" cy="26" fill="#FFFFFF" rx="9" ry="9" style="stroke:#000000;stroke-width:1.0;"/><path d="M1024.4063,27.9688 C1023.6875,28.6406 1022.3906,29.8125 1020.6406,29.8125 C1018.4219,29.8125 1017.4531,27.875 1017.4531,25.9219 C1017.4531,23.5313 1018.9375,22.2656 1020.5781,22.2656 C1022.5938,22.2656 1022.8125,23.7813 1022.9844,24.875 L1024.4063,24.6875 C1024.3125,24.1094 1024.2344,23.5313 1024.2344,22.5625 C1024.2344,21.8906 1024.2813,21.3438 1024.3125,20.9219 L1022.9063,20.9219 L1022.7969,21.875 C1022.2031,21.3438 1021.5625,20.7969 1020.3438,20.7969 C1018.2969,20.7969 1015.8906,22.625 1015.8906,25.9375 C1015.8906,28.875 1017.6563,31.2656 1020.6563,31.2656 C1023.0938,31.2656 1024.7969,29.6406 1025.3906,29.0625 L1024.4063,27.9688 Z " fill="#000000"/><text fill="#000000" font-family="monospace" font-size="14" lengthAdjust="spacing" textLength="64" x="1033" y="30.8467">Importer</text><line style="stroke:#000000;stroke-width:1.0;" x1="1009" x2="1099" y1="40" y2="40"/><line style="stroke:#000000;stroke-width:1.0;" x1="1009" x2="1099" y1="48" y2="48"/></g><!--link ISubset to IRemoteTensor--><g id="link_ISubset_IRemoteTensor"><path codeLine="15" d="M1373.27,848.5 C1422.66,848.5 1469.6,848.5 1513.73,848.5 " fill="none" id="ISubset-to-IRemoteTensor" style="stroke:#000000;stroke-width:1.0;"/><polygon fill="#000000" points="1519.73,848.5,1510.73,844.5,1514.73,848.5,1510.73,852.5,1519.73,848.5" style="stroke:#000000;stroke-width:1.0;"/><text fill="#000000" font-family="monospace" font-size="13" lengthAdjust="spacing" textLength="104" x="1394.5" y="841.5669">&#171;Consists&#160;of&#187;</text><text fill="#000000" font-family="monospace" font-size="13" lengthAdjust="spacing" textLength="8" x="1381.2268" y="845.2167">0</text><text fill="#000000" font-family="monospace" font-size="13" lengthAdjust="spacing" textLength="8" x="1504.0727" y="845.0359">*</text></g><!--link IApplier to Chunk--><g id="link_IApplier_Chunk"><path codeLine="16" d="M187,708.76 C187,732.17 187,759.63 187,787.82 " fill="none" id="IApplier-to-Chunk" style="stroke:#000000;stroke-width:1.0;stroke-dasharray:7.0,7.0;"/><polygon fill="#000000" points="187,793.82,191,784.82,187,788.82,183,784.82,187,793.82" style="stroke:#000000;stroke-width:1.0;"/><text fill="#000000" font-family="monospace" font-size="13" lengthAdjust="spacing" textLength="120" x="188" y="760.0669">&#171;Uses&#160;to&#160;apply&#187;</text></g><!--link IBatchScheduler to ISubset--><g id="link_IBatchScheduler_ISubset"><path codeLine="18" d="M1359.76,717.38 C1357.32,732.94 1352.48,750.45 1343,764 C1330.16,782.35 1316.891,794.3506 1298.071,806.5806 " fill="none" id="IBatchScheduler-to-ISubset" style="stroke:#000000;stroke-width:1.0;stroke-dasharray:7.0,7.0;"/><polygon fill="#000000" points="1293.04,809.85,1302.7661,808.3,1297.2325,807.1255,1298.407,801.5919,1293.04,809.85" style="stroke:#000000;stroke-width:1.0;"/><text fill="#000000" font-family="monospace" font-size="13" lengthAdjust="spacing" textLength="320" x="1352" y="760.0669">&#171;Manages&#160;instance&#160;for&#160;proper&#160;batch&#160;step&#187;</text><text fill="#000000" font-family="monospace" font-size="13" lengthAdjust="spacing" textLength="8" x="1350.8045" y="736.5901">0</text><text fill="#000000" font-family="monospace" font-size="13" lengthAdjust="spacing" textLength="8" x="1298.1094" y="799.0312">1</text></g><!--reverse link Chunk to IChunkSyncer--><g id="link_Chunk_IChunkSyncer"><path codeLine="30" d="M317.25,848.5 C402.55,848.5 510.42,848.5 601.85,848.5 " fill="none" id="Chunk-backto-IChunkSyncer" style="stroke:#000000;stroke-width:1.0;stroke-dasharray:7.0,7.0;"/><polygon fill="#000000" points="311.25,848.5,320.25,852.5,316.25,848.5,320.25,844.5,311.25,848.5" style="stroke:#000000;stroke-width:1.0;"/><text fill="#000000" font-family="monospace" font-size="13" lengthAdjust="spacing" textLength="248" x="332.5" y="841.5669">&#171;uses&#160;as&#160;fundamental&#160;sync&#160;unit&#187;</text></g><!--reverse link IChunkSyncer to UDPChunkSyncer--><g id="link_IChunkSyncer_UDPChunkSyncer"><path codeLine="36" d="M650.5939,894.1153 C616.5939,908.3353 594.27,917.8 559,933 C534.53,943.54 507.39,955.52 485.03,965.46 " fill="none" id="IChunkSyncer-backto-UDPChunkSyncer" style="stroke:#000000;stroke-width:1.0;"/><polygon fill="none" points="667.2,887.17,648.2788,888.5799,652.909,899.6506,667.2,887.17" style="stroke:#000000;stroke-width:1.0;"/></g><!--reverse link IChunkSyncer to TCPServerChunkSyncer--><g id="link_IChunkSyncer_TCPServerChunkSyncer"><path codeLine="37" d="M814.5665,899.1758 C843.2465,924.3558 866.35,944.65 889.99,965.41 " fill="none" id="IChunkSyncer-backto-TCPServerChunkSyncer" style="stroke:#000000;stroke-width:1.0;"/><polygon fill="none" points="801.04,887.3,810.6079,903.6846,818.5251,894.6669,801.04,887.3" style="stroke:#000000;stroke-width:1.0;"/></g><!--reverse link IChunkSyncer to TCPClientChunkSyncer--><g id="link_IChunkSyncer_TCPClientChunkSyncer"><path codeLine="38" d="M880.4183,893.0647 C951.3183,918.2947 1025.23,944.59 1083.78,965.43 " fill="none" id="IChunkSyncer-backto-TCPClientChunkSyncer" style="stroke:#000000;stroke-width:1.0;"/><polygon fill="none" points="863.46,887.03,878.4067,898.7174,882.4298,887.4119,863.46,887.03" style="stroke:#000000;stroke-width:1.0;"/></g><!--reverse link IChunkSyncer to EchoRoomChunkSyncer--><g id="link_IChunkSyncer_EchoRoomChunkSyncer"><path codeLine="39" d="M752.2567,905.0543 C747.0367,955.4843 739.75,1025.99 735.03,1071.73 " fill="none" id="IChunkSyncer-backto-EchoRoomChunkSyncer" style="stroke:#000000;stroke-width:1.0;"/><polygon fill="none" points="754.11,887.15,746.2886,904.4366,758.2248,905.6721,754.11,887.15" style="stroke:#000000;stroke-width:1.0;"/></g><!--reverse link IChunkSyncer to EchoRoomChunkSyncer--><g id="link_IChunkSyncer_EchoRoomChunkSyncer"><path codeLine="41" d="M689.6309,890.6072 C663.2609,909.9372 640.36,932.54 626,964 C617.33,983 617.23,992.04 626,1011 C637.61,1036.09 660.04,1056.74 681.29,1071.9 " fill="none" id="IChunkSyncer-backto-EchoRoomChunkSyncer-1" style="stroke:#000000;stroke-width:1.0;"/><polygon fill="#000000" points="694.47,887.06,684.8465,889.1548,690.4374,890.016,689.5761,895.6069,694.47,887.06" style="stroke:#000000;stroke-width:1.0;"/><text fill="#000000" font-family="monospace" font-size="13" lengthAdjust="spacing" textLength="72" x="643" y="977.0669">&lt;&lt;Ensures</text><text fill="#000000" font-family="monospace" font-size="13" lengthAdjust="spacing" textLength="104" x="627" y="992.1997">data&#160;exchange</text><text fill="#000000" font-family="monospace" font-size="13" lengthAdjust="spacing" textLength="72" x="643" y="1007.3325">between&gt;&gt;</text><text fill="#000000" font-family="monospace" font-size="13" lengthAdjust="spacing" textLength="8" x="675.2853" y="906.8002">*</text><text fill="#000000" font-family="monospace" font-size="13" lengthAdjust="spacing" textLength="8" x="661.3222" y="1060.724">0</text></g><!--link Node to IChunkSyncer--><g id="link_Node_IChunkSyncer"><path codeLine="48" d="M757.56,708.65 C745.34,719.14 733.63,732.12 727,747 C718.01,767.18 721.8423,785.3363 731.1223,804.5663 " fill="none" id="Node-to-IChunkSyncer" style="stroke:#000000;stroke-width:1.0;"/><polygon fill="#000000" points="733.73,809.97,733.4209,800.126,731.5569,805.4669,726.216,803.6029,733.73,809.97" style="stroke:#000000;stroke-width:1.0;"/><text fill="#000000" font-family="monospace" font-size="13" lengthAdjust="spacing" textLength="168" x="728" y="760.0669">&#171;uses&#160;to&#160;get&#160;changes&#187;</text><text fill="#000000" font-family="monospace" font-size="13" lengthAdjust="spacing" textLength="8" x="738.9637" y="728.9349">0</text><text fill="#000000" font-family="monospace" font-size="13" lengthAdjust="spacing" textLength="8" x="720.6944" y="798.8858">1</text></g><!--reverse link IApplier to Node--><g id="link_IApplier_Node"><path codeLine="49" d="M293.18,678.5 C367.55,678.5 466.2,678.5 561.75,678.5 " fill="none" id="IApplier-backto-Node" style="stroke:#000000;stroke-width:1.0;"/><polygon fill="#000000" points="287.18,678.5,296.18,682.5,292.18,678.5,296.18,674.5,287.18,678.5" style="stroke:#000000;stroke-width:1.0;"/><text fill="#000000" font-family="monospace" font-size="13" lengthAdjust="spacing" textLength="232" x="308.5" y="671.5669">&#171;uses&#160;to&#160;apply&#160;given&#160;changes&#187;</text></g><!--link Node to Chunk--><g id="link_Node_Chunk"><path codeLine="51" d="M695.58,708.57 C588.66,737.78 429.7679,781.1787 316.9579,811.9987 " fill="none" id="Node-to-Chunk" style="stroke:#000000;stroke-width:1.0;stroke-dasharray:7.0,7.0;"/><polygon fill="#000000" points="311.17,813.58,320.906,815.0667,315.9932,812.2623,318.7976,807.3495,311.17,813.58" style="stroke:#000000;stroke-width:1.0;"/><text fill="#000000" font-family="monospace" font-size="13" lengthAdjust="spacing" textLength="96" x="551" y="760.0669">&#171;depends&#160;on&#187;</text></g><!--link Node to IBatchScheduler--><g id="link_Node_IBatchScheduler"><path codeLine="52" d="M1042.33,678.5 C1130.88,678.5 1212.84,678.5 1275.8,678.5 " fill="none" id="Node-to-IBatchScheduler" style="stroke:#000000;stroke-width:1.0;"/><polygon fill="none" points="1287.8,678.5,1281.8,674.5,1275.8,678.5,1281.8,682.5,1287.8,678.5" style="stroke:#000000;stroke-width:1.0;"/><text fill="#000000" font-family="monospace" font-size="13" lengthAdjust="spacing" textLength="152" x="1089" y="671.5669">&#171;Extracts&#160;model&#160;by&#187;</text></g><!--link Node to ISubset--><g id="link_Node_ISubset"><path codeLine="53" d="M843.03,708.68 C869.47,726.49 905.13,748.7 939,764 C978.77,781.96 1011.9829,793.9493 1053.5529,806.5093 " fill="none" id="Node-to-ISubset" style="stroke:#000000;stroke-width:1.0;"/><polygon fill="none" points="1065.04,809.98,1060.4533,804.4156,1053.5529,806.5093,1058.1395,812.0737,1065.04,809.98" style="stroke:#000000;stroke-width:1.0;"/><text fill="#000000" font-family="monospace" font-size="13" lengthAdjust="spacing" textLength="392" x="940" y="760.0669">&#171;ensures&#160;whole&#160;model&#160;get&#160;synced&#160;properly&#160;through&#187;</text></g><!--link Loop to Node--><g id="link_Loop_Node"><path codeLine="84" d="M941.28,556.72 C907.53,585.98 869.294,619.1502 840.104,644.4502 " fill="none" id="Loop-to-Node" style="stroke:#000000;stroke-width:1.0;"/><polygon fill="#000000" points="835.57,648.38,844.9908,645.508,839.3483,645.1052,839.7511,639.4627,835.57,648.38" style="stroke:#000000;stroke-width:1.0;"/><text fill="#000000" font-family="monospace" font-size="13" lengthAdjust="spacing" textLength="160" x="899" y="606.0669">&#171;Manages&#160;train&#160;loop&#187;</text></g><!--link Loop to ISummaryWriter--><g id="link_Loop_ISummaryWriter"><path codeLine="85" d="M1142.25,510 C1206.17,510 1276.34,510 1346.92,510 " fill="none" id="Loop-to-ISummaryWriter" style="stroke:#000000;stroke-width:1.0;"/><polygon fill="#000000" points="1352.92,510,1343.92,506,1347.92,510,1343.92,514,1352.92,510" style="stroke:#000000;stroke-width:1.0;"/><text fill="#000000" font-family="monospace" font-size="13" lengthAdjust="spacing" textLength="168" x="1163.5" y="503.0669">&#171;Uses&#160;to&#160;log&#160;changes&#187;</text></g><!--link MovingAverageApplier to IApplier--><g id="link_MovingAverageApplier_IApplier"><path codeLine="91" d="M274.54,540 C255.2,570.38 234.666,602.6255 215.276,633.0855 " fill="none" id="MovingAverageApplier-to-IApplier" style="stroke:#000000;stroke-width:1.0;"/><polygon fill="none" points="205.61,648.27,220.3375,636.3075,210.2145,629.8635,205.61,648.27" style="stroke:#000000;stroke-width:1.0;"/></g><!--link InstantApplier to IApplier--><g id="link_InstantApplier_IApplier"><path codeLine="92" d="M95.3,532.09 C113.9,561.58 138.1392,600.0142 159.0992,633.2542 " fill="none" id="InstantApplier-to-IApplier" style="stroke:#000000;stroke-width:1.0;"/><polygon fill="none" points="168.7,648.48,164.1744,630.054,154.0239,636.4545,168.7,648.48" style="stroke:#000000;stroke-width:1.0;"/></g><!--link StandardNodeBuilder to Node--><g id="link_StandardNodeBuilder_Node"><path codeLine="108" d="M712.86,396.02 C713.32,444.05 717.79,508.68 735,563 C744.88,594.18 760.9789,621.0778 776.4189,643.2278 " fill="none" id="StandardNodeBuilder-to-Node" style="stroke:#000000;stroke-width:1.0;stroke-dasharray:7.0,7.0;"/><polygon fill="#000000" points="779.85,648.15,777.9848,638.4794,776.9908,644.0482,771.4219,643.0541,779.85,648.15" style="stroke:#000000;stroke-width:1.0;"/><text fill="#000000" font-family="monospace" font-size="13" lengthAdjust="spacing" textLength="88" x="736" y="514.5669">&#171;Builds&#160;it&#187;</text></g><!--link StandardNodeBuilder to Module--><g id="link_StandardNodeBuilder_Module"><path codeLine="109" d="M819.04,325 C884.83,325 963.98,325 1031.96,325 " fill="none" id="StandardNodeBuilder-to-Module" style="stroke:#000000;stroke-width:1.0;stroke-dasharray:7.0,7.0;"/><polygon fill="#000000" points="1037.96,325,1028.96,321,1032.96,325,1028.96,329,1037.96,325" style="stroke:#000000;stroke-width:1.0;"/><text fill="#000000" font-family="monospace" font-size="13" lengthAdjust="spacing" textLength="176" x="840.5" y="318.0669">&#171;Dynamically&#160;loads&#160;it&#187;</text></g><!--link RemoteImporter to Module--><g id="link_RemoteImporter_Module"><path codeLine="119" d="M1342,177.01 C1332.33,192.07 1319.31,210.16 1305,224 C1279.92,248.27 1253.3094,267.1445 1225.4194,284.3145 " fill="none" id="RemoteImporter-to-Module" style="stroke:#000000;stroke-width:1.0;stroke-dasharray:7.0,7.0;"/><polygon fill="#000000" points="1220.31,287.46,1230.0711,286.148,1224.5678,284.8387,1225.8771,279.3355,1220.31,287.46" style="stroke:#000000;stroke-width:1.0;"/><text fill="#000000" font-family="monospace" font-size="13" lengthAdjust="spacing" textLength="280" x="1321" y="220.0669">&#171;Produces&#160;from&#160;downloaded&#160;remotely&#187;</text></g><!--link LocalImporter to Module--><g id="link_LocalImporter_Module"><path codeLine="120" d="M1058.22,177.19 C1061.08,191.78 1065.71,209.4 1073,224 C1084.47,246.99 1097.9993,265.0107 1113.8093,282.8407 " fill="none" id="LocalImporter-to-Module" style="stroke:#000000;stroke-width:1.0;stroke-dasharray:7.0,7.0;"/><polygon fill="#000000" points="1117.79,287.33,1114.8118,277.9422,1114.4727,283.5889,1108.8261,283.2498,1117.79,287.33" style="stroke:#000000;stroke-width:1.0;"/><text fill="#000000" font-family="monospace" font-size="13" lengthAdjust="spacing" textLength="224" x="1074" y="220.0669">&#171;Produces&#160;from&#160;local&#160;assets&#187;</text></g><!--reverse link Importer to LocalImporter--><g id="link_Importer_LocalImporter"><path codeLine="122" d="M1054,74.14 C1054,91.37 1054,97.9 1054,116.97 " fill="none" id="Importer-backto-LocalImporter" style="stroke:#000000;stroke-width:1.0;stroke-dasharray:7.0,7.0;"/><polygon fill="none" points="1054,56.14,1048,74.14,1060,74.14,1054,56.14" style="stroke:#000000;stroke-width:1.0;"/></g><!--reverse link Importer to RemoteImporter--><g id="link_Importer_RemoteImporter"><path codeLine="123" d="M1117.2351,58.0145 C1164.6451,75.2645 1222.33,96.26 1279.25,116.98 " fill="none" id="Importer-backto-RemoteImporter" style="stroke:#000000;stroke-width:1.0;stroke-dasharray:7.0,7.0;"/><polygon fill="none" points="1100.32,51.86,1115.1836,63.6529,1119.2866,52.3761,1100.32,51.86" style="stroke:#000000;stroke-width:1.0;"/></g><!--reverse link Importer to StandardNodeBuilder--><g id="link_Importer_StandardNodeBuilder"><path codeLine="125" d="M1001.7895,41.1588 C922.1495,51.4488 770.22,75.83 735,117 C703.31,154.03 699.48,209.57 702.94,253.8 " fill="none" id="Importer-backto-StandardNodeBuilder" style="stroke:#000000;stroke-width:1.0;stroke-dasharray:7.0,7.0;"/><polygon fill="#000000" points="1007.74,40.39,998.3016,37.5762,1002.7812,41.0307,999.3268,45.5103,1007.74,40.39" style="stroke:#000000;stroke-width:1.0;"/><text fill="#000000" font-family="monospace" font-size="13" lengthAdjust="spacing" textLength="192" x="736" y="151.5669">&#171;May&#160;use&#160;it&#160;for&#160;loading&#187;</text></g><!--SRC=[XLPDJ-iu55tJN-7fgZpQF5ZC9kfKAeMHAW5256OMmC9DRfCCYHtP3b01_tsExQHDGkSD6rhxdljnxZtN_SsaL10hSvw9WNx9HCaLBzW5RNYLcp-bC3SSzzTII5toYEB181E6r0QVsVAScoXTHId5LKwAVGmO_avOk5nLQqs6JQS9cTciFhwXT-ClHiU3huwZshvni39KZev3Taz2ImKtLr9hLX3NbQATFvDc-b4WlP1fepAHF8TtL4X3EvYFZb1DWE7fa4rKbgHcCcF37qEsR2D2G1PIw4mRpUG6qEMyBFCCfGN1Z2tIIhnOcmTDcXd9E2wti1hqYR1XB69uDcngixXhBdW2Q2QquG9rRv1bgMG9oDfwG1rKMeTHpb7mZOm9d1oTH4QgKRXq2QosGAhnZkHnlmtsgaxRqTpckULXHxOxkwE8ibUAGpQFJ2R5r9tEa3IzajZtS4KYTbUZqFrp4JfkWvmsfirMPTdYccqg4QDPml2SQTYoIcHcN-nbbCexAOjkYaSdx7lnZwT1yEFvU-ZfvsJ27YvkMsS73EuNjojIhwJ-rsm13eNvjTc1j7jPsJ6RJc1gf-A0kUNeKjZ9razWo716xr7AHK9FOatcZKXObWJ6b0tF5V4NpNAk4l8KOvgCV1AwuBaTFIaisvMH1JTPXBFjq99_DCUH0my6kuyigCgWJzZ0JPqJogIUu5woLJt-K1VpYMeaw60Jstp0cW5icpkri0HJ9bemZ-l8AwOIKmO5YfrRBrdP7tL7tRjHF89W2rZcR0r1iZvgBq7oHBEtLEPKGsmTTY0fhiM8D4sgP9MarbSzdvxiHZJjjLCVoSt61K4_7i_iWDRdjgNDAhFp_07nepLVRAuNJaYT7NJiTTKNRcUn7KgYjslRGVtLJzqimvRRPhqr7bsFHg77OP7iDTvPraN1rVPlbHchWgbnrfjSlWNTArsj7NS_USnB781Df-Xv7AymcboD34z2d_-OlVAyeX1kE7PQ0lhB446FQy1biQOuXc47GpWLzdINSXVuKP19PVo50Gji5RwLLrAMhRrgXyNlqrRoTiUSFJidzrdqCdAVLeQh-l5oFgn2BBgzt36DcM0vhi6sjseUd6w4zakIowIj2P_cjNn5PNDiAZZUTwfE6xt0Fy_N7wV1xowhWv39v7EloC7IFJxcy6KT6NLY4wdOrdPUPNdSx6BtnRxCzgRkp6wVUexmW0gAp5yPnyKeAyUib6hNHYoRSoLv7442wAKx1WdNLeXNsNeKuXEK_VryMLWtzPCcr_yW1FEseB7Seil2oXdVcobpsB0HlslVVc_q5ebrUgZem2wcfiFk4A-tbT51OzTd07nU5dAnXKRz6aQFUOEkQVQYRYfhlNOOi_3XxcgCpOtKzPM4XrjkqdhkZzkZZAi37ZomZ-a533gvtYfyZ32F6oKB5iitOJF6KbGEvNxfTCFz2fzRopf_znEf0Kq_Ww2RTk-kc-H_z0KF5u8tHbv_MuQd1WIxdrKsTvIDqFy2]--></g></svg>