<?xml version="1.0" encoding="us-ascii" standalone="no"?><svg xmlns="http://www.w3.org/2000/svg" xmlns:xlink="http://www.w3.org/1999/xlink" contentStyleType="text/css" height="220px" preserveAspectRatio="none" style="width:267px;height:220px;background:#FFFFFF;" version="1.1" viewBox="0 0 267 220" width="267px" zoomAndPan="magnify"><defs/><g><!--class IApplier--><g id="elem_IApplier"><rect codeLine="6" fill="#FFFFFF" height="52.2969" id="IApplier" rx="2.5" ry="2.5" style="stroke:#000000;stroke-width:1.0;" width="248" x="12" y="12"/><ellipse cx="100.25" cy="26" fill="#FFFFFF" rx="9" ry="9" style="stroke:#000000;stroke-width:1.0;"/><path d="M96.75,21.0938 L96.75,22.4844 L99.625,22.4844 L99.625,29.6094 L96.75,29.6094 L96.75,31 L103.9688,31 L103.9688,29.6094 L101.0938,29.6094 L101.0938,22.4844 L103.9688,22.4844 L103.9688,21.0938 L96.75,21.0938 Z " fill="#000000"/><text fill="#000000" font-family="monospace" font-size="14" font-style="italic" lengthAdjust="spacing" textLength="64" x="117.75" y="30.8467">IApplier</text><line style="stroke:#000000;stroke-width:1.0;" x1="13" x2="259" y1="40" y2="40"/><ellipse cx="23" cy="53.6484" fill="#FFFFFF" rx="3" ry="3" style="stroke:#000000;stroke-width:1.0;"/><text fill="#000000" font-family="monospace" font-size="14" lengthAdjust="spacing" textLength="224" x="30" y="56.9951">Apply(:RemoteTensor,&#160;:Chunk)</text></g><!--class ConditionalEMAApplier--><g id="elem_ConditionalEMAApplier"><rect fill="#FFFFFF" height="28" id="ConditionalEMAApplier" rx="2.5" ry="2.5" style="stroke:#000000;stroke-width:1.0;" width="196" x="38" y="185"/><ellipse cx="51" cy="199" fill="#FFFFFF" rx="9" ry="9" style="stroke:#000000;stroke-width:1.0;"/><path d="M54.4063,200.9688 C53.6875,201.6406 52.3906,202.8125 50.6406,202.8125 C48.4219,202.8125 47.4531,200.875 47.4531,198.9219 C47.4531,196.5313 48.9375,195.2656 50.5781,195.2656 C52.5938,195.2656 52.8125,196.7813 52.9844,197.875 L54.4063,197.6875 C54.3125,197.1094 54.2344,196.5313 54.2344,195.5625 C54.2344,194.8906 54.2813,194.3438 54.3125,193.9219 L52.9063,193.9219 L52.7969,194.875 C52.2031,194.3438 51.5625,193.7969 50.3438,193.7969 C48.2969,193.7969 45.8906,195.625 45.8906,198.9375 C45.8906,201.875 47.6563,204.2656 50.6563,204.2656 C53.0938,204.2656 54.7969,202.6406 55.3906,202.0625 L54.4063,200.9688 Z " fill="#000000"/><text fill="#000000" font-family="monospace" font-size="14" lengthAdjust="spacing" textLength="168" x="63" y="203.8467">ConditionalEMAApplier</text></g><!--reverse link IApplier to ConditionalEMAApplier--><g id="link_IApplier_ConditionalEMAApplier"><path codeLine="10" d="M136,82.19 C136,116.34 136,158.11 136,184.65 " fill="none" id="IApplier-backto-ConditionalEMAApplier" style="stroke:#000000;stroke-width:1.0;stroke-dasharray:7.0,7.0;"/><polygon fill="none" points="136,64.19,130,82.19,142,82.19,136,64.19" style="stroke:#000000;stroke-width:1.0;"/></g><!--SRC=[FSj12i9038NXVKuHTueo1oXkIbLmKHVY1KQRqj2PP9X95qMzknN4j_lvU2iRA1Acu5cWZ2p9Pn_nGBsVWfrKxE8NRrMq9F-W3WRk22accp5Il5Ck02n6kLyOptLAWIdZ4t3P5hyzhwihHJMwaHJDEwoQOP9n0s-0_s7_SivXezAniOeFnxR-6S07]--></g></svg>