<?xml version="1.0" encoding="us-ascii" standalone="no"?><svg xmlns="http://www.w3.org/2000/svg" xmlns:xlink="http://www.w3.org/1999/xlink" contentStyleType="text/css" height="921px" preserveAspectRatio="none" style="width:1760px;height:921px;background:#FFFFFF;" version="1.1" viewBox="0 0 1760 921" width="1760px" zoomAndPan="magnify"><defs/><g><text fill="#000000" font-family="monospace" font-size="22" font-weight="bold" lengthAdjust="spacing" textLength="156" x="797.5" y="35.4209">Node&#160;Example</text><!--cluster Local Network--><g id="cluster_Local Network"><rect fill="#FFFFFF" height="680" rx="2.5" ry="2.5" style="stroke:#000000;stroke-width:1.0;" width="1237" x="517" y="235.6094"/><text fill="#000000" font-family="monospace" font-size="14" font-weight="bold" lengthAdjust="spacing" textLength="104" x="1083.5" y="250.6045">Local&#160;Network</text></g><!--cluster MN--><g id="cluster_MN"><rect fill="#FFFFFF" height="458" rx="2.5" ry="2.5" style="stroke:#000000;stroke-width:1.0;" width="716" x="549" y="286.6094"/><text fill="#000000" font-family="monospace" font-size="14" font-weight="bold" lengthAdjust="spacing" textLength="72" x="871" y="301.6045">Main&#160;Node</text></g><!--cluster Third-Party--><g id="cluster_Third-Party"><rect fill="#FFFFFF" height="71" rx="2.5" ry="2.5" style="stroke:#000000;stroke-width:1.0;" width="223" x="1002" y="337.6094"/><text fill="#000000" font-family="monospace" font-size="14" font-weight="bold" lengthAdjust="spacing" textLength="88" x="1069.5" y="352.6045">Third-Party</text></g><!--cluster Python-Inside--><g id="cluster_Python-Inside"><rect fill="#FFFFFF" height="239" rx="2.5" ry="2.5" style="stroke:#000000;stroke-width:1.0;" width="644" x="581" y="473.6094"/><text fill="#000000" font-family="monospace" font-size="14" font-weight="bold" lengthAdjust="spacing" textLength="104" x="851" y="488.6045">Python-Inside</text></g><!--cluster SN--><g id="cluster_SN"><rect fill="#FFFFFF" height="418" rx="2.5" ry="2.5" style="stroke:#000000;stroke-width:1.0;" width="417" x="1305" y="465.6094"/><text fill="#000000" font-family="monospace" font-size="14" font-weight="bold" lengthAdjust="spacing" textLength="80" x="1473.5" y="480.6045">Slave&#160;Node</text></g><!--cluster Python-Inside--><g id="cluster_Python-Inside"><rect fill="#FFFFFF" height="210" rx="2.5" ry="2.5" style="stroke:#000000;stroke-width:1.0;" width="345" x="1345" y="641.6094"/><text fill="#000000" font-family="monospace" font-size="14" font-weight="bold" lengthAdjust="spacing" textLength="104" x="1465.5" y="656.6045">Python-Inside</text></g><!--cluster External Network--><g id="cluster_External Network"><rect fill="#FFFFFF" height="550" rx="2.5" ry="2.5" style="stroke:#000000;stroke-width:1.0;" width="481" x="12" y="58.6094"/><text fill="#000000" font-family="monospace" font-size="14" font-weight="bold" lengthAdjust="spacing" textLength="128" x="188.5" y="73.6045">External&#160;Network</text></g><!--cluster RN--><g id="cluster_RN"><rect fill="#FFFFFF" height="467" rx="2.5" ry="2.5" style="stroke:#000000;stroke-width:1.0;" width="417" x="44" y="109.6094"/><text fill="#000000" font-family="monospace" font-size="14" font-weight="bold" lengthAdjust="spacing" textLength="88" x="208.5" y="124.6045">Remote&#160;Node</text></g><!--cluster Python-Inside--><g id="cluster_Python-Inside"><rect fill="#FFFFFF" height="207" rx="2.5" ry="2.5" style="stroke:#000000;stroke-width:1.0;" width="345" x="76" y="337.6094"/><text fill="#000000" font-family="monospace" font-size="14" font-weight="bold" lengthAdjust="spacing" textLength="104" x="196.5" y="352.6045">Python-Inside</text></g><g id="elem_Assets"><rect fill="#FFFFFF" height="20.2969" style="stroke:#000000;stroke-width:1.0;" width="62" x="921" y="372.6094"/><text fill="#000000" font-family="monospace" font-size="14" lengthAdjust="spacing" textLength="48" x="928" y="387.6045">Assets</text></g><g id="elem_TensorBoard"><rect fill="#FFFFFF" height="20.2969" style="stroke:#000000;stroke-width:1.0;" width="102" x="1107" y="372.6094"/><text fill="#000000" font-family="monospace" font-size="14" lengthAdjust="spacing" textLength="88" x="1114" y="387.6045">TensorBoard</text></g><g id="elem_NGINX"><rect fill="#FFFFFF" height="20.2969" style="stroke:#000000;stroke-width:1.0;" width="54" x="1018" y="372.6094"/><text fill="#000000" font-family="monospace" font-size="14" lengthAdjust="spacing" textLength="40" x="1025" y="387.6045">NGINX</text></g><g id="elem_LocalImporter"><rect fill="#FFFFFF" height="20.2969" style="stroke:#000000;stroke-width:1.0;" width="118" x="1091" y="508.6094"/><text fill="#000000" font-family="monospace" font-size="14" lengthAdjust="spacing" textLength="104" x="1098" y="523.6045">LocalImporter</text></g><g id="elem_Node"><rect fill="#FFFFFF" height="20.2969" style="stroke:#000000;stroke-width:1.0;" width="46" x="904" y="508.6094"/><text fill="#000000" font-family="monospace" font-size="14" lengthAdjust="spacing" textLength="32" x="911" y="523.6045">Node</text></g><g id="elem_EchoRoomChunkSyncer"><rect fill="#FFFFFF" height="20.2969" style="stroke:#000000;stroke-width:1.0;" width="166" x="597" y="508.6094"/><text fill="#000000" font-family="monospace" font-size="14" lengthAdjust="spacing" textLength="152" x="604" y="523.6045">EchoRoomChunkSyncer</text></g><g id="elem_TCPServerChunkSyncer"><rect fill="#FFFFFF" height="20.2969" style="stroke:#000000;stroke-width:1.0;" width="174" x="597" y="676.6094"/><text fill="#000000" font-family="monospace" font-size="14" lengthAdjust="spacing" textLength="160" x="604" y="691.6045">TCPServerChunkSyncer</text></g><g id="elem_UDPChunkSyncer"><rect fill="#FFFFFF" height="20.2969" style="stroke:#000000;stroke-width:1.0;" width="126" x="806" y="676.6094"/><text fill="#000000" font-family="monospace" font-size="14" lengthAdjust="spacing" textLength="112" x="813" y="691.6045">UDPChunkSyncer</text></g><g id="elem_AssetsCopy"><rect fill="#FFFFFF" height="20.2969" style="stroke:#000000;stroke-width:1.0;" width="62" x="1580" y="508.6094"/><text fill="#000000" font-family="monospace" font-size="14" lengthAdjust="spacing" textLength="48" x="1587" y="523.6045">Assets</text></g><g id="elem_RM1"><rect fill="#FFFFFF" height="20.2969" style="stroke:#000000;stroke-width:1.0;" width="126" x="1548" y="676.6094"/><text fill="#000000" font-family="monospace" font-size="14" lengthAdjust="spacing" textLength="112" x="1555" y="691.6045">RemoteImporter</text></g><g id="elem_SlaveNode"><rect fill="#FFFFFF" height="20.2969" style="stroke:#000000;stroke-width:1.0;" width="46" x="1361" y="676.6094"/><text fill="#000000" font-family="monospace" font-size="14" lengthAdjust="spacing" textLength="32" x="1368" y="691.6045">Node</text></g><g id="elem_SlaveUDP"><rect fill="#FFFFFF" height="20.2969" style="stroke:#000000;stroke-width:1.0;" width="126" x="1361" y="815.6094"/><text fill="#000000" font-family="monospace" font-size="14" lengthAdjust="spacing" textLength="112" x="1368" y="830.6045">UDPChunkSyncer</text></g><g id="elem_AssetsCopy2"><rect fill="#FFFFFF" height="20.2969" style="stroke:#000000;stroke-width:1.0;" width="62" x="311" y="152.6094"/><text fill="#000000" font-family="monospace" font-size="14" lengthAdjust="spacing" textLength="48" x="318" y="167.6045">Assets</text></g><g id="elem_RM2"><rect fill="#FFFFFF" height="20.2969" style="stroke:#000000;stroke-width:1.0;" width="126" x="279" y="372.6094"/><text fill="#000000" font-family="monospace" font-size="14" lengthAdjust="spacing" textLength="112" x="286" y="387.6045">RemoteImporter</text></g><g id="elem_RemoteNode"><rect fill="#FFFFFF" height="20.2969" style="stroke:#000000;stroke-width:1.0;" width="46" x="92" y="372.6094"/><text fill="#000000" font-family="monospace" font-size="14" lengthAdjust="spacing" textLength="32" x="99" y="387.6045">Node</text></g><g id="elem_TCPClientChunkSyncer"><rect fill="#FFFFFF" height="20.2969" style="stroke:#000000;stroke-width:1.0;" width="174" x="92" y="508.6094"/><text fill="#000000" font-family="monospace" font-size="14" lengthAdjust="spacing" textLength="160" x="99" y="523.6045">TCPClientChunkSyncer</text></g><!--link NGINX to TensorBoard--><!--link NGINX to Assets--><g id="link_NGINX_Assets"><path codeLine="15" d="M1017.98,382.6094 C1006.4,382.6094 1000.82,382.6094 989.24,382.6094 " fill="none" id="NGINX-to-Assets" style="stroke:#000000;stroke-width:1.0;stroke-dasharray:7.0,7.0;"/><polygon fill="#000000" points="983.24,382.6094,992.24,386.6094,988.24,382.6094,992.24,378.6094,983.24,382.6094" style="stroke:#000000;stroke-width:1.0;"/></g><!--link EchoRoomChunkSyncer to TCPServerChunkSyncer--><g id="link_EchoRoomChunkSyncer_TCPServerChunkSyncer"><path codeLine="25" d="M680.23,529.0094 C680.93,558.2294 683.08,647.2394 683.78,676.3094 " fill="none" id="EchoRoomChunkSyncer-TCPServerChunkSyncer" style="stroke:#000000;stroke-width:1.0;"/></g><!--link EchoRoomChunkSyncer to UDPChunkSyncer--><g id="link_EchoRoomChunkSyncer_UDPChunkSyncer"><path codeLine="26" d="M690.43,528.7694 C723.4,557.7294 825.12,647.0694 858.37,676.2694 " fill="none" id="EchoRoomChunkSyncer-UDPChunkSyncer" style="stroke:#000000;stroke-width:1.0;"/></g><!--link Node to LocalImporter--><g id="link_Node_LocalImporter"><path codeLine="28" d="M950.02,518.6094 C982.96,518.6094 1044.65,518.6094 1090.84,518.6094 " fill="none" id="Node-LocalImporter" style="stroke:#000000;stroke-width:1.0;stroke-dasharray:7.0,7.0;"/><text fill="#000000" font-family="monospace" font-size="13" lengthAdjust="spacing" textLength="104" x="968.5" y="511.6763">&#171;via&#160;Builder&#187;</text></g><!--link EchoRoomChunkSyncer to Node--><g id="link_EchoRoomChunkSyncer_Node"><path codeLine="29" d="M763.28,518.6094 C812.72,518.6094 871.81,518.6094 903.74,518.6094 " fill="none" id="EchoRoomChunkSyncer-Node" style="stroke:#000000;stroke-width:1.0;stroke-dasharray:7.0,7.0;"/><text fill="#000000" font-family="monospace" font-size="13" lengthAdjust="spacing" textLength="104" x="781.5" y="511.6763">&#171;via&#160;Builder&#187;</text></g><!--reverse link Assets to LocalImporter--><g id="link_Assets_LocalImporter"><path codeLine="33" d="M970.269,395.9722 C1006.249,420.3222 1100.28,483.9594 1136.5,508.4694 " fill="none" id="Assets-backto-LocalImporter" style="stroke:#000000;stroke-width:1.0;stroke-dasharray:7.0,7.0;"/><polygon fill="#000000" points="965.3,392.6094,970.5116,400.9663,969.4409,395.4118,974.9954,394.341,965.3,392.6094" style="stroke:#000000;stroke-width:1.0;"/></g><!--link SlaveNode to RM1--><g id="link_SlaveNode_RM1"><path codeLine="47" d="M1407.02,686.6094 C1439.7,686.6094 1500.8,686.6094 1547.64,686.6094 " fill="none" id="SlaveNode-RM1" style="stroke:#000000;stroke-width:1.0;stroke-dasharray:7.0,7.0;"/><text fill="#000000" font-family="monospace" font-size="13" lengthAdjust="spacing" textLength="104" x="1425.5" y="679.6763">&#171;via&#160;Builder&#187;</text></g><!--link SlaveNode to SlaveUDP--><g id="link_SlaveNode_SlaveUDP"><path codeLine="48" d="M1386.75,697.0294 C1394.09,722.1794 1414.09,790.6794 1421.34,815.4894 " fill="none" id="SlaveNode-SlaveUDP" style="stroke:#000000;stroke-width:1.0;stroke-dasharray:7.0,7.0;"/><text fill="#000000" font-family="monospace" font-size="13" lengthAdjust="spacing" textLength="104" x="1413" y="781.6763">&#171;via&#160;Builder&#187;</text></g><!--reverse link AssetsCopy to RM1--><g id="link_AssetsCopy_RM1"><path codeLine="52" d="M1611,535.0094 C1611,564.2294 1611,647.2394 1611,676.3094 " fill="none" id="AssetsCopy-backto-RM1" style="stroke:#000000;stroke-width:1.0;stroke-dasharray:7.0,7.0;"/><polygon fill="#000000" points="1611,529.0094,1607,538.0094,1611,534.0094,1615,538.0094,1611,529.0094" style="stroke:#000000;stroke-width:1.0;"/></g><!--link MN to SN--><g id="link_MN_SN"><path codeLine="55" d="M1265.0643,402.9061 C1265.1414,403.0906 1265.2189,403.276 1265.2968,403.4625 C1265.6085,404.2083 1265.9269,404.9699 1266.2514,405.7464 C1271.4441,418.1703 1278.2281,434.4025 1285.0113,450.6331 C1291.7944,466.8638 1298.5766,483.0928 1303.7655,495.5105 C1304.0898,496.2866 1304.4079,497.0478 1304.7193,497.7932 C1304.7972,497.9795 1304.8747,498.1649 1304.9517,498.3493 " fill="none" id="MN-SN" style="stroke:#000000;stroke-width:1.0;"/><text fill="#000000" font-family="monospace" font-size="13" lengthAdjust="spacing" textLength="72" x="1280" y="437.6763">&#171;Via&#160;UDP&#187;</text></g><!--link RemoteNode to RM2--><g id="link_RemoteNode_RM2"><path codeLine="71" d="M138.02,382.6094 C170.7,382.6094 231.8,382.6094 278.64,382.6094 " fill="none" id="RemoteNode-RM2" style="stroke:#000000;stroke-width:1.0;stroke-dasharray:7.0,7.0;"/><text fill="#000000" font-family="monospace" font-size="13" lengthAdjust="spacing" textLength="104" x="156.5" y="375.6763">&#171;via&#160;Builder&#187;</text></g><!--link RemoteNode to TCPClientChunkSyncer--><g id="link_RemoteNode_TCPClientChunkSyncer"><path codeLine="72" d="M119.4,392.8194 C131.09,417.2994 162.84,483.7794 174.57,508.3394 " fill="none" id="RemoteNode-TCPClientChunkSyncer" style="stroke:#000000;stroke-width:1.0;stroke-dasharray:7.0,7.0;"/><text fill="#000000" font-family="monospace" font-size="13" lengthAdjust="spacing" textLength="104" x="143" y="437.6763">&#171;via&#160;Builder&#187;</text></g><!--reverse link AssetsCopy2 to RM2--><g id="link_AssetsCopy2_RM2"><path codeLine="77" d="M342,178.6994 C342,214.1594 342,336.9594 342,372.4794 " fill="none" id="AssetsCopy2-backto-RM2" style="stroke:#000000;stroke-width:1.0;stroke-dasharray:7.0,7.0;"/><polygon fill="#000000" points="342,172.6994,338,181.6994,342,177.6994,346,181.6994,342,172.6994" style="stroke:#000000;stroke-width:1.0;"/></g><!--link RN to MN--><g id="link_RN_MN"><path codeLine="81" d="M461.8458,163.7112 C462.1847,163.7155 462.533,163.72 462.8904,163.7245 C468.6093,163.7979 476.6864,163.9096 486.7996,164.0699 C507.0258,164.3905 535.3963,164.9058 569.3345,165.6978 C637.2109,167.2819 727.3581,169.9731 819.1637,174.4294 C1002.775,183.3419 1193.02,199.3144 1225,227.6094 C1237.885,239.0094 1246.3663,254.125 1251.8308,270.437 C1253.1969,274.515 1254.3745,278.6678 1255.3852,282.856 C1255.6379,283.9031 1255.8801,284.9523 1256.1123,286.0032 " fill="none" id="RN-MN" style="stroke:#000000;stroke-width:1.0;"/><text fill="#000000" font-family="monospace" font-size="13" lengthAdjust="spacing" textLength="72" x="1207" y="215.6763">&#171;Via&#160;TCP&#187;</text></g><!--SRC=[jPHHRvim58NV_Iiytc4gZrCKQSsYAjA28kYgITCUNBWjNeqT6IShglhVTp4qOERGLjDuGlOvvzhtks2u4K0JLG1TFx9gBu2G3rpcue0hqSVQD0AY_Q4IX6Z83PFtA0- -gfm9ce3vhVH3G9y8nMUqlsLSsj20iffkarunKLsNN1VXZcdJ12D5-wZRNwYZro1hfIyLquLlExdQ9D-T3RiI_YXvKO3ykVJvdmcPn7okQp0rSJ9efFbzQQBbTDTtaLrZIYN3ZQnvUsNlLMpBDjLUQGFQUnbibszzdPSgLQfQbGVva3KoHxktLwjT1le8UYpqwBvzsPsDyjIYOVXwz1dVN2axSdsJtUPyeel5aJDwUU2Y0BrSUdm2xj3cAVktsGU-OqeNKUJXqkj6V3F1ZZ3CSzREytI8WYxJ2hhNbTet_pmsGGgLCl1oG1kVRY-yqk60xNdjF7brBfR1WUl4TPo2JgImzZoVaIKwnRw7IjisI-Rbchq2_o8uKbdIPjrW5iPYphFpNre_Oe-a-skQmkmQEj1Ctqup_ayuutcSdUSiJ_mwLuA3DCwtvYY7X178U1xas1DvYynJzM2DUwvnpnLLgQMwFL75EfZp1m00]--></g></svg>