<?xml version="1.0" encoding="us-ascii" standalone="no"?><svg xmlns="http://www.w3.org/2000/svg" xmlns:xlink="http://www.w3.org/1999/xlink" contentStyleType="text/css" height="1632px" preserveAspectRatio="none" style="width:1152px;height:1632px;background:#FFFFFF;" version="1.1" viewBox="0 0 1152 1632" width="1152px" zoomAndPan="magnify"><defs/><g><text fill="#000000" font-family="monospace" font-size="22" font-weight="bold" lengthAdjust="spacing" textLength="494" x="327.5" y="35.4209">Connection&#160;via&#160;Wi-Fi&#160;in&#160;Local&#160;networks</text><rect fill="#FFFFFF" height="181.5313" style="stroke:#000000;stroke-width:1.0;" width="10" x="32" y="215.9609"/><rect fill="#FFFFFF" height="181.5313" style="stroke:#000000;stroke-width:1.0;" width="10" x="758" y="215.9609"/><line style="stroke:#000000;stroke-width:1.0;" x1="37" x2="37" y1="99.9063" y2="1579.9297"/><line style="stroke:#000000;stroke-width:1.0;" x1="267" x2="267" y1="99.9063" y2="1579.9297"/><line style="stroke:#000000;stroke-width:1.0;" x1="483" x2="483" y1="99.9063" y2="1579.9297"/><line style="stroke:#000000;stroke-width:1.0;" x1="763" x2="763" y1="99.9063" y2="1579.9297"/><text fill="#000000" font-family="monospace" font-size="14" lengthAdjust="spacing" textLength="48" x="10" y="96.6045">Node_1</text><ellipse cx="37" cy="67.6094" fill="#FFFFFF" rx="12" ry="12" style="stroke:#000000;stroke-width:1.0;"/><line style="stroke:#000000;stroke-width:1.0;" x1="25" x2="49" y1="81.6094" y2="81.6094"/><text fill="#000000" font-family="monospace" font-size="14" lengthAdjust="spacing" textLength="48" x="10" y="1591.9248">Node_1</text><ellipse cx="37" cy="1611.2266" fill="#FFFFFF" rx="12" ry="12" style="stroke:#000000;stroke-width:1.0;"/><line style="stroke:#000000;stroke-width:1.0;" x1="25" x2="49" y1="1625.2266" y2="1625.2266"/><text fill="#000000" font-family="monospace" font-size="14" lengthAdjust="spacing" textLength="48" x="240" y="96.6045">Node_2</text><ellipse cx="267" cy="67.6094" fill="#FFFFFF" rx="12" ry="12" style="stroke:#000000;stroke-width:1.0;"/><line style="stroke:#000000;stroke-width:1.0;" x1="255" x2="279" y1="81.6094" y2="81.6094"/><text fill="#000000" font-family="monospace" font-size="14" lengthAdjust="spacing" textLength="48" x="240" y="1591.9248">Node_2</text><ellipse cx="267" cy="1611.2266" fill="#FFFFFF" rx="12" ry="12" style="stroke:#000000;stroke-width:1.0;"/><line style="stroke:#000000;stroke-width:1.0;" x1="255" x2="279" y1="1625.2266" y2="1625.2266"/><text fill="#000000" font-family="monospace" font-size="14" lengthAdjust="spacing" textLength="48" x="456" y="96.6045">Node_3</text><ellipse cx="483" cy="67.6094" fill="#FFFFFF" rx="12" ry="12" style="stroke:#000000;stroke-width:1.0;"/><line style="stroke:#000000;stroke-width:1.0;" x1="471" x2="495" y1="81.6094" y2="81.6094"/><text fill="#000000" font-family="monospace" font-size="14" lengthAdjust="spacing" textLength="48" x="456" y="1591.9248">Node_3</text><ellipse cx="483" cy="1611.2266" fill="#FFFFFF" rx="12" ry="12" style="stroke:#000000;stroke-width:1.0;"/><line style="stroke:#000000;stroke-width:1.0;" x1="471" x2="495" y1="1625.2266" y2="1625.2266"/><text fill="#000000" font-family="monospace" font-size="14" lengthAdjust="spacing" textLength="80" x="720" y="96.6045">MasterNode</text><ellipse cx="763" cy="67.6094" fill="#FFFFFF" rx="12" ry="12" style="stroke:#000000;stroke-width:1.0;"/><line style="stroke:#000000;stroke-width:1.0;" x1="751" x2="775" y1="81.6094" y2="81.6094"/><text fill="#000000" font-family="monospace" font-size="14" lengthAdjust="spacing" textLength="80" x="720" y="1591.9248">MasterNode</text><ellipse cx="763" cy="1611.2266" fill="#FFFFFF" rx="12" ry="12" style="stroke:#000000;stroke-width:1.0;"/><line style="stroke:#000000;stroke-width:1.0;" x1="751" x2="775" y1="1625.2266" y2="1625.2266"/><rect fill="#FFFFFF" height="181.5313" style="stroke:#000000;stroke-width:1.0;" width="10" x="32" y="215.9609"/><rect fill="#FFFFFF" height="181.5313" style="stroke:#000000;stroke-width:1.0;" width="10" x="758" y="215.9609"/><rect fill="#FFFFFF" height="3" style="stroke:#FFFFFF;stroke-width:1.0;" width="1140" x="5" y="132.8008"/><line style="stroke:#000000;stroke-width:0.5;" x1="5" x2="1145" y1="132.8008" y2="132.8008"/><line style="stroke:#000000;stroke-width:0.5;" x1="5" x2="1145" y1="135.8008" y2="135.8008"/><rect fill="#FFFFFF" height="27.7891" style="stroke:#000000;stroke-width:1.0;" width="214" x="468" y="119.9063"/><text fill="#000000" font-family="monospace" font-size="17" font-weight="bold" lengthAdjust="spacing" textLength="200" x="474" y="139.686">Reg-in&#160;to&#160;the&#160;system</text><polygon fill="#000000" points="751,174.8281,761,178.8281,751,182.8281,755,178.8281" style="stroke:#000000;stroke-width:1.0;"/><line style="stroke:#000000;stroke-width:1.0;" x1="37" x2="757" y1="178.8281" y2="178.8281"/><text fill="#000000" font-family="monospace" font-size="13" lengthAdjust="spacing" textLength="280" x="44" y="173.7622">Broadcast:&#160;I'm&#160;here,&#160;no&#160;last&#160;update</text><line style="stroke:#000000;stroke-width:1.0;" x1="763" x2="810" y1="202.9609" y2="202.9609"/><line style="stroke:#000000;stroke-width:1.0;" x1="810" x2="810" y1="202.9609" y2="215.9609"/><line style="stroke:#000000;stroke-width:1.0;" x1="769" x2="810" y1="215.9609" y2="215.9609"/><polygon fill="#000000" points="779,211.9609,769,215.9609,779,219.9609,775,215.9609" style="stroke:#000000;stroke-width:1.0;"/><text fill="#000000" font-family="monospace" font-size="13" lengthAdjust="spacing" textLength="128" x="775" y="197.895">Adds&#160;IP&#160;to&#160;table</text><polygon fill="#000000" points="53,246.0938,43,250.0938,53,254.0938,49,250.0938" style="stroke:#000000;stroke-width:1.0;"/><line style="stroke:#000000;stroke-width:1.0;" x1="47" x2="757" y1="250.0938" y2="250.0938"/><text fill="#000000" font-family="monospace" font-size="13" lengthAdjust="spacing" textLength="360" x="59" y="245.0278">[TCP&#160;CONNECT]&#160;Ya're&#160;new,&#160;Solider!&#160;Your&#160;stats?</text><polygon fill="#000000" points="746,275.2266,756,279.2266,746,283.2266,750,279.2266" style="stroke:#000000;stroke-width:1.0;"/><line style="stroke:#000000;stroke-width:1.0;" x1="42" x2="752" y1="279.2266" y2="279.2266"/><text fill="#000000" font-family="monospace" font-size="13" lengthAdjust="spacing" textLength="120" x="49" y="274.1606">No&#160;assets,&#160;Sir!</text><polygon fill="#000000" points="52.8238,333.9443,43,338.3594,53.1587,341.9372,48.9947,338.1082" style="stroke:#000000;stroke-width:1.0;"/><line style="stroke:#000000;stroke-width:1.0;" x1="757" x2="42" y1="308.3594" y2="338.3594"/><text fill="#000000" font-family="monospace" font-size="13" lengthAdjust="spacing" textLength="136" x="59" y="303.2935">Take&#160;your&#160;assets.</text><polygon fill="#000000" points="751,393.4922,761,397.4922,751,401.4922,755,397.4922" style="stroke:#000000;stroke-width:1.0;"/><line style="stroke:#000000;stroke-width:1.0;stroke-dasharray:2.0,2.0;" x1="37" x2="757" y1="397.4922" y2="397.4922"/><text fill="#000000" font-family="monospace" font-size="13" lengthAdjust="spacing" textLength="216" x="44" y="392.4263">ACK!&#160;[CONNECTION&#160;IS&#160;CLOSED]</text><line style="stroke:#000000;stroke-width:1.0;" x1="37" x2="79" y1="426.625" y2="426.625"/><line style="stroke:#000000;stroke-width:1.0;" x1="79" x2="79" y1="426.625" y2="439.625"/><line style="stroke:#000000;stroke-width:1.0;" x1="38" x2="79" y1="439.625" y2="439.625"/><polygon fill="#000000" points="48,435.625,38,439.625,48,443.625,44,439.625" style="stroke:#000000;stroke-width:1.0;"/><text fill="#000000" font-family="monospace" font-size="13" lengthAdjust="spacing" textLength="216" x="44" y="421.5591">Initializing&#160;code&#160;&amp;&#160;assets.</text><polygon fill="#000000" points="255,464.7578,265,468.7578,255,472.7578,259,468.7578" style="stroke:#000000;stroke-width:1.0;"/><line style="stroke:#000000;stroke-width:1.0;" x1="37" x2="261" y1="468.7578" y2="468.7578"/><text fill="#000000" font-family="monospace" font-size="13" lengthAdjust="spacing" textLength="152" x="44" y="463.6919">Broadcast:&#160;I'm&#160;here</text><line style="stroke:#000000;stroke-width:1.0;" x1="267" x2="309" y1="497.8906" y2="497.8906"/><line style="stroke:#000000;stroke-width:1.0;" x1="309" x2="309" y1="497.8906" y2="510.8906"/><line style="stroke:#000000;stroke-width:1.0;" x1="268" x2="309" y1="510.8906" y2="510.8906"/><polygon fill="#000000" points="278,506.8906,268,510.8906,278,514.8906,274,510.8906" style="stroke:#000000;stroke-width:1.0;"/><text fill="#000000" font-family="monospace" font-size="13" lengthAdjust="spacing" textLength="128" x="274" y="492.8247">Adds&#160;IP&#160;to&#160;table</text><polygon fill="#FF0000" points="471,536.0234,481,540.0234,471,544.0234,475,540.0234" style="stroke:#FF0000;stroke-width:1.0;"/><line style="stroke:#FF0000;stroke-width:1.0;stroke-dasharray:2.0,2.0;" x1="37" x2="477" y1="540.0234" y2="540.0234"/><text fill="#000000" font-family="monospace" font-size="13" lengthAdjust="spacing" textLength="304" x="44" y="534.9575">Broadcast:&#160;I'm&#160;here&#160;[DATAGRAM&#160;IS&#160;LOST]</text><line style="stroke:#000000;stroke-width:1.0;" x1="483" x2="525" y1="569.1563" y2="569.1563"/><line style="stroke:#000000;stroke-width:1.0;" x1="525" x2="525" y1="569.1563" y2="582.1563"/><line style="stroke:#000000;stroke-width:1.0;" x1="484" x2="525" y1="582.1563" y2="582.1563"/><polygon fill="#000000" points="494,578.1563,484,582.1563,494,586.1563,490,582.1563" style="stroke:#000000;stroke-width:1.0;"/><text fill="#000000" font-family="monospace" font-size="13" lengthAdjust="spacing" textLength="128" x="490" y="564.0903">Adds&#160;IP&#160;to&#160;table</text><polygon fill="#000000" points="48,607.2891,38,611.2891,48,615.2891,44,611.2891" style="stroke:#000000;stroke-width:1.0;"/><line style="stroke:#000000;stroke-width:1.0;" x1="42" x2="266" y1="611.2891" y2="611.2891"/><text fill="#000000" font-family="monospace" font-size="13" lengthAdjust="spacing" textLength="192" x="54" y="606.2231">Unicast:&#160;Chunk&#160;sync&#160;part</text><line style="stroke:#000000;stroke-width:1.0;" x1="37" x2="79" y1="640.4219" y2="640.4219"/><line style="stroke:#000000;stroke-width:1.0;" x1="79" x2="79" y1="640.4219" y2="653.4219"/><line style="stroke:#000000;stroke-width:1.0;" x1="38" x2="79" y1="653.4219" y2="653.4219"/><polygon fill="#000000" points="48,649.4219,38,653.4219,48,657.4219,44,653.4219" style="stroke:#000000;stroke-width:1.0;"/><text fill="#000000" font-family="monospace" font-size="13" lengthAdjust="spacing" textLength="128" x="44" y="635.356">Adds&#160;IP&#160;to&#160;table</text><line style="stroke:#000000;stroke-width:1.0;" x1="37" x2="79" y1="682.5547" y2="682.5547"/><line style="stroke:#000000;stroke-width:1.0;" x1="79" x2="79" y1="682.5547" y2="695.5547"/><line style="stroke:#000000;stroke-width:1.0;" x1="38" x2="79" y1="695.5547" y2="695.5547"/><polygon fill="#000000" points="48,691.5547,38,695.5547,48,699.5547,44,695.5547" style="stroke:#000000;stroke-width:1.0;"/><text fill="#000000" font-family="monospace" font-size="13" lengthAdjust="spacing" textLength="112" x="44" y="677.4888">EMA&#160;to&#160;weights</text><polygon fill="#000000" points="471,720.6875,481,724.6875,471,728.6875,475,724.6875" style="stroke:#000000;stroke-width:1.0;"/><line style="stroke:#000000;stroke-width:1.0;" x1="267" x2="477" y1="724.6875" y2="724.6875"/><text fill="#000000" font-family="monospace" font-size="13" lengthAdjust="spacing" textLength="152" x="274" y="719.6216">Unicast:&#160;Chunk&#160;part</text><polygon fill="#000000" points="278,749.8203,268,753.8203,278,757.8203,274,753.8203" style="stroke:#000000;stroke-width:1.0;"/><line style="stroke:#000000;stroke-width:1.0;" x1="272" x2="482" y1="753.8203" y2="753.8203"/><text fill="#000000" font-family="monospace" font-size="13" lengthAdjust="spacing" textLength="112" x="284" y="748.7544">EMA&#160;to&#160;weights</text><polygon fill="#000000" points="751,778.9531,761,782.9531,751,786.9531,755,782.9531" style="stroke:#000000;stroke-width:1.0;"/><line style="stroke:#000000;stroke-width:1.0;" x1="267" x2="757" y1="782.9531" y2="782.9531"/><text fill="#000000" font-family="monospace" font-size="13" lengthAdjust="spacing" textLength="152" x="274" y="777.8872">Unicast:&#160;Chunk&#160;part</text><line style="stroke:#000000;stroke-width:1.0;" x1="763" x2="805" y1="812.0859" y2="812.0859"/><line style="stroke:#000000;stroke-width:1.0;" x1="805" x2="805" y1="812.0859" y2="825.0859"/><line style="stroke:#000000;stroke-width:1.0;" x1="764" x2="805" y1="825.0859" y2="825.0859"/><polygon fill="#000000" points="774,821.0859,764,825.0859,774,829.0859,770,825.0859" style="stroke:#000000;stroke-width:1.0;"/><text fill="#000000" font-family="monospace" font-size="13" lengthAdjust="spacing" textLength="112" x="770" y="807.02">EMA&#160;to&#160;weights</text><polygon fill="#000000" points="278,850.2188,268,854.2188,278,858.2188,274,854.2188" style="stroke:#000000;stroke-width:1.0;"/><line style="stroke:#000000;stroke-width:1.0;" x1="272" x2="482" y1="854.2188" y2="854.2188"/><text fill="#000000" font-family="monospace" font-size="13" lengthAdjust="spacing" textLength="192" x="284" y="849.1528">Unicast:&#160;Chunk&#160;sync&#160;part</text><line style="stroke:#000000;stroke-width:1.0;" x1="267" x2="309" y1="883.3516" y2="883.3516"/><line style="stroke:#000000;stroke-width:1.0;" x1="309" x2="309" y1="883.3516" y2="896.3516"/><line style="stroke:#000000;stroke-width:1.0;" x1="268" x2="309" y1="896.3516" y2="896.3516"/><polygon fill="#000000" points="278,892.3516,268,896.3516,278,900.3516,274,896.3516" style="stroke:#000000;stroke-width:1.0;"/><text fill="#000000" font-family="monospace" font-size="13" lengthAdjust="spacing" textLength="112" x="274" y="878.2856">EMA&#160;to&#160;weights</text><polygon fill="#000000" points="751,921.4844,761,925.4844,751,929.4844,755,925.4844" style="stroke:#000000;stroke-width:1.0;"/><line style="stroke:#000000;stroke-width:1.0;" x1="483" x2="757" y1="925.4844" y2="925.4844"/><text fill="#000000" font-family="monospace" font-size="13" lengthAdjust="spacing" textLength="192" x="490" y="920.4185">Unicast:&#160;Chunk&#160;sync&#160;part</text><line style="stroke:#000000;stroke-width:1.0;" x1="763" x2="805" y1="954.6172" y2="954.6172"/><line style="stroke:#000000;stroke-width:1.0;" x1="805" x2="805" y1="954.6172" y2="967.6172"/><line style="stroke:#000000;stroke-width:1.0;" x1="764" x2="805" y1="967.6172" y2="967.6172"/><polygon fill="#000000" points="774,963.6172,764,967.6172,774,971.6172,770,967.6172" style="stroke:#000000;stroke-width:1.0;"/><text fill="#000000" font-family="monospace" font-size="13" lengthAdjust="spacing" textLength="112" x="770" y="949.5513">EMA&#160;to&#160;weights</text><polygon fill="#000000" points="48,992.75,38,996.75,48,1000.75,44,996.75" style="stroke:#000000;stroke-width:1.0;"/><line style="stroke:#000000;stroke-width:1.0;" x1="42" x2="762" y1="996.75" y2="996.75"/><text fill="#000000" font-family="monospace" font-size="13" lengthAdjust="spacing" textLength="192" x="54" y="991.6841">Unicast:&#160;Chunk&#160;sync&#160;part</text><line style="stroke:#000000;stroke-width:1.0;" x1="37" x2="79" y1="1025.8828" y2="1025.8828"/><line style="stroke:#000000;stroke-width:1.0;" x1="79" x2="79" y1="1025.8828" y2="1038.8828"/><line style="stroke:#000000;stroke-width:1.0;" x1="38" x2="79" y1="1038.8828" y2="1038.8828"/><polygon fill="#000000" points="48,1034.8828,38,1038.8828,48,1042.8828,44,1038.8828" style="stroke:#000000;stroke-width:1.0;"/><text fill="#000000" font-family="monospace" font-size="13" lengthAdjust="spacing" textLength="128" x="44" y="1020.8169">Adds&#160;IP&#160;to&#160;table</text><rect fill="#FFFFFF" height="3" style="stroke:#FFFFFF;stroke-width:1.0;" width="1140" x="5" y="1069.7773"/><line style="stroke:#000000;stroke-width:0.5;" x1="5" x2="1145" y1="1069.7773" y2="1069.7773"/><line style="stroke:#000000;stroke-width:0.5;" x1="5" x2="1145" y1="1072.7773" y2="1072.7773"/><rect fill="#FFFFFF" height="27.7891" style="stroke:#000000;stroke-width:1.0;" width="174" x="488" y="1056.8828"/><text fill="#000000" font-family="monospace" font-size="17" font-weight="bold" lengthAdjust="spacing" textLength="160" x="494" y="1076.6626">After&#160;30&#160;seconds</text><polygon fill="#000000" points="48,1111.8047,38,1115.8047,48,1119.8047,44,1115.8047" style="stroke:#000000;stroke-width:1.0;"/><line style="stroke:#000000;stroke-width:1.0;" x1="42" x2="482" y1="1115.8047" y2="1115.8047"/><text fill="#000000" font-family="monospace" font-size="13" lengthAdjust="spacing" textLength="152" x="54" y="1110.7388">Broadcast:&#160;I'm&#160;here</text><line style="stroke:#000000;stroke-width:1.0;" x1="37" x2="79" y1="1144.9375" y2="1144.9375"/><line style="stroke:#000000;stroke-width:1.0;" x1="79" x2="79" y1="1144.9375" y2="1157.9375"/><line style="stroke:#000000;stroke-width:1.0;" x1="38" x2="79" y1="1157.9375" y2="1157.9375"/><polygon fill="#000000" points="48,1153.9375,38,1157.9375,48,1161.9375,44,1157.9375" style="stroke:#000000;stroke-width:1.0;"/><text fill="#000000" font-family="monospace" font-size="13" lengthAdjust="spacing" textLength="128" x="44" y="1139.8716">Adds&#160;IP&#160;to&#160;table</text><polygon fill="#000000" points="278,1183.0703,268,1187.0703,278,1191.0703,274,1187.0703" style="stroke:#000000;stroke-width:1.0;"/><line style="stroke:#000000;stroke-width:1.0;" x1="272" x2="482" y1="1187.0703" y2="1187.0703"/><text fill="#000000" font-family="monospace" font-size="13" lengthAdjust="spacing" textLength="152" x="284" y="1182.0044">Broadcast:&#160;I'm&#160;here</text><line style="stroke:#000000;stroke-width:1.0;" x1="267" x2="309" y1="1231.3359" y2="1231.3359"/><line style="stroke:#000000;stroke-width:1.0;" x1="309" x2="309" y1="1231.3359" y2="1244.3359"/><line style="stroke:#000000;stroke-width:1.0;" x1="268" x2="309" y1="1244.3359" y2="1244.3359"/><polygon fill="#000000" points="278,1240.3359,268,1244.3359,278,1248.3359,274,1244.3359" style="stroke:#000000;stroke-width:1.0;"/><text fill="#000000" font-family="monospace" font-size="13" lengthAdjust="spacing" textLength="96" x="274" y="1211.1372">Updates&#160;last</text><text fill="#000000" font-family="monospace" font-size="13" lengthAdjust="spacing" textLength="176" x="274" y="1226.27">IP&#160;occurance&#160;TimeStamp</text><polygon fill="#000000" points="751,1284.6016,761,1288.6016,751,1292.6016,755,1288.6016" style="stroke:#000000;stroke-width:1.0;"/><line style="stroke:#000000;stroke-width:1.0;" x1="483" x2="757" y1="1288.6016" y2="1288.6016"/><text fill="#000000" font-family="monospace" font-size="13" lengthAdjust="spacing" textLength="256" x="490" y="1268.4028">Broadcast:&#160;I'm&#160;here&#160;last&#160;udpdate</text><text fill="#000000" font-family="monospace" font-size="13" lengthAdjust="spacing" textLength="160" x="490" y="1283.5356">I've&#160;received&#160;at&#160;XXX</text><line style="stroke:#000000;stroke-width:1.0;" x1="763" x2="805" y1="1332.8672" y2="1332.8672"/><line style="stroke:#000000;stroke-width:1.0;" x1="805" x2="805" y1="1332.8672" y2="1345.8672"/><line style="stroke:#000000;stroke-width:1.0;" x1="764" x2="805" y1="1345.8672" y2="1345.8672"/><polygon fill="#000000" points="774,1341.8672,764,1345.8672,774,1349.8672,770,1345.8672" style="stroke:#000000;stroke-width:1.0;"/><text fill="#000000" font-family="monospace" font-size="13" lengthAdjust="spacing" textLength="96" x="770" y="1312.6685">Updates&#160;last</text><text fill="#000000" font-family="monospace" font-size="13" lengthAdjust="spacing" textLength="176" x="770" y="1327.8013">IP&#160;occurance&#160;TimeStamp</text><line style="stroke:#000000;stroke-width:1.0;" x1="763" x2="805" y1="1390.1328" y2="1390.1328"/><line style="stroke:#000000;stroke-width:1.0;" x1="805" x2="805" y1="1390.1328" y2="1403.1328"/><line style="stroke:#000000;stroke-width:1.0;" x1="764" x2="805" y1="1403.1328" y2="1403.1328"/><polygon fill="#000000" points="774,1399.1328,764,1403.1328,774,1407.1328,770,1403.1328" style="stroke:#000000;stroke-width:1.0;"/><text fill="#000000" font-family="monospace" font-size="13" lengthAdjust="spacing" textLength="368" x="770" y="1369.9341">Checks&#160;how&#160;frequently&#160;this&#160;IP&#160;receives&#160;updates</text><text fill="#000000" font-family="monospace" font-size="13" lengthAdjust="spacing" textLength="352" x="770" y="1385.0669">&amp;&#160;seems&#160;this&#160;frequency&#160;is&#160;OK&#160;[NOTHING&#160;TO&#160;DO]</text><path d="M748,1416.1328 L748,1441.1328 L777,1441.1328 L777,1426.1328 L767,1416.1328 L748,1416.1328 " fill="#FFFFFF" style="stroke:#000000;stroke-width:1.0;"/><path d="M767,1416.1328 L767,1426.1328 L777,1426.1328 L767,1416.1328 " fill="#FFFFFF" style="stroke:#000000;stroke-width:1.0;"/><text fill="#000000" font-family="monospace" font-size="13" lengthAdjust="spacing" textLength="8" x="754" y="1433.1997">H</text><path d="M152,1451.2656 L152,1521.2656 L381,1521.2656 L381,1461.2656 L371,1451.2656 L152,1451.2656 " fill="#FFFFFF" style="stroke:#000000;stroke-width:1.0;"/><path d="M371,1451.2656 L371,1461.2656 L381,1461.2656 L371,1451.2656 " fill="#FFFFFF" style="stroke:#000000;stroke-width:1.0;"/><text fill="#000000" font-family="monospace" font-size="13" lengthAdjust="spacing" textLength="8" x="158" y="1468.3325">&#160;</text><text fill="#000000" font-family="monospace" font-size="13" lengthAdjust="spacing" textLength="208" x="158" y="1483.4653">This&#160;node&#160;seems&#160;to&#160;be&#160;lost</text><text fill="#000000" font-family="monospace" font-size="13" lengthAdjust="spacing" textLength="112" x="158" y="1498.5981">for&#160;a&#160;while...</text><text fill="#000000" font-family="monospace" font-size="13" lengthAdjust="spacing" textLength="8" x="158" y="1513.731">&#160;</text><rect fill="#FFFFFF" height="3" style="stroke:#FFFFFF;stroke-width:1.0;" width="1140" x="5" y="1547.3633"/><line style="stroke:#000000;stroke-width:0.5;" x1="5" x2="1145" y1="1547.3633" y2="1547.3633"/><line style="stroke:#000000;stroke-width:0.5;" x1="5" x2="1145" y1="1550.3633" y2="1550.3633"/><rect fill="#FFFFFF" height="23.1328" style="stroke:#000000;stroke-width:1.0;" width="46" x="552" y="1536.7969"/><text fill="#000000" font-family="monospace" font-size="13" font-weight="bold" lengthAdjust="spacing" textLength="24" x="558" y="1552.8638">...</text><!--SRC=[fLLjJzj03Fv-lyBL9DWaw5Zp3QcRki2W0X94WmOgrNJa33arlUjobrRThv_pGfgs2J3jettsuySlPtUa2kDK87G_6xkAiJjFPp5ZLjeOmTLAOMYbLh2G77xAmnyIf89B7V8O5DgbJgQ6CLHalm9F2_prPKFgRKZEYtJ5ZSKaqp7Mx_VX1fyF2TTgi162MT7h3FfznWf8EFnQSpc6xudc8YJ5CGptPn1XWWUWDCIaWdGkk4Msjj_s7WXXO7YTH-EFCJ9EAIx8voM1IgxJtCGhB8zX7BZNuFgUT-e64xZd-mbINPO7CDAn59Xqu5wd2HZBhVdMaesdWHk3rf2NJ3gRaJuwHv-gQ06V8gmomCAXMo5kf-XUT61SyXhw7Wn7u5xwezEJ2MC2jnEkQUefh-c-41WgQIMFvH-fdY7C6EvLL7RiUusDAgnwTQkTXbH8umy9YWF1JOHYKZeuZR0mFXa4WxERmLMMAwLAxIXnd2gMqnghLy_oLia2t8rIDQLnL27CUM8R2h83jsjoUZN8dfSedoDhTk8vE_7MePnwbTfnwfrlmch_2jkO3M5VBqRlJORE6mpNWE-dsVmN_wTj-HOQF14gE4TWCDIABAeDvDITMuVw7PFX_FllkCttcScNsuCYH1s6QS9LY1386OuidyrRIjtqJueTAN9GWjjV82GOeboW06xXxkwElTA9Tv5fTtSZ3AS68hs4fmH_ftGEuXNjV9cNgkHXoXLk7jGUjG9dfh0eFS8LaE1VmDZpW_EXTmQ13oV-XEtH2Q0DfXVKnDeQEwUZ8_8djdulZnCBCc2LCIq3QNYa6cbZsPEcDGlBID9Hx7RP6eLc1KYJJSTV]--></g></svg>