<?xml version="1.0" encoding="us-ascii" standalone="no"?><svg xmlns="http://www.w3.org/2000/svg" xmlns:xlink="http://www.w3.org/1999/xlink" contentStyleType="text/css" height="559px" preserveAspectRatio="none" style="width:1094px;height:559px;background:#FFFFFF;" version="1.1" viewBox="0 0 1094 559" width="1094px" zoomAndPan="magnify"><defs/><g><!--entity Name--><g id="elem_Name"><rect fill="#FFFFFF" height="36.2969" rx="2.5" ry="2.5" style="stroke:#000000;stroke-width:1.0;" width="164" x="418" y="204"/><text fill="#000000" font-family="monospace" font-size="14" lengthAdjust="spacing" textLength="144" x="428" y="226.9951">Tensor&#160;ID&#160;[uint32]</text></g><!--entity CRC--><g id="elem_CRC"><rect fill="#FFFFFF" height="36.2969" rx="2.5" ry="2.5" style="stroke:#000000;stroke-width:1.0;" width="132" x="12" y="108"/><text fill="#000000" font-family="monospace" font-size="14" lengthAdjust="spacing" textLength="112" x="22" y="130.9951">CRC32&#160;[uint32]</text></g><!--entity Dim--><g id="elem_Dim"><rect fill="#FFFFFF" height="36.2969" rx="2.5" ry="2.5" style="stroke:#000000;stroke-width:1.0;" width="188" x="406" y="300"/><text fill="#000000" font-family="monospace" font-size="14" lengthAdjust="spacing" textLength="168" x="416" y="322.9951">Dimensionality&#160;[byte]</text></g><!--entity GUID--><g id="elem_GUID"><rect fill="#FFFFFF" height="36.2969" rx="2.5" ry="2.5" style="stroke:#000000;stroke-width:1.0;" width="196" x="187" y="204"/><text fill="#000000" font-family="monospace" font-size="14" lengthAdjust="spacing" textLength="176" x="197" y="226.9951">Model&#160;GUID&#160;[16&#160;x&#160;byte]</text></g><!--entity SessionGUID--><g id="elem_SessionGUID"><rect fill="#FFFFFF" height="36.2969" rx="2.5" ry="2.5" style="stroke:#000000;stroke-width:1.0;" width="212" x="179" y="108"/><text fill="#000000" font-family="monospace" font-size="14" lengthAdjust="spacing" textLength="192" x="189" y="130.9951">Session&#160;GUID&#160;[16&#160;x&#160;byte]</text></g><g id="elem_D"><path d="M485.5,401.5 L485.5,426.6328 A0,0 0 0 0 485.5,426.6328 L514.5,426.6328 A0,0 0 0 0 514.5,426.6328 L514.5,411.5 L504.5,401.5 L504,401.5 L500,336.24 L496,401.5 L485.5,401.5 A0,0 0 0 0 485.5,401.5 " fill="#FFFFFF" style="stroke:#000000;stroke-width:1.0;"/><path d="M504.5,401.5 L504.5,411.5 L514.5,411.5 L504.5,401.5 " fill="#FFFFFF" style="stroke:#000000;stroke-width:1.0;"/><text fill="#000000" font-family="monospace" font-size="13" lengthAdjust="spacing" textLength="8" x="491.5" y="418.5669">D</text></g><g id="elem_L"><path d="M700.5,508.5 L700.5,533.6328 A0,0 0 0 0 700.5,533.6328 L729.5,533.6328 A0,0 0 0 0 729.5,533.6328 L729.5,518.5 L719.5,508.5 L719,508.5 L715,432.34 L711,508.5 L700.5,508.5 A0,0 0 0 0 700.5,508.5 " fill="#FFFFFF" style="stroke:#000000;stroke-width:1.0;"/><path d="M719.5,508.5 L719.5,518.5 L729.5,518.5 L719.5,508.5 " fill="#FFFFFF" style="stroke:#000000;stroke-width:1.0;"/><text fill="#000000" font-family="monospace" font-size="13" lengthAdjust="spacing" textLength="8" x="706.5" y="525.5669">L</text></g><!--entity Offset--><g id="elem_Offset"><rect fill="#FFFFFF" height="36.2969" rx="2.5" ry="2.5" style="stroke:#000000;stroke-width:1.0;" width="172" x="629" y="300"/><text fill="#000000" font-family="monospace" font-size="14" lengthAdjust="spacing" textLength="152" x="639" y="322.9951">Offsets&#160;[D&#160;x&#160;int32]</text></g><!--entity Lengths--><g id="elem_Lengths"><rect fill="#FFFFFF" height="36.2969" rx="2.5" ry="2.5" style="stroke:#000000;stroke-width:1.0;" width="156" x="637" y="396"/><text fill="#000000" font-family="monospace" font-size="14" lengthAdjust="spacing" textLength="136" x="647" y="418.9951">Shape&#160;[D&#160;x&#160;int32]</text></g><!--entity Buffer--><g id="elem_Buffer"><rect fill="#FFFFFF" height="36.2969" rx="2.5" ry="2.5" style="stroke:#000000;stroke-width:1.0;" width="260" x="828" y="396"/><text fill="#000000" font-family="monospace" font-size="14" lengthAdjust="spacing" textLength="240" x="838" y="418.9951">Buffer&#160;[(&#1055;_j^D&#160;L_j)&#160;x&#160;float16]</text></g><!--entity EndOfPackage--><g id="elem_EndOfPackage"><ellipse cx="958" cy="521" fill="#FFFFFF" rx="8" ry="8" style="stroke:#000000;stroke-width:1.0;"/><text fill="#000000" font-family="monospace" font-size="14" lengthAdjust="spacing" textLength="96" x="910" y="550.9951">EndOfPackage</text></g><!--entity StartOfPackage--><g id="elem_StartOfPackage"><ellipse cx="78" cy="19" fill="#FFFFFF" rx="8" ry="8" style="stroke:#000000;stroke-width:1.0;"/><text fill="#000000" font-family="monospace" font-size="14" lengthAdjust="spacing" textLength="112" x="22" y="48.9951">StartOfPackage</text></g><!--link CRC to SessionGUID--><g id="link_CRC_SessionGUID"><path d="M144.3,126 C155.85,126 161.39,126 172.93,126 " fill="none" id="CRC-to-SessionGUID" style="stroke:#000000;stroke-width:1.0;"/><polygon fill="#000000" points="178.93,126,169.93,122,173.93,126,169.93,130,178.93,126" style="stroke:#000000;stroke-width:1.0;"/></g><!--link SessionGUID to GUID--><g id="link_SessionGUID_GUID"><path d="M285,144.24 C285,161.2 285,180.95 285,197.87 " fill="none" id="SessionGUID-to-GUID" style="stroke:#000000;stroke-width:1.0;"/><polygon fill="#000000" points="285,203.87,289,194.87,285,198.87,281,194.87,285,203.87" style="stroke:#000000;stroke-width:1.0;"/></g><!--link GUID to Name--><g id="link_GUID_Name"><path d="M383.26,222 C394.81,222 400.37,222 411.92,222 " fill="none" id="GUID-to-Name" style="stroke:#000000;stroke-width:1.0;"/><polygon fill="#000000" points="417.92,222,408.92,218,412.92,222,408.92,226,417.92,222" style="stroke:#000000;stroke-width:1.0;"/></g><!--link Name to Dim--><g id="link_Name_Dim"><path d="M500,240.24 C500,257.2 500,276.95 500,293.87 " fill="none" id="Name-to-Dim" style="stroke:#000000;stroke-width:1.0;"/><polygon fill="#000000" points="500,299.87,504,290.87,500,294.87,496,290.87,500,299.87" style="stroke:#000000;stroke-width:1.0;"/></g><!--link Dim to Offset--><g id="link_Dim_Offset"><path d="M594.06,318 C605.56,318 611.05,318 622.55,318 " fill="none" id="Dim-to-Offset" style="stroke:#000000;stroke-width:1.0;"/><polygon fill="#000000" points="628.55,318,619.55,314,623.55,318,619.55,322,628.55,318" style="stroke:#000000;stroke-width:1.0;"/></g><!--link Offset to Lengths--><g id="link_Offset_Lengths"><path d="M715,336.24 C715,353.2 715,372.95 715,389.87 " fill="none" id="Offset-to-Lengths" style="stroke:#000000;stroke-width:1.0;"/><polygon fill="#000000" points="715,395.87,719,386.87,715,390.87,711,386.87,715,395.87" style="stroke:#000000;stroke-width:1.0;"/></g><!--link Lengths to Buffer--><g id="link_Lengths_Buffer"><path d="M793.31,414 C804.78,414 810.26,414 821.73,414 " fill="none" id="Lengths-to-Buffer" style="stroke:#000000;stroke-width:1.0;"/><polygon fill="#000000" points="827.73,414,818.73,410,822.73,414,818.73,418,827.73,414" style="stroke:#000000;stroke-width:1.0;"/></g><!--link Buffer to EndOfPackage--><g id="link_Buffer_EndOfPackage"><path d="M958,432.34 C958,455.29 958,488.83 958,505.83 " fill="none" id="Buffer-to-EndOfPackage" style="stroke:#000000;stroke-width:1.0;"/><polygon fill="#000000" points="958,511.83,962,502.83,958,506.83,954,502.83,958,511.83" style="stroke:#000000;stroke-width:1.0;"/></g><!--link StartOfPackage to CRC--><g id="link_StartOfPackage_CRC"><path d="M78,28.24 C78,45.35 78,79.06 78,101.93 " fill="none" id="StartOfPackage-to-CRC" style="stroke:#000000;stroke-width:1.0;"/><polygon fill="#000000" points="78,107.93,82,98.93,78,102.93,74,98.93,78,107.93" style="stroke:#000000;stroke-width:1.0;"/></g><!--SRC=[RP5DJiCm48NtFiNG5InQr5RgCWkQ2Y45YYYi8bgvoJXDSPmgdaZaD5o98-6V51nWOtl6NzvxuroKAfDjZZ2vrjH9d9pQIZBMO4PS5H9Xz8nArmtSnP2sfQBvx7K4NCC3hp34ba_B-Mo8c1P0oCHbPSJAMd5PKWVflYFqgBa9mViwHmctBzPqke1t-25jCqGtgAtY_t1_wRvHDTa8tgwl4bSbpDZ3U1oPVYYz5a8ZQKXZ8nhCvVk340T-mZzSWggWWsRzxXoIWSDDAmGsa5v-VkoEsnYItV7AQ0XPSvekl8fd6BElQGJ2aOAp4tS7vbQBkbza5_33cJTsWqRd2VpcS_tE6fsD-umMMgbyBHvvziOBP6n3lA7lsW4c8_i2]--></g></svg>