<?xml version="1.0" encoding="us-ascii" standalone="no"?><svg xmlns="http://www.w3.org/2000/svg" xmlns:xlink="http://www.w3.org/1999/xlink" contentStyleType="text/css" height="632px" preserveAspectRatio="none" style="width:1010px;height:632px;background:#FFFFFF;" version="1.1" viewBox="0 0 1010 632" width="1010px" zoomAndPan="magnify"><defs/><g><!--class IChunkSyncer--><g id="elem_IChunkSyncer"><rect codeLine="4" fill="#FFFFFF" height="28" id="IChunkSyncer" rx="2.5" ry="2.5" style="stroke:#000000;stroke-width:1.0;" width="124" x="126" y="24"/><ellipse cx="139" cy="38" fill="#FFFFFF" rx="9" ry="9" style="stroke:#000000;stroke-width:1.0;"/><path d="M135.5,33.0938 L135.5,34.4844 L138.375,34.4844 L138.375,41.6094 L135.5,41.6094 L135.5,43 L142.7188,43 L142.7188,41.6094 L139.8438,41.6094 L139.8438,34.4844 L142.7188,34.4844 L142.7188,33.0938 L135.5,33.0938 Z " fill="#000000"/><text fill="#000000" font-family="monospace" font-size="14" font-style="italic" lengthAdjust="spacing" textLength="96" x="151" y="42.8467">IChunkSyncer</text></g><!--class UDPChunkSyncer--><g id="elem_UDPChunkSyncer"><rect codeLine="24" fill="#FFFFFF" height="52.2969" id="UDPChunkSyncer" rx="2.5" ry="2.5" style="stroke:#000000;stroke-width:1.0;" width="352" x="12" y="125"/><ellipse cx="128.25" cy="139" fill="#FFFFFF" rx="9" ry="9" style="stroke:#000000;stroke-width:1.0;"/><path d="M131.6563,140.9688 C130.9375,141.6406 129.6406,142.8125 127.8906,142.8125 C125.6719,142.8125 124.7031,140.875 124.7031,138.9219 C124.7031,136.5313 126.1875,135.2656 127.8281,135.2656 C129.8438,135.2656 130.0625,136.7813 130.2344,137.875 L131.6563,137.6875 C131.5625,137.1094 131.4844,136.5313 131.4844,135.5625 C131.4844,134.8906 131.5313,134.3438 131.5625,133.9219 L130.1563,133.9219 L130.0469,134.875 C129.4531,134.3438 128.8125,133.7969 127.5938,133.7969 C125.5469,133.7969 123.1406,135.625 123.1406,138.9375 C123.1406,141.875 124.9063,144.2656 127.9063,144.2656 C130.3438,144.2656 132.0469,142.6406 132.6406,142.0625 L131.6563,140.9688 Z " fill="#000000"/><text fill="#000000" font-family="monospace" font-size="14" lengthAdjust="spacing" textLength="112" x="145.75" y="143.8467">UDPChunkSyncer</text><line style="stroke:#000000;stroke-width:1.0;" x1="13" x2="363" y1="153" y2="153"/><ellipse cx="23" cy="166.6484" fill="#FFFFFF" rx="3" ry="3" style="stroke:#000000;stroke-width:1.0;"/><text fill="#000000" font-family="monospace" font-size="14" lengthAdjust="spacing" textLength="328" x="30" y="169.9951">ctor(:IUDPRadar,&#160;:ISyncSelectionStrategy)</text></g><!--class IUDPRadar--><g id="elem_IUDPRadar"><rect codeLine="8" fill="#FFFFFF" height="141.7813" id="IUDPRadar" rx="2.5" ry="2.5" style="stroke:#000000;stroke-width:1.0;" width="336" x="239" y="254"/><ellipse cx="367.25" cy="268" fill="#FFFFFF" rx="9" ry="9" style="stroke:#000000;stroke-width:1.0;"/><path d="M363.75,263.0938 L363.75,264.4844 L366.625,264.4844 L366.625,271.6094 L363.75,271.6094 L363.75,273 L370.9688,273 L370.9688,271.6094 L368.0938,271.6094 L368.0938,264.4844 L370.9688,264.4844 L370.9688,263.0938 L363.75,263.0938 Z " fill="#000000"/><text fill="#000000" font-family="monospace" font-size="14" font-style="italic" lengthAdjust="spacing" textLength="72" x="384.75" y="272.8467">IUDPRadar</text><line style="stroke:#000000;stroke-width:1.0;" x1="240" x2="574" y1="282" y2="282"/><rect fill="none" height="6" style="stroke:#000000;stroke-width:1.0;" width="6" x="247" y="292.6484"/><text fill="#000000" font-family="monospace" font-size="14" lengthAdjust="spacing" textLength="312" x="257" y="298.9951">m_knownNeighbors:&#160;list&lt;(IP,&#160;TimeStamp)&gt;</text><ellipse cx="250" cy="311.9453" fill="none" rx="3" ry="3" style="stroke:#000000;stroke-width:1.0;"/><text fill="#000000" font-family="monospace" font-size="14" lengthAdjust="spacing" textLength="80" x="257" y="315.292">count:&#160;int</text><line style="stroke:#000000;stroke-width:1.0;" x1="240" x2="574" y1="322.5938" y2="322.5938"/><ellipse cx="250" cy="336.2422" fill="#FFFFFF" rx="3" ry="3" style="stroke:#000000;stroke-width:1.0;"/><text fill="#000000" font-family="monospace" font-size="14" lengthAdjust="spacing" textLength="160" x="257" y="339.5889">this[:int]:&#160;IP&#160;&#171;get&#187;</text><ellipse cx="250" cy="352.5391" fill="#FFFFFF" rx="3" ry="3" style="stroke:#000000;stroke-width:1.0;"/><text fill="#000000" font-family="monospace" font-size="14" lengthAdjust="spacing" textLength="240" x="257" y="355.8857">ctor(ipRememberTime:&#160;TimeSpan)</text><ellipse cx="250" cy="368.8359" fill="#FFFFFF" rx="3" ry="3" style="stroke:#000000;stroke-width:1.0;"/><text fill="#000000" font-family="monospace" font-size="14" lengthAdjust="spacing" textLength="216" x="257" y="372.1826">Start():&#160;CallableCancelator</text><ellipse cx="250" cy="385.1328" fill="#FFFFFF" rx="3" ry="3" style="stroke:#000000;stroke-width:1.0;"/><text fill="#000000" font-family="monospace" font-size="14" lengthAdjust="spacing" textLength="176" x="257" y="388.4795">NotifyNewIncoming(:IP)</text></g><!--class Glist--><g id="elem_Glist"><rect codeLine="18" fill="#FFFFFF" height="28" id="Glist" rx="2.5" ry="2.5" style="stroke:#000000;stroke-width:1.0;" width="71" x="704.5" y="311"/><ellipse cx="717.5" cy="325" fill="#FFFFFF" rx="9" ry="9" style="stroke:#000000;stroke-width:1.0;"/><path d="M714,320.0938 L714,321.4844 L716.875,321.4844 L716.875,328.6094 L714,328.6094 L714,330 L721.2188,330 L721.2188,328.6094 L718.3438,328.6094 L718.3438,321.4844 L721.2188,321.4844 L721.2188,320.0938 L714,320.0938 Z " fill="#000000"/><text fill="#000000" font-family="monospace" font-size="14" font-style="italic" lengthAdjust="spacing" textLength="32" x="729.5" y="329.8467">list</text><rect fill="#FFFFFF" height="16.584" style="stroke:#000000;stroke-width:1.0;stroke-dasharray:2.0,2.0;" width="9" x="769.5" y="308"/><text fill="#000000" font-family="Verdana" font-size="12" font-style="italic" lengthAdjust="spacing" textLength="7" x="770.5" y="321.0645">T</text></g><!--class ISyncSelectionStrategy--><g id="elem_ISyncSelectionStrategy"><rect codeLine="37" fill="#FFFFFF" height="52.2969" id="ISyncSelectionStrategy" rx="2.5" ry="2.5" style="stroke:#000000;stroke-width:1.0;" width="224" x="665" y="125"/><ellipse cx="682.05" cy="139" fill="#FFFFFF" rx="9" ry="9" style="stroke:#000000;stroke-width:1.0;"/><path d="M678.55,134.0938 L678.55,135.4844 L681.425,135.4844 L681.425,142.6094 L678.55,142.6094 L678.55,144 L685.7688,144 L685.7688,142.6094 L682.8938,142.6094 L682.8938,135.4844 L685.7688,135.4844 L685.7688,134.0938 L678.55,134.0938 Z " fill="#000000"/><text fill="#000000" font-family="monospace" font-size="14" font-style="italic" lengthAdjust="spacing" textLength="176" x="694.95" y="143.8467">ISyncSelectionStrategy</text><rect fill="#FFFFFF" height="16.584" style="stroke:#000000;stroke-width:1.0;stroke-dasharray:2.0,2.0;" width="9" x="883" y="122"/><text fill="#000000" font-family="Verdana" font-size="12" font-style="italic" lengthAdjust="spacing" textLength="7" x="884" y="135.0645">T</text><line style="stroke:#000000;stroke-width:1.0;" x1="666" x2="888" y1="153" y2="153"/><ellipse cx="676" cy="166.6484" fill="#FFFFFF" rx="3" ry="3" style="stroke:#000000;stroke-width:1.0;"/><text fill="#000000" font-family="monospace" font-size="14" lengthAdjust="spacing" textLength="200" x="683" y="169.9951">Select(:list&lt;T&gt;):&#160;list&lt;T&gt;</text></g><!--class StochasticSelectionStrategy--><g id="elem_StochasticSelectionStrategy"><rect codeLine="30" fill="#FFFFFF" height="52.2969" id="StochasticSelectionStrategy" rx="2.5" ry="2.5" style="stroke:#000000;stroke-width:1.0;" width="248" x="524" y="12"/><ellipse cx="538.8" cy="26" fill="#FFFFFF" rx="9" ry="9" style="stroke:#000000;stroke-width:1.0;"/><path d="M542.2063,27.9688 C541.4875,28.6406 540.1906,29.8125 538.4406,29.8125 C536.2219,29.8125 535.2531,27.875 535.2531,25.9219 C535.2531,23.5313 536.7375,22.2656 538.3781,22.2656 C540.3938,22.2656 540.6125,23.7813 540.7844,24.875 L542.2063,24.6875 C542.1125,24.1094 542.0344,23.5313 542.0344,22.5625 C542.0344,21.8906 542.0813,21.3438 542.1125,20.9219 L540.7063,20.9219 L540.5969,21.875 C540.0031,21.3438 539.3625,20.7969 538.1438,20.7969 C536.0969,20.7969 533.6906,22.625 533.6906,25.9375 C533.6906,28.875 535.4563,31.2656 538.4563,31.2656 C540.8938,31.2656 542.5969,29.6406 543.1906,29.0625 L542.2063,27.9688 Z " fill="#000000"/><text fill="#000000" font-family="monospace" font-size="14" lengthAdjust="spacing" textLength="216" x="551.2" y="30.8467">StochasticSelectionStrategy</text><line style="stroke:#000000;stroke-width:1.0;" x1="525" x2="771" y1="40" y2="40"/><ellipse cx="535" cy="53.6484" fill="#FFFFFF" rx="3" ry="3" style="stroke:#000000;stroke-width:1.0;"/><text fill="#000000" font-family="monospace" font-size="14" lengthAdjust="spacing" textLength="224" x="542" y="56.9951">ctor(takeProbability:&#160;float)</text></g><!--class FullSelectionStrategy--><g id="elem_FullSelectionStrategy"><rect fill="#FFFFFF" height="28" id="FullSelectionStrategy" rx="2.5" ry="2.5" style="stroke:#000000;stroke-width:1.0;" width="196" x="807" y="24"/><ellipse cx="820" cy="38" fill="#FFFFFF" rx="9" ry="9" style="stroke:#000000;stroke-width:1.0;"/><path d="M823.4063,39.9688 C822.6875,40.6406 821.3906,41.8125 819.6406,41.8125 C817.4219,41.8125 816.4531,39.875 816.4531,37.9219 C816.4531,35.5313 817.9375,34.2656 819.5781,34.2656 C821.5938,34.2656 821.8125,35.7813 821.9844,36.875 L823.4063,36.6875 C823.3125,36.1094 823.2344,35.5313 823.2344,34.5625 C823.2344,33.8906 823.2813,33.3438 823.3125,32.9219 L821.9063,32.9219 L821.7969,33.875 C821.2031,33.3438 820.5625,32.7969 819.3438,32.7969 C817.2969,32.7969 814.8906,34.625 814.8906,37.9375 C814.8906,40.875 816.6563,43.2656 819.6563,43.2656 C822.0938,43.2656 823.7969,41.6406 824.3906,41.0625 L823.4063,39.9688 Z " fill="#000000"/><text fill="#000000" font-family="monospace" font-size="14" lengthAdjust="spacing" textLength="168" x="832" y="42.8467">FullSelectionStrategy</text></g><!--class ListsUDPRadar--><g id="elem_ListsUDPRadar"><rect codeLine="49" fill="#FFFFFF" height="52.2969" id="ListsUDPRadar" rx="2.5" ry="2.5" style="stroke:#000000;stroke-width:1.0;" width="384" x="55" y="457"/><ellipse cx="191.25" cy="471" fill="#FFFFFF" rx="9" ry="9" style="stroke:#000000;stroke-width:1.0;"/><path d="M194.6563,472.9688 C193.9375,473.6406 192.6406,474.8125 190.8906,474.8125 C188.6719,474.8125 187.7031,472.875 187.7031,470.9219 C187.7031,468.5313 189.1875,467.2656 190.8281,467.2656 C192.8438,467.2656 193.0625,468.7813 193.2344,469.875 L194.6563,469.6875 C194.5625,469.1094 194.4844,468.5313 194.4844,467.5625 C194.4844,466.8906 194.5313,466.3438 194.5625,465.9219 L193.1563,465.9219 L193.0469,466.875 C192.4531,466.3438 191.8125,465.7969 190.5938,465.7969 C188.5469,465.7969 186.1406,467.625 186.1406,470.9375 C186.1406,473.875 187.9063,476.2656 190.9063,476.2656 C193.3438,476.2656 195.0469,474.6406 195.6406,474.0625 L194.6563,472.9688 Z " fill="#000000"/><text fill="#000000" font-family="monospace" font-size="14" lengthAdjust="spacing" textLength="104" x="208.75" y="475.8467">ListsUDPRadar</text><line style="stroke:#000000;stroke-width:1.0;" x1="56" x2="438" y1="485" y2="485"/><ellipse cx="66" cy="498.6484" fill="#FFFFFF" rx="3" ry="3" style="stroke:#000000;stroke-width:1.0;"/><text fill="#000000" font-family="monospace" font-size="14" lengthAdjust="spacing" textLength="360" x="73" y="501.9951">ctor(listenOnly:&#160;bool,&#160;idleTimeout:&#160;TimeSpan)</text></g><!--class BroadcastingUDPRadar--><g id="elem_BroadcastingUDPRadar"><rect fill="#FFFFFF" height="28" id="BroadcastingUDPRadar" rx="2.5" ry="2.5" style="stroke:#000000;stroke-width:1.0;" width="188" x="499" y="469"/><ellipse cx="512" cy="483" fill="#FFFFFF" rx="9" ry="9" style="stroke:#000000;stroke-width:1.0;"/><path d="M515.4063,484.9688 C514.6875,485.6406 513.3906,486.8125 511.6406,486.8125 C509.4219,486.8125 508.4531,484.875 508.4531,482.9219 C508.4531,480.5313 509.9375,479.2656 511.5781,479.2656 C513.5938,479.2656 513.8125,480.7813 513.9844,481.875 L515.4063,481.6875 C515.3125,481.1094 515.2344,480.5313 515.2344,479.5625 C515.2344,478.8906 515.2813,478.3438 515.3125,477.9219 L513.9063,477.9219 L513.7969,478.875 C513.2031,478.3438 512.5625,477.7969 511.3438,477.7969 C509.2969,477.7969 506.8906,479.625 506.8906,482.9375 C506.8906,485.875 508.6563,488.2656 511.6563,488.2656 C514.0938,488.2656 515.7969,486.6406 516.3906,486.0625 L515.4063,484.9688 Z " fill="#000000"/><text fill="#000000" font-family="monospace" font-size="14" lengthAdjust="spacing" textLength="160" x="524" y="487.8467">BroadcastingUDPRadar</text></g><g id="elem_N1"><path d="M79.5,570 L79.5,625.3984 A0,0 0 0 0 79.5,625.3984 L388.5,625.3984 A0,0 0 0 0 388.5,625.3984 L388.5,580 L378.5,570 L241.09,570 L244.08,509.25 L233.09,570 L79.5,570 A0,0 0 0 0 79.5,570 " fill="#FFFFFF" style="stroke:#000000;stroke-width:1.0;"/><path d="M378.5,570 L378.5,580 L388.5,580 L378.5,570 " fill="#FFFFFF" style="stroke:#000000;stroke-width:1.0;"/><text fill="#000000" font-family="monospace" font-size="13" lengthAdjust="spacing" textLength="128" x="85.5" y="587.0669">Uses&#160;Unicasting.</text><text fill="#000000" font-family="monospace" font-size="13" lengthAdjust="spacing" textLength="208" x="85.5" y="602.1997">Listens&#160;for&#160;&#171;Help&#187;&#160;signals</text><text fill="#000000" font-family="monospace" font-size="13" lengthAdjust="spacing" textLength="288" x="85.5" y="617.3325">sends&#160;it&#160;if&#160;not&#160;`listenOnly`&#160;enabled</text></g><g id="elem_N2"><path d="M423.5,577.5 L423.5,617.7656 A0,0 0 0 0 423.5,617.7656 L788.5,617.7656 A0,0 0 0 0 788.5,617.7656 L788.5,587.5 L778.5,577.5 L607.76,577.5 L594.54,497.35 L599.76,577.5 L423.5,577.5 A0,0 0 0 0 423.5,577.5 " fill="#FFFFFF" style="stroke:#000000;stroke-width:1.0;"/><path d="M778.5,577.5 L778.5,587.5 L788.5,587.5 L778.5,577.5 " fill="#FFFFFF" style="stroke:#000000;stroke-width:1.0;"/><text fill="#000000" font-family="monospace" font-size="13" lengthAdjust="spacing" textLength="176" x="429.5" y="594.5669">Uses&#160;UDP&#160;broadcasting.</text><text fill="#000000" font-family="monospace" font-size="13" lengthAdjust="spacing" textLength="344" x="429.5" y="609.6997">(slower&#160;in&#160;Wi-Fi&#160;env&#160;but&#160;faster&#160;when&#160;wired)</text></g><!--reverse link IChunkSyncer to UDPChunkSyncer--><g id="link_IChunkSyncer_UDPChunkSyncer"><path codeLine="6" d="M188,70.17 C188,87.97 188,102.08 188,124.65 " fill="none" id="IChunkSyncer-backto-UDPChunkSyncer" style="stroke:#000000;stroke-width:1.0;stroke-dasharray:7.0,7.0;"/><polygon fill="none" points="188,52.17,182,70.17,194,70.17,188,52.17" style="stroke:#000000;stroke-width:1.0;"/></g><!--link IUDPRadar to Glist--><g id="link_IUDPRadar_Glist"><path codeLine="20" d="M575.45,325 C624.17,325 654.66,325 686.25,325 " fill="none" id="IUDPRadar-to-Glist" style="stroke:#000000;stroke-width:1.0;"/><polygon fill="none" points="704.25,325,686.25,319,686.25,331,704.25,325" style="stroke:#000000;stroke-width:1.0;"/><text fill="#000000" font-family="monospace" font-size="13" lengthAdjust="spacing" textLength="56" x="611.75" y="318.0669">T&#160;is&#160;IP</text></g><!--link ISyncSelectionStrategy to Glist--><g id="link_ISyncSelectionStrategy_Glist"><path codeLine="22" d="M771.62,177.01 C763.64,214.09 750.2211,276.474 744.0811,305.034 " fill="none" id="ISyncSelectionStrategy-to-Glist" style="stroke:#000000;stroke-width:1.0;stroke-dasharray:7.0,7.0;"/><polygon fill="#000000" points="742.82,310.9,748.6223,302.9418,743.8709,306.0117,740.801,301.2603,742.82,310.9" style="stroke:#000000;stroke-width:1.0;"/></g><!--link UDPChunkSyncer to ISyncSelectionStrategy--><g id="link_UDPChunkSyncer_ISyncSelectionStrategy"><path codeLine="28" d="M364.32,151 C461.76,151 573.89,151 658.75,151 " fill="none" id="UDPChunkSyncer-to-ISyncSelectionStrategy" style="stroke:#000000;stroke-width:1.0;"/><polygon fill="#000000" points="664.75,151,655.75,147,659.75,151,655.75,155,664.75,151" style="stroke:#000000;stroke-width:1.0;"/><text fill="#000000" font-family="monospace" font-size="13" lengthAdjust="spacing" textLength="264" x="382.5" y="129.0669">&#171;Uses&#160;to&#160;select&#160;exchange&#160;targets&#187;</text><text fill="#000000" font-family="monospace" font-size="13" lengthAdjust="spacing" textLength="56" x="486.5" y="144.1997">T&#160;is&#160;IP</text></g><!--reverse link StochasticSelectionStrategy to ISyncSelectionStrategy--><g id="link_StochasticSelectionStrategy_ISyncSelectionStrategy"><path codeLine="34" d="M690.9156,75.9287 C712.0256,94.0887 726.76,106.77 747.84,124.91 " fill="none" id="StochasticSelectionStrategy-backto-ISyncSelectionStrategy" style="stroke:#000000;stroke-width:1.0;stroke-dasharray:7.0,7.0;"/><polygon fill="none" points="677.27,64.19,687.0027,80.4772,694.8285,71.3802,677.27,64.19" style="stroke:#000000;stroke-width:1.0;"/></g><!--reverse link FullSelectionStrategy to ISyncSelectionStrategy--><g id="link_FullSelectionStrategy_ISyncSelectionStrategy"><path codeLine="35" d="M876.2126,63.9645 C855.6226,81.8245 832.02,102.29 805.99,124.86 " fill="none" id="FullSelectionStrategy-backto-ISyncSelectionStrategy" style="stroke:#000000;stroke-width:1.0;stroke-dasharray:7.0,7.0;"/><polygon fill="none" points="889.81,52.17,872.2811,59.4321,880.1441,68.497,889.81,52.17" style="stroke:#000000;stroke-width:1.0;"/></g><!--link UDPChunkSyncer to IUDPRadar--><g id="link_UDPChunkSyncer_IUDPRadar"><path codeLine="42" d="M219.84,177.01 C245.59,197.23 283.13,226.71 317.84,253.98 " fill="none" id="UDPChunkSyncer-IUDPRadar" style="stroke:#000000;stroke-width:1.0;"/><text fill="#000000" font-family="monospace" font-size="13" lengthAdjust="spacing" textLength="248" x="279" y="220.0669">&#171;Uses&#160;to&#160;find&#160;exchange&#160;targets&#187;</text></g><!--reverse link IUDPRadar to ListsUDPRadar--><g id="link_IUDPRadar_ListsUDPRadar"><path codeLine="46" d="M322.0737,408.8075 C299.8437,430.4875 289.67,440.4 272.74,456.9 " fill="none" id="IUDPRadar-backto-ListsUDPRadar" style="stroke:#000000;stroke-width:1.0;stroke-dasharray:7.0,7.0;"/><polygon fill="none" points="334.96,396.24,317.8845,404.5121,326.2628,413.103,334.96,396.24" style="stroke:#000000;stroke-width:1.0;"/></g><!--reverse link IUDPRadar to BroadcastingUDPRadar--><g id="link_IUDPRadar_BroadcastingUDPRadar"><path codeLine="47" d="M504.2704,407.5783 C537.1004,435.1183 557.75,452.44 577.18,468.73 " fill="none" id="IUDPRadar-backto-BroadcastingUDPRadar" style="stroke:#000000;stroke-width:1.0;stroke-dasharray:7.0,7.0;"/><polygon fill="none" points="490.48,396.01,500.4143,412.1751,508.1265,402.9815,490.48,396.01" style="stroke:#000000;stroke-width:1.0;"/></g><!--SRC=[bLDBRvj04BxpAwQvr5O3LND45eScIcifSgquLWzrrImmu56MMOjTwbfE_dk7HnomKALoOrxVOsRV4IUwIX62ZzOTD0Qxgj2UH-omp5I2CB_ULloqEd229HnVF6yGc3q70QnlbhtOe5bIzofL9S3H0_byE6Q4Eds1ujSJcpqlaF9jR4eRWYRhPfFvyX8UgC2LKyLk6ZLT7-1OeDiQQNDRiZz2GVWPmdm9ircEBdgjIap5BWJ9je74cN92ktiii8YnhCU6xV2TucdN942bcqn3k5PQgrZZjH8PMablLx4mZhB30lTpJan1d4_2-NBgYHSzgHSD_OVe0fI5B_MFM7MIxvSYq_dFKPiI5a1M14XDxTeADIQE3AzSgHpc1mY2w7LAefMrPoPtTehaMc9u0hg4S7nWG_TiHaSgWl6MKDnTMxJW3DWc2VWdsIhE4SGpCTv6qOPFIbgUAsUanZeQ4JKWxTGJBaiJgvWqEK7Bj56kuVcl6St5ZHFsRYkj_w-ZVwkZ5RBH4-qsEGcxJK-xats8cbCuDzT_k_w-anbnEkAZvxq_Nt7_VXeDTu9cNqFdoS-bKMbIcyRvgQRRoQ1nk8LQ0V8trhA0s1Xz2PHghD-8gLp_iOX4Daxkl16oPkgmWWtVDJCiP4QupBwYtaKHMCfPQRjXYvnQ80UKWKo0npV8Hq2kNrpQF9h5fm72pHBYdYR1cLXjzc8CCNmd_vQa-pV4bODCIYI-toB3dafCf-t0ArdBKBilrouuOsQrkIllBm00]--></g></svg>