<?xml version="1.0" encoding="us-ascii" standalone="no"?><svg xmlns="http://www.w3.org/2000/svg" xmlns:xlink="http://www.w3.org/1999/xlink" contentStyleType="text/css" height="1001px" preserveAspectRatio="none" style="width:1760px;height:1001px;background:#FFFFFF;" version="1.1" viewBox="0 0 1760 1001" width="1760px" zoomAndPan="magnify"><defs/><g><text fill="#000000" font-family="monospace" font-size="22" font-weight="bold" lengthAdjust="spacing" textLength="156" x="797.5" y="35.4209">Node&#160;Example</text><!--cluster Local Network--><g id="cluster_Local Network"><rect fill="#FFFFFF" height="744" rx="2.5" ry="2.5" style="stroke:#000000;stroke-width:1.0;" width="1237" x="517" y="251.6094"/><text fill="#000000" font-family="monospace" font-size="14" font-weight="bold" lengthAdjust="spacing" textLength="104" x="1083.5" y="266.6045">Local&#160;Network</text></g><!--cluster MN--><g id="cluster_MN"><rect fill="#FFFFFF" height="506" rx="2.5" ry="2.5" style="stroke:#000000;stroke-width:1.0;" width="716" x="549" y="302.6094"/><text fill="#000000" font-family="monospace" font-size="14" font-weight="bold" lengthAdjust="spacing" textLength="72" x="871" y="317.6045">Main&#160;Node</text></g><!--cluster Third-Party--><g id="cluster_Third-Party"><rect fill="#FFFFFF" height="87" rx="2.5" ry="2.5" style="stroke:#000000;stroke-width:1.0;" width="223" x="1002" y="353.6094"/><text fill="#000000" font-family="monospace" font-size="14" font-weight="bold" lengthAdjust="spacing" textLength="88" x="1069.5" y="368.6045">Third-Party</text></g><!--cluster Python-Inside--><g id="cluster_Python-Inside"><rect fill="#FFFFFF" height="271" rx="2.5" ry="2.5" style="stroke:#000000;stroke-width:1.0;" width="644" x="581" y="505.6094"/><text fill="#000000" font-family="monospace" font-size="14" font-weight="bold" lengthAdjust="spacing" textLength="104" x="851" y="520.6045">Python-Inside</text></g><!--cluster SN--><g id="cluster_SN"><rect fill="#FFFFFF" height="466" rx="2.5" ry="2.5" style="stroke:#000000;stroke-width:1.0;" width="417" x="1305" y="497.6094"/><text fill="#000000" font-family="monospace" font-size="14" font-weight="bold" lengthAdjust="spacing" textLength="80" x="1473.5" y="512.6045">Slave&#160;Node</text></g><!--cluster Python-Inside--><g id="cluster_Python-Inside"><rect fill="#FFFFFF" height="242" rx="2.5" ry="2.5" style="stroke:#000000;stroke-width:1.0;" width="345" x="1345" y="689.6094"/><text fill="#000000" font-family="monospace" font-size="14" font-weight="bold" lengthAdjust="spacing" textLength="104" x="1465.5" y="704.6045">Python-Inside</text></g><!--cluster External Network--><g id="cluster_External Network"><rect fill="#FFFFFF" height="598" rx="2.5" ry="2.5" style="stroke:#000000;stroke-width:1.0;" width="481" x="12" y="58.6094"/><text fill="#000000" font-family="monospace" font-size="14" font-weight="bold" lengthAdjust="spacing" textLength="128" x="188.5" y="73.6045">External&#160;Network</text></g><!--cluster RN--><g id="cluster_RN"><rect fill="#FFFFFF" height="515" rx="2.5" ry="2.5" style="stroke:#000000;stroke-width:1.0;" width="417" x="44" y="109.6094"/><text fill="#000000" font-family="monospace" font-size="14" font-weight="bold" lengthAdjust="spacing" textLength="88" x="208.5" y="124.6045">Remote&#160;Node</text></g><!--cluster Python-Inside--><g id="cluster_Python-Inside"><rect fill="#FFFFFF" height="239" rx="2.5" ry="2.5" style="stroke:#000000;stroke-width:1.0;" width="345" x="76" y="353.6094"/><text fill="#000000" font-family="monospace" font-size="14" font-weight="bold" lengthAdjust="spacing" textLength="104" x="196.5" y="368.6045">Python-Inside</text></g><g id="elem_Assets"><rect fill="#FFFFFF" height="36.2969" style="stroke:#000000;stroke-width:1.0;" width="62" x="921" y="388.6094"/><text fill="#000000" font-family="monospace" font-size="14" lengthAdjust="spacing" textLength="48" x="928" y="403.6045">Assets</text><line style="stroke:#000000;stroke-width:1.0;" x1="922" x2="982" y1="408.9063" y2="408.9063"/></g><g id="elem_TensorBoard"><rect fill="#FFFFFF" height="36.2969" style="stroke:#000000;stroke-width:1.0;" width="102" x="1107" y="388.6094"/><text fill="#000000" font-family="monospace" font-size="14" lengthAdjust="spacing" textLength="88" x="1114" y="403.6045">TensorBoard</text><line style="stroke:#000000;stroke-width:1.0;" x1="1108" x2="1208" y1="408.9063" y2="408.9063"/></g><g id="elem_NGINX"><rect fill="#FFFFFF" height="36.2969" style="stroke:#000000;stroke-width:1.0;" width="54" x="1018" y="388.6094"/><text fill="#000000" font-family="monospace" font-size="14" lengthAdjust="spacing" textLength="40" x="1025" y="403.6045">NGINX</text><line style="stroke:#000000;stroke-width:1.0;" x1="1019" x2="1071" y1="408.9063" y2="408.9063"/></g><g id="elem_LocalImporter"><rect fill="#FFFFFF" height="36.2969" style="stroke:#000000;stroke-width:1.0;" width="118" x="1091" y="540.6094"/><text fill="#000000" font-family="monospace" font-size="14" lengthAdjust="spacing" textLength="104" x="1098" y="555.6045">LocalImporter</text><line style="stroke:#000000;stroke-width:1.0;" x1="1092" x2="1208" y1="560.9063" y2="560.9063"/></g><g id="elem_Node"><rect fill="#FFFFFF" height="36.2969" style="stroke:#000000;stroke-width:1.0;" width="46" x="904" y="540.6094"/><text fill="#000000" font-family="monospace" font-size="14" lengthAdjust="spacing" textLength="32" x="911" y="555.6045">Node</text><line style="stroke:#000000;stroke-width:1.0;" x1="905" x2="949" y1="560.9063" y2="560.9063"/></g><g id="elem_EchoRoomChunkSyncer"><rect fill="#FFFFFF" height="36.2969" style="stroke:#000000;stroke-width:1.0;" width="166" x="597" y="540.6094"/><text fill="#000000" font-family="monospace" font-size="14" lengthAdjust="spacing" textLength="152" x="604" y="555.6045">EchoRoomChunkSyncer</text><line style="stroke:#000000;stroke-width:1.0;" x1="598" x2="762" y1="560.9063" y2="560.9063"/></g><g id="elem_TCPServerChunkSyncer"><rect fill="#FFFFFF" height="36.2969" style="stroke:#000000;stroke-width:1.0;" width="174" x="597" y="724.6094"/><text fill="#000000" font-family="monospace" font-size="14" lengthAdjust="spacing" textLength="160" x="604" y="739.6045">TCPServerChunkSyncer</text><line style="stroke:#000000;stroke-width:1.0;" x1="598" x2="770" y1="744.9063" y2="744.9063"/></g><g id="elem_UDPChunkSyncer"><rect fill="#FFFFFF" height="36.2969" style="stroke:#000000;stroke-width:1.0;" width="126" x="806" y="724.6094"/><text fill="#000000" font-family="monospace" font-size="14" lengthAdjust="spacing" textLength="112" x="813" y="739.6045">UDPChunkSyncer</text><line style="stroke:#000000;stroke-width:1.0;" x1="807" x2="931" y1="744.9063" y2="744.9063"/></g><g id="elem_AssetsCopy"><rect fill="#FFFFFF" height="36.2969" style="stroke:#000000;stroke-width:1.0;" width="62" x="1580" y="540.6094"/><text fill="#000000" font-family="monospace" font-size="14" lengthAdjust="spacing" textLength="48" x="1587" y="555.6045">Assets</text><line style="stroke:#000000;stroke-width:1.0;" x1="1581" x2="1641" y1="560.9063" y2="560.9063"/></g><g id="elem_RM1"><rect fill="#FFFFFF" height="36.2969" style="stroke:#000000;stroke-width:1.0;" width="126" x="1548" y="724.6094"/><text fill="#000000" font-family="monospace" font-size="14" lengthAdjust="spacing" textLength="112" x="1555" y="739.6045">RemoteImporter</text><line style="stroke:#000000;stroke-width:1.0;" x1="1549" x2="1673" y1="744.9063" y2="744.9063"/></g><g id="elem_SlaveNode"><rect fill="#FFFFFF" height="36.2969" style="stroke:#000000;stroke-width:1.0;" width="46" x="1361" y="724.6094"/><text fill="#000000" font-family="monospace" font-size="14" lengthAdjust="spacing" textLength="32" x="1368" y="739.6045">Node</text><line style="stroke:#000000;stroke-width:1.0;" x1="1362" x2="1406" y1="744.9063" y2="744.9063"/></g><g id="elem_SlaveUDP"><rect fill="#FFFFFF" height="36.2969" style="stroke:#000000;stroke-width:1.0;" width="126" x="1361" y="879.6094"/><text fill="#000000" font-family="monospace" font-size="14" lengthAdjust="spacing" textLength="112" x="1368" y="894.6045">UDPChunkSyncer</text><line style="stroke:#000000;stroke-width:1.0;" x1="1362" x2="1486" y1="899.9063" y2="899.9063"/></g><g id="elem_AssetsCopy2"><rect fill="#FFFFFF" height="36.2969" style="stroke:#000000;stroke-width:1.0;" width="62" x="311" y="152.6094"/><text fill="#000000" font-family="monospace" font-size="14" lengthAdjust="spacing" textLength="48" x="318" y="167.6045">Assets</text><line style="stroke:#000000;stroke-width:1.0;" x1="312" x2="372" y1="172.9063" y2="172.9063"/></g><g id="elem_RM2"><rect fill="#FFFFFF" height="36.2969" style="stroke:#000000;stroke-width:1.0;" width="126" x="279" y="388.6094"/><text fill="#000000" font-family="monospace" font-size="14" lengthAdjust="spacing" textLength="112" x="286" y="403.6045">RemoteImporter</text><line style="stroke:#000000;stroke-width:1.0;" x1="280" x2="404" y1="408.9063" y2="408.9063"/></g><g id="elem_RemoteNode"><rect fill="#FFFFFF" height="36.2969" style="stroke:#000000;stroke-width:1.0;" width="46" x="92" y="388.6094"/><text fill="#000000" font-family="monospace" font-size="14" lengthAdjust="spacing" textLength="32" x="99" y="403.6045">Node</text><line style="stroke:#000000;stroke-width:1.0;" x1="93" x2="137" y1="408.9063" y2="408.9063"/></g><g id="elem_TCPClientChunkSyncer"><rect fill="#FFFFFF" height="36.2969" style="stroke:#000000;stroke-width:1.0;" width="174" x="92" y="540.6094"/><text fill="#000000" font-family="monospace" font-size="14" lengthAdjust="spacing" textLength="160" x="99" y="555.6045">TCPClientChunkSyncer</text><line style="stroke:#000000;stroke-width:1.0;" x1="93" x2="265" y1="560.9063" y2="560.9063"/></g><!--link NGINX to TensorBoard--><!--link NGINX to Assets--><g id="link_NGINX_Assets"><path codeLine="16" d="M1017.98,406.6094 C1006.4,406.6094 1000.82,406.6094 989.24,406.6094 " fill="none" id="NGINX-to-Assets" style="stroke:#000000;stroke-width:1.0;stroke-dasharray:7.0,7.0;"/><polygon fill="#000000" points="983.24,406.6094,992.24,410.6094,988.24,406.6094,992.24,402.6094,983.24,406.6094" style="stroke:#000000;stroke-width:1.0;"/></g><!--link EchoRoomChunkSyncer to TCPServerChunkSyncer--><g id="link_EchoRoomChunkSyncer_TCPServerChunkSyncer"><path codeLine="26" d="M680.38,576.7294 C681.14,611.4194 682.86,689.6394 683.62,724.3994 " fill="none" id="EchoRoomChunkSyncer-TCPServerChunkSyncer" style="stroke:#000000;stroke-width:1.0;"/></g><!--link EchoRoomChunkSyncer to UDPChunkSyncer--><g id="link_EchoRoomChunkSyncer_UDPChunkSyncer"><path codeLine="27" d="M697.78,576.7294 C733.8,611.4194 815.03,689.6394 851.13,724.3994 " fill="none" id="EchoRoomChunkSyncer-UDPChunkSyncer" style="stroke:#000000;stroke-width:1.0;"/></g><!--link Node to LocalImporter--><g id="link_Node_LocalImporter"><path codeLine="29" d="M950.02,558.6094 C982.96,558.6094 1044.65,558.6094 1090.84,558.6094 " fill="none" id="Node-LocalImporter" style="stroke:#000000;stroke-width:1.0;stroke-dasharray:7.0,7.0;"/><text fill="#000000" font-family="monospace" font-size="13" lengthAdjust="spacing" textLength="104" x="968.5" y="551.6763">&#171;via&#160;Builder&#187;</text></g><!--link EchoRoomChunkSyncer to Node--><g id="link_EchoRoomChunkSyncer_Node"><path codeLine="30" d="M763.28,558.6094 C812.72,558.6094 871.81,558.6094 903.74,558.6094 " fill="none" id="EchoRoomChunkSyncer-Node" style="stroke:#000000;stroke-width:1.0;stroke-dasharray:7.0,7.0;"/><text fill="#000000" font-family="monospace" font-size="13" lengthAdjust="spacing" textLength="104" x="781.5" y="551.6763">&#171;via&#160;Builder&#187;</text></g><!--reverse link Assets to LocalImporter--><g id="link_Assets_LocalImporter"><path codeLine="34" d="M977.3503,428.8372 C986.2703,436.2272 992.25,441.0294 1002,448.6094 C1044.96,481.9994 1096.34,519.2694 1125.88,540.4294 " fill="none" id="Assets-backto-LocalImporter" style="stroke:#000000;stroke-width:1.0;stroke-dasharray:7.0,7.0;"/><polygon fill="#000000" points="972.73,425.0094,977.1086,433.8314,976.5803,428.1992,982.2124,427.6709,972.73,425.0094" style="stroke:#000000;stroke-width:1.0;"/></g><!--link SlaveNode to RM1--><g id="link_SlaveNode_RM1"><path codeLine="48" d="M1407.02,742.6094 C1439.7,742.6094 1500.8,742.6094 1547.64,742.6094 " fill="none" id="SlaveNode-RM1" style="stroke:#000000;stroke-width:1.0;stroke-dasharray:7.0,7.0;"/><text fill="#000000" font-family="monospace" font-size="13" lengthAdjust="spacing" textLength="104" x="1425.5" y="735.6763">&#171;via&#160;Builder&#187;</text></g><!--link SlaveNode to SlaveUDP--><g id="link_SlaveNode_SlaveUDP"><path codeLine="49" d="M1388.51,760.8594 C1396.19,790.2494 1411.73,849.6794 1419.44,879.1794 " fill="none" id="SlaveNode-SlaveUDP" style="stroke:#000000;stroke-width:1.0;stroke-dasharray:7.0,7.0;"/><text fill="#000000" font-family="monospace" font-size="13" lengthAdjust="spacing" textLength="104" x="1412" y="845.6763">&#171;via&#160;Builder&#187;</text></g><!--reverse link AssetsCopy to RM1--><g id="link_AssetsCopy_RM1"><path codeLine="53" d="M1611,582.7294 C1611,617.4194 1611,689.6394 1611,724.3994 " fill="none" id="AssetsCopy-backto-RM1" style="stroke:#000000;stroke-width:1.0;stroke-dasharray:7.0,7.0;"/><polygon fill="#000000" points="1611,576.7294,1607,585.7294,1611,581.7294,1615,585.7294,1611,576.7294" style="stroke:#000000;stroke-width:1.0;"/></g><!--link MN to SN--><g id="link_MN_SN"><path codeLine="56" d="M1265.0643,429.21 C1265.1414,429.4165 1265.2189,429.6241 1265.2968,429.8328 C1265.6085,430.6677 1265.9269,431.5203 1266.2514,432.3895 C1271.4441,446.2972 1278.2281,464.4675 1285.0113,482.6356 C1291.7944,500.8038 1298.5766,518.9697 1303.7655,532.8686 C1304.0898,533.7373 1304.4079,534.5893 1304.7193,535.4236 C1304.7972,535.6322 1304.8747,535.8396 1304.9517,536.046 " fill="none" id="MN-SN" style="stroke:#000000;stroke-width:1.0;"/><text fill="#000000" font-family="monospace" font-size="13" lengthAdjust="spacing" textLength="72" x="1280" y="469.6763">&#171;Via&#160;UDP&#187;</text></g><!--link RemoteNode to RM2--><g id="link_RemoteNode_RM2"><path codeLine="72" d="M138.02,406.6094 C170.7,406.6094 231.8,406.6094 278.64,406.6094 " fill="none" id="RemoteNode-RM2" style="stroke:#000000;stroke-width:1.0;stroke-dasharray:7.0,7.0;"/><text fill="#000000" font-family="monospace" font-size="13" lengthAdjust="spacing" textLength="104" x="156.5" y="399.6763">&#171;via&#160;Builder&#187;</text></g><!--link RemoteNode to TCPClientChunkSyncer--><g id="link_RemoteNode_TCPClientChunkSyncer"><path codeLine="73" d="M122.34,424.8194 C134.69,453.7494 159.46,511.7994 171.74,540.5994 " fill="none" id="RemoteNode-TCPClientChunkSyncer" style="stroke:#000000;stroke-width:1.0;stroke-dasharray:7.0,7.0;"/><text fill="#000000" font-family="monospace" font-size="13" lengthAdjust="spacing" textLength="104" x="143" y="469.6763">&#171;via&#160;Builder&#187;</text></g><!--reverse link AssetsCopy2 to RM2--><g id="link_AssetsCopy2_RM2"><path codeLine="78" d="M342,194.8194 C342,238.0894 342,345.0794 342,388.3794 " fill="none" id="AssetsCopy2-backto-RM2" style="stroke:#000000;stroke-width:1.0;stroke-dasharray:7.0,7.0;"/><polygon fill="#000000" points="342,188.8194,338,197.8194,342,193.8194,346,197.8194,342,188.8194" style="stroke:#000000;stroke-width:1.0;"/></g><!--link RN to MN--><g id="link_RN_MN"><path codeLine="82" d="M461.8508,171.8024 C462.19,171.8102 462.5384,171.8183 462.8961,171.8266 C468.6187,171.9593 476.7011,172.1547 486.8209,172.4198 C507.0604,172.9499 535.4491,173.7585 569.4077,174.9014 C637.3247,177.1872 727.5206,180.81 819.3588,186.2156 C1003.035,197.0269 1193.28,214.9694 1225,243.6094 C1238.405,255.7119 1247.15,271.6688 1252.7169,288.85 C1254.1086,293.1453 1255.3017,297.5171 1256.3193,301.9244 " fill="none" id="RN-MN" style="stroke:#000000;stroke-width:1.0;"/><text fill="#000000" font-family="monospace" font-size="13" lengthAdjust="spacing" textLength="72" x="1207" y="231.6763">&#171;Via&#160;TCP&#187;</text></g><!--SRC=[jPH1Zvim48Nl_XKkTv3AiOeYTRDf5QcW2BPLfQe7BymkReoDZ9DkLEr_xs3OWAb3MrNbXEpttjZp3HXk1D1KbK2tJwnk113oobHG0sq4uvAq1ouRfbbDR-617OLvfwH96UudIggsOGMKX6We39EF61LyK0KJD0NpNUb3G7yGYizaFy5KMp2WhAL9EYXcghkAwpBSCstEmKJHFUh-6-he7SXMwHl5TEdRJj_lqi_EXbq9lrIyB45-NVlypuJCOjwsBPYME1aqqlonCj5wlkkxoFviAYN3dMnvTsNlLMpBTdMZj07jlGosoxU-BIgLALLlggCyv6TPeDtRgyq-1tq2FHLwT1zlzrUZFBLe6Fu- -eflgPGTnw79RdFUqDNgn1czEN9HWbwlFJu13sZpbFtLx0FVCwMhAF9m6NGJlhbW9nZdEU_cUJv4GPzf1VthHZNdVnwR88DQ6NWve8tFajTUwNZ0xhnsdhmw5ylem7NYEYv15r9OUvdFn19TOl-6IjSsI-RbceC2_o8uKddQPNt2B8p5d6VdlxHzmXv9zzSqXzatTAIP_JdD-3_XZ9TnzfwhFF7ht0WEqZZVcgCS4oOWusMGKq_aBR9CrOCr7hZ60rTKPPPgSg6ATJ3d9m00]--></g></svg>