<?xml version="1.0" encoding="us-ascii" standalone="no"?><svg xmlns="http://www.w3.org/2000/svg" xmlns:xlink="http://www.w3.org/1999/xlink" contentStyleType="text/css" height="167px" preserveAspectRatio="none" style="width:342px;height:167px;background:#FFFFFF;" version="1.1" viewBox="0 0 342 167" width="342px" zoomAndPan="magnify"><defs/><g><!--class SLURMImporter--><g id="elem_SLURMImporter"><rect fill="#FFFFFF" height="44" id="SLURMImporter" rx="2.5" ry="2.5" style="stroke:#000000;stroke-width:1.0;" width="132" x="12" y="12"/><ellipse cx="25" cy="26" fill="#FFFFFF" rx="9" ry="9" style="stroke:#000000;stroke-width:1.0;"/><path d="M28.4063,27.9688 C27.6875,28.6406 26.3906,29.8125 24.6406,29.8125 C22.4219,29.8125 21.4531,27.875 21.4531,25.9219 C21.4531,23.5313 22.9375,22.2656 24.5781,22.2656 C26.5938,22.2656 26.8125,23.7813 26.9844,24.875 L28.4063,24.6875 C28.3125,24.1094 28.2344,23.5313 28.2344,22.5625 C28.2344,21.8906 28.2813,21.3438 28.3125,20.9219 L26.9063,20.9219 L26.7969,21.875 C26.2031,21.3438 25.5625,20.7969 24.3438,20.7969 C22.2969,20.7969 19.8906,22.625 19.8906,25.9375 C19.8906,28.875 21.6563,31.2656 24.6563,31.2656 C27.0938,31.2656 28.7969,29.6406 29.3906,29.0625 L28.4063,27.9688 Z " fill="#000000"/><text fill="#000000" font-family="monospace" font-size="14" lengthAdjust="spacing" textLength="104" x="37" y="30.8467">SLURMImporter</text><line style="stroke:#000000;stroke-width:1.0;" x1="13" x2="143" y1="40" y2="40"/><line style="stroke:#000000;stroke-width:1.0;" x1="13" x2="143" y1="48" y2="48"/></g><!--class IImporter--><g id="elem_IImporter"><rect fill="#FFFFFF" height="44" id="IImporter" rx="2.5" ry="2.5" style="stroke:#000000;stroke-width:1.0;" width="100" x="28" y="116"/><ellipse cx="41" cy="130" fill="#FFFFFF" rx="9" ry="9" style="stroke:#000000;stroke-width:1.0;"/><path d="M44.4063,131.9688 C43.6875,132.6406 42.3906,133.8125 40.6406,133.8125 C38.4219,133.8125 37.4531,131.875 37.4531,129.9219 C37.4531,127.5313 38.9375,126.2656 40.5781,126.2656 C42.5938,126.2656 42.8125,127.7813 42.9844,128.875 L44.4063,128.6875 C44.3125,128.1094 44.2344,127.5313 44.2344,126.5625 C44.2344,125.8906 44.2813,125.3438 44.3125,124.9219 L42.9063,124.9219 L42.7969,125.875 C42.2031,125.3438 41.5625,124.7969 40.3438,124.7969 C38.2969,124.7969 35.8906,126.625 35.8906,129.9375 C35.8906,132.875 37.6563,135.2656 40.6563,135.2656 C43.0938,135.2656 44.7969,133.6406 45.3906,133.0625 L44.4063,131.9688 Z " fill="#000000"/><text fill="#000000" font-family="monospace" font-size="14" lengthAdjust="spacing" textLength="72" x="53" y="134.8467">IImporter</text><line style="stroke:#000000;stroke-width:1.0;" x1="29" x2="127" y1="144" y2="144"/><line style="stroke:#000000;stroke-width:1.0;" x1="29" x2="127" y1="152" y2="152"/></g><!--class SLURMChunkSyncer--><g id="elem_SLURMChunkSyncer"><rect fill="#FFFFFF" height="44" id="SLURMChunkSyncer" rx="2.5" ry="2.5" style="stroke:#000000;stroke-width:1.0;" width="156" x="179" y="12"/><ellipse cx="192" cy="26" fill="#FFFFFF" rx="9" ry="9" style="stroke:#000000;stroke-width:1.0;"/><path d="M195.4063,27.9688 C194.6875,28.6406 193.3906,29.8125 191.6406,29.8125 C189.4219,29.8125 188.4531,27.875 188.4531,25.9219 C188.4531,23.5313 189.9375,22.2656 191.5781,22.2656 C193.5938,22.2656 193.8125,23.7813 193.9844,24.875 L195.4063,24.6875 C195.3125,24.1094 195.2344,23.5313 195.2344,22.5625 C195.2344,21.8906 195.2813,21.3438 195.3125,20.9219 L193.9063,20.9219 L193.7969,21.875 C193.2031,21.3438 192.5625,20.7969 191.3438,20.7969 C189.2969,20.7969 186.8906,22.625 186.8906,25.9375 C186.8906,28.875 188.6563,31.2656 191.6563,31.2656 C194.0938,31.2656 195.7969,29.6406 196.3906,29.0625 L195.4063,27.9688 Z " fill="#000000"/><text fill="#000000" font-family="monospace" font-size="14" lengthAdjust="spacing" textLength="128" x="204" y="30.8467">SLURMChunkSyncer</text><line style="stroke:#000000;stroke-width:1.0;" x1="180" x2="334" y1="40" y2="40"/><line style="stroke:#000000;stroke-width:1.0;" x1="180" x2="334" y1="48" y2="48"/></g><!--class IChunkSyncer--><g id="elem_IChunkSyncer"><rect fill="#FFFFFF" height="44" id="IChunkSyncer" rx="2.5" ry="2.5" style="stroke:#000000;stroke-width:1.0;" width="124" x="195" y="116"/><ellipse cx="208" cy="130" fill="#FFFFFF" rx="9" ry="9" style="stroke:#000000;stroke-width:1.0;"/><path d="M211.4063,131.9688 C210.6875,132.6406 209.3906,133.8125 207.6406,133.8125 C205.4219,133.8125 204.4531,131.875 204.4531,129.9219 C204.4531,127.5313 205.9375,126.2656 207.5781,126.2656 C209.5938,126.2656 209.8125,127.7813 209.9844,128.875 L211.4063,128.6875 C211.3125,128.1094 211.2344,127.5313 211.2344,126.5625 C211.2344,125.8906 211.2813,125.3438 211.3125,124.9219 L209.9063,124.9219 L209.7969,125.875 C209.2031,125.3438 208.5625,124.7969 207.3438,124.7969 C205.2969,124.7969 202.8906,126.625 202.8906,129.9375 C202.8906,132.875 204.6563,135.2656 207.6563,135.2656 C210.0938,135.2656 211.7969,133.6406 212.3906,133.0625 L211.4063,131.9688 Z " fill="#000000"/><text fill="#000000" font-family="monospace" font-size="14" lengthAdjust="spacing" textLength="96" x="220" y="134.8467">IChunkSyncer</text><line style="stroke:#000000;stroke-width:1.0;" x1="196" x2="318" y1="144" y2="144"/><line style="stroke:#000000;stroke-width:1.0;" x1="196" x2="318" y1="152" y2="152"/></g><!--link SLURMImporter to IImporter--><g id="link_SLURMImporter_IImporter"><path codeLine="5" d="M78,56.13 C78,73.64 78,80.39 78,97.89 " fill="none" id="SLURMImporter-to-IImporter" style="stroke:#000000;stroke-width:1.0;"/><polygon fill="none" points="78,115.89,84,97.89,72,97.89,78,115.89" style="stroke:#000000;stroke-width:1.0;"/></g><!--link SLURMChunkSyncer to IChunkSyncer--><g id="link_SLURMChunkSyncer_IChunkSyncer"><path codeLine="6" d="M257,56.13 C257,73.64 257,80.39 257,97.89 " fill="none" id="SLURMChunkSyncer-to-IChunkSyncer" style="stroke:#000000;stroke-width:1.0;"/><polygon fill="none" points="257,115.89,263,97.89,251,97.89,257,115.89" style="stroke:#000000;stroke-width:1.0;"/></g><!--SRC=[Kop9ICrDLIZ8ISpCuohEpimhI2nAp5LmIKrBBCqfSSlFA_5B1ChxvkVb5nSa9gUcS745-uG6-Nhc5kGNbQGMAUZgrjWfUCAu44ddZDAyxE3Al6IuF9885nS0]--></g></svg>