<?xml version="1.0" encoding="us-ascii" standalone="no"?><svg xmlns="http://www.w3.org/2000/svg" xmlns:xlink="http://www.w3.org/1999/xlink" contentStyleType="text/css" height="509px" preserveAspectRatio="none" style="width:1073px;height:509px;background:#FFFFFF;" version="1.1" viewBox="0 0 1073 509" width="1073px" zoomAndPan="magnify"><defs/><g><!--entity CRC--><g id="elem_CRC"><rect fill="#FFFFFF" height="36.2969" rx="2.5" ry="2.5" style="stroke:#000000;stroke-width:1.0;" width="132" x="12" y="109"/><text fill="#000000" font-family="monospace" font-size="14" lengthAdjust="spacing" textLength="112" x="22" y="131.9951">CRC32&#160;[uint32]</text></g><!--entity Flags--><g id="elem_Flags"><rect fill="#FFFFFF" height="36.2969" rx="2.5" ry="2.5" style="stroke:#000000;stroke-width:1.0;" width="124" x="255" y="208"/><text fill="#000000" font-family="monospace" font-size="14" lengthAdjust="spacing" textLength="104" x="265" y="230.9951">Flags&#160;[uint8]</text></g><!--entity Len--><g id="elem_Len"><rect fill="#FFFFFF" height="36.2969" rx="2.5" ry="2.5" style="stroke:#000000;stroke-width:1.0;" width="172" x="624" y="334"/><text fill="#000000" font-family="monospace" font-size="14" lengthAdjust="spacing" textLength="152" x="634" y="356.9951">GUID&#160;packs&#160;[uint32]</text></g><!--entity GUIDS--><g id="elem_GUIDS"><rect fill="#FFFFFF" height="36.2969" rx="2.5" ry="2.5" style="stroke:#000000;stroke-width:1.0;" width="236" x="831" y="334"/><text fill="#000000" font-family="monospace" font-size="14" lengthAdjust="spacing" textLength="216" x="841" y="356.9951">Asset&#160;GUIDs&#160;[L&#160;x&#160;16&#160;x&#160;byte]</text></g><!--entity PrevSession--><g id="elem_PrevSession"><rect fill="#FFFFFF" height="36.2969" rx="2.5" ry="2.5" style="stroke:#000000;stroke-width:1.0;" width="284" x="568" y="208"/><text fill="#000000" font-family="monospace" font-size="14" lengthAdjust="spacing" textLength="264" x="578" y="230.9951">Previous&#160;session&#160;GUID&#160;[16&#160;x&#160;byte]</text></g><!--entity CurrSession--><g id="elem_CurrSession"><rect fill="#FFFFFF" height="36.2969" rx="2.5" ry="2.5" style="stroke:#000000;stroke-width:1.0;" width="276" x="179" y="109"/><text fill="#000000" font-family="monospace" font-size="14" lengthAdjust="spacing" textLength="256" x="189" y="131.9951">Current&#160;session&#160;GUID&#160;[16&#160;x&#160;byte]</text></g><g id="elem_L"><path d="M695.5,458.5 L695.5,483.6328 A0,0 0 0 0 695.5,483.6328 L724.5,483.6328 A0,0 0 0 0 724.5,483.6328 L724.5,468.5 L714.5,458.5 L714,458.5 L710,370.01 L706,458.5 L695.5,458.5 A0,0 0 0 0 695.5,458.5 " fill="#FFFFFF" style="stroke:#000000;stroke-width:1.0;"/><path d="M714.5,458.5 L714.5,468.5 L724.5,468.5 L714.5,458.5 " fill="#FFFFFF" style="stroke:#000000;stroke-width:1.0;"/><text fill="#000000" font-family="monospace" font-size="13" lengthAdjust="spacing" textLength="8" x="701.5" y="475.5669">L</text></g><!--entity EndOfPackage--><g id="elem_EndOfPackage"><ellipse cx="949" cy="471" fill="#FFFFFF" rx="8" ry="8" style="stroke:#000000;stroke-width:1.0;"/><text fill="#000000" font-family="monospace" font-size="14" lengthAdjust="spacing" textLength="96" x="901" y="500.9951">EndOfPackage</text></g><g id="elem_NoteFlag"><path d="M14.5,206 L14.5,246.2656 A0,0 0 0 0 14.5,246.2656 L219.5,246.2656 A0,0 0 0 0 219.5,246.2656 L219.5,230 L254.69,226 L219.5,222 L219.5,216 L209.5,206 L14.5,206 A0,0 0 0 0 14.5,206 " fill="#FFFFFF" style="stroke:#000000;stroke-width:1.0;"/><path d="M209.5,206 L209.5,216 L219.5,216 L209.5,206 " fill="#FFFFFF" style="stroke:#000000;stroke-width:1.0;"/><text fill="#000000" font-family="monospace" font-size="13" lengthAdjust="spacing" textLength="184" x="20.5" y="223.0669">Currently&#160;only&#160;supports</text><text fill="#000000" font-family="monospace" font-size="13" lengthAdjust="spacing" textLength="128" x="20.5" y="238.1997">&#171;Is&#160;master&#187;&#160;flag</text></g><!--entity EndOfPackage2--><g id="elem_EndOfPackage2"><ellipse cx="317" cy="352" fill="#FFFFFF" rx="8" ry="8" style="stroke:#000000;stroke-width:1.0;"/><text fill="#000000" font-family="monospace" font-size="14" lengthAdjust="spacing" textLength="96" x="269" y="381.9951">EndOfPackage</text></g><!--entity StartOfPackage--><g id="elem_StartOfPackage"><ellipse cx="78" cy="19" fill="#FFFFFF" rx="8" ry="8" style="stroke:#000000;stroke-width:1.0;"/><text fill="#000000" font-family="monospace" font-size="14" lengthAdjust="spacing" textLength="112" x="22" y="48.9951">StartOfPackage</text></g><!--link CRC to CurrSession--><g id="link_CRC_CurrSession"><path d="M144.29,127 C155.75,127 161.22,127 172.69,127 " fill="none" id="CRC-to-CurrSession" style="stroke:#000000;stroke-width:1.0;"/><polygon fill="#000000" points="178.69,127,169.69,123,173.69,127,169.69,131,178.69,127" style="stroke:#000000;stroke-width:1.0;"/></g><!--link CurrSession to Flags--><g id="link_CurrSession_Flags"><path d="M317,145.34 C317,163 317,184.21 317,201.81 " fill="none" id="CurrSession-to-Flags" style="stroke:#000000;stroke-width:1.0;"/><polygon fill="#000000" points="317,207.81,321,198.81,317,202.81,313,198.81,317,207.81" style="stroke:#000000;stroke-width:1.0;"/></g><!--link Flags to PrevSession--><g id="link_Flags_PrevSession"><path d="M379.27,226 C429.81,226 497.04,226 561.75,226 " fill="none" id="Flags-to-PrevSession" style="stroke:#000000;stroke-width:1.0;"/><polygon fill="#000000" points="567.75,226,558.75,222,562.75,226,558.75,230,567.75,226" style="stroke:#000000;stroke-width:1.0;"/><text fill="#000000" font-family="monospace" font-size="13" lengthAdjust="spacing" textLength="152" x="397.5" y="219.0669">IsMaster&#160;-&gt;&#160;enabled</text></g><!--link PrevSession to Len--><g id="link_PrevSession_Len"><path d="M710,244.24 C710,267.93 710,304.29 710,327.9 " fill="none" id="PrevSession-to-Len" style="stroke:#000000;stroke-width:1.0;"/><polygon fill="#000000" points="710,333.9,714,324.9,710,328.9,706,324.9,710,333.9" style="stroke:#000000;stroke-width:1.0;"/></g><!--link Len to GUIDS--><g id="link_Len_GUIDS"><path d="M796.36,352 C807.89,352 813.41,352 824.94,352 " fill="none" id="Len-to-GUIDS" style="stroke:#000000;stroke-width:1.0;"/><polygon fill="#000000" points="830.94,352,821.94,348,825.94,352,821.94,356,830.94,352" style="stroke:#000000;stroke-width:1.0;"/></g><!--link GUIDS to EndOfPackage--><g id="link_GUIDS_EndOfPackage"><path d="M949,370.01 C949,395.62 949,437.07 949,455.95 " fill="none" id="GUIDS-to-EndOfPackage" style="stroke:#000000;stroke-width:1.0;"/><polygon fill="#000000" points="949,461.95,953,452.95,949,456.95,945,452.95,949,461.95" style="stroke:#000000;stroke-width:1.0;"/></g><!--link Flags to EndOfPackage2--><g id="link_Flags_EndOfPackage2"><path d="M317,244.24 C317,271.39 317,317.06 317,336.94 " fill="none" id="Flags-to-EndOfPackage2" style="stroke:#000000;stroke-width:1.0;"/><polygon fill="#000000" points="317,342.94,321,333.94,317,337.94,313,333.94,317,342.94" style="stroke:#000000;stroke-width:1.0;"/><text fill="#000000" font-family="monospace" font-size="13" lengthAdjust="spacing" textLength="160" x="318" y="289.0669">IsMaster&#160;-&gt;&#160;disabled</text></g><!--link StartOfPackage to CRC--><g id="link_StartOfPackage_CRC"><path d="M78,28.32 C78,45.59 78,79.68 78,102.77 " fill="none" id="StartOfPackage-to-CRC" style="stroke:#000000;stroke-width:1.0;"/><polygon fill="#000000" points="78,108.77,82,99.77,78,103.77,74,99.77,78,108.77" style="stroke:#000000;stroke-width:1.0;"/></g><!--SRC=[VP9FQyCm3CNl_XHQx-rO2cEC4XZT7mBPLXPsQdTm4pM4kKwmdB5y-ybsKvmUTZ6A_7lMqoDNZIvLNo4ihiaE2XTTVrH262ojrBL2cAq_rii4jdsZxJBvce4au5PCF2jPKo3k0k0xCVBocJr29yjlchwKeuwn1oAqu63cSlY5cri-zeF5WBkR8XPi3FuqRKz0IDIqsXEmlP0vgWZ0PBFU6DJsVws3HgtGhMLT7gmBDW_pUSgLu4I0gnYEQa-5J49M_1bvkeUCNYLPDEu2jTmhh4G4X2aSbP-OdcBmfxzwqjNxOSFfoXf7awVbr02jveFwhckDfPrUhJA2en-Nfd1WFtwTDrOvSs8iuEnPb8qfNM3n72-A6ycusuMXPBfUrL3OJnHM6dl6lCxzM7y0]--></g></svg>